<svg width="60" height="60" viewBox="0 0 60 60" fill="none" xmlns="http://www.w3.org/2000/svg">
<path d="M26.2249 5.57515L13.75 10.2501C10.875 11.3251 8.52502 14.7251 8.52502 17.8001V36.375C8.52502 39.325 10.4751 43.2 12.8501 44.975L23.6 53.0002C27.125 55.6502 32.9249 55.6502 36.4499 53.0002L47.1999 44.975C49.5749 43.2 51.525 39.325 51.525 36.375V17.8001C51.525 14.7251 49.1749 11.3251 46.2999 10.2501L33.825 5.57515C31.7 4.80015 28.2999 4.80015 26.2249 5.57515Z" stroke="white" stroke-width="2" stroke-linecap="round" stroke-linejoin="round"/>
<path d="M30.0002 27.2999C29.9002 27.2999 29.7752 27.2999 29.6752 27.2999C27.3252 27.2249 25.4502 25.275 25.4502 22.9C25.4502 20.475 27.4252 18.5 29.8502 18.5C32.2752 18.5 34.2502 20.475 34.2502 22.9C34.2252 25.3 32.3502 27.2249 30.0002 27.2999Z" stroke="white" stroke-width="2" stroke-linecap="round" stroke-linejoin="round"/>
<path d="M25.025 34.2999C22.6251 35.8999 22.6251 38.5249 25.025 40.1249C27.75 41.9499 32.225 41.9499 34.95 40.1249C37.35 38.5249 37.35 35.8999 34.95 34.2999C32.25 32.4749 27.775 32.4749 25.025 34.2999Z" stroke="white" stroke-width="2" stroke-linecap="round" stroke-linejoin="round"/>
</svg>
