<svg width="10" height="10" viewBox="0 0 10 10" fill="none" xmlns="http://www.w3.org/2000/svg">
<path d="M5 0C4.78769 0 4.61538 0.172308 4.61538 0.384615V0.450721C4.61538 0.634567 4.48593 0.798594 4.30439 0.827825C4.21631 0.842055 4.12912 0.85854 4.04297 0.878155C3.86451 0.918924 3.68403 0.817885 3.61403 0.649038L3.58849 0.588942C3.50734 0.392788 3.28248 0.299321 3.08594 0.380859C2.88978 0.462013 2.79632 0.686875 2.87785 0.883413L2.9034 0.945012C2.97416 1.11424 2.91757 1.31459 2.76142 1.41151C2.68603 1.45843 2.61249 1.50759 2.54057 1.55874C2.39133 1.66528 2.1849 1.64103 2.05529 1.51142L2.00871 1.46484C1.85833 1.31446 1.61484 1.31446 1.46484 1.46484C1.31484 1.61523 1.31484 1.85871 1.46484 2.00871L1.51142 2.05529C1.64103 2.1849 1.66528 2.39095 1.55874 2.54057C1.50759 2.61249 1.45843 2.68603 1.41151 2.76142C1.31459 2.91757 1.11388 2.97453 0.944261 2.90415L0.883413 2.87861C0.68726 2.79745 0.461647 2.89053 0.380108 3.08669C0.298954 3.28284 0.392037 3.5077 0.588191 3.58924L0.648287 3.61403C0.817133 3.68403 0.918924 3.86451 0.878155 4.04297C0.85854 4.12912 0.841304 4.21631 0.827073 4.30439C0.798227 4.48554 0.634567 4.61538 0.450721 4.61538H0.384615C0.172308 4.61538 0 4.78769 0 5C0 5.21231 0.172308 5.38462 0.384615 5.38462H0.450721C0.634567 5.38462 0.798594 5.51407 0.827825 5.69561C0.842055 5.78369 0.85854 5.87088 0.878155 5.95703C0.918924 6.13549 0.817885 6.31597 0.649038 6.38597L0.588942 6.41151C0.392788 6.49266 0.299321 6.71752 0.380859 6.91406C0.462013 7.11022 0.686875 7.20368 0.883413 7.12215L0.945012 7.0966C1.11463 7.02622 1.31495 7.08281 1.41226 7.23858C1.45918 7.31397 1.50796 7.38788 1.5595 7.46019C1.66603 7.60942 1.64178 7.81585 1.51217 7.94546L1.46484 7.99204C1.31446 8.14242 1.31446 8.38591 1.46484 8.53591C1.61523 8.68591 1.85871 8.68629 2.00871 8.53591L2.05604 8.48933C2.18566 8.35972 2.39133 8.33472 2.54057 8.44126C2.61287 8.49279 2.68678 8.54232 2.76217 8.58924C2.91794 8.68617 2.97528 8.88688 2.9049 9.05649L2.87936 9.11734C2.7982 9.31349 2.89129 9.5391 3.08744 9.62064C3.28359 9.7018 3.50846 9.60871 3.58999 9.41256L3.61478 9.35246C3.68478 9.18362 3.86526 9.08183 4.04372 9.1226C4.12987 9.14221 4.21706 9.15945 4.30514 9.17368C4.48552 9.20175 4.61538 9.36543 4.61538 9.54928V9.61539C4.61538 9.82769 4.78769 10 5 10C5.21231 10 5.38462 9.82769 5.38462 9.61539V9.54928C5.38462 9.36543 5.51407 9.20141 5.69561 9.17218C5.78369 9.15794 5.87088 9.14146 5.95703 9.12185C6.13549 9.08108 6.31597 9.18212 6.38597 9.35096L6.41151 9.41106C6.49266 9.60721 6.71752 9.70068 6.91406 9.61914C7.11022 9.53799 7.20368 9.31313 7.12215 9.11659L7.0966 9.05499C7.02622 8.88537 7.08281 8.68505 7.23858 8.58774C7.31397 8.54082 7.38788 8.49204 7.46019 8.44051C7.60942 8.33397 7.81585 8.35822 7.94546 8.48783L7.99204 8.53516C8.14242 8.68554 8.38591 8.68554 8.53591 8.53516C8.68591 8.38477 8.68629 8.14129 8.53591 7.99129L8.48933 7.94396C8.35972 7.81434 8.33472 7.60867 8.44126 7.45944C8.49279 7.38713 8.54232 7.31322 8.58924 7.23783C8.68617 7.08206 8.88688 7.02472 9.05649 7.0951L9.11734 7.12064C9.31349 7.2018 9.5391 7.10871 9.62064 6.91256C9.7018 6.71641 9.60871 6.49154 9.41256 6.41001L9.35246 6.38522C9.18362 6.31522 9.08183 6.13474 9.1226 5.95628C9.14221 5.87013 9.15945 5.78294 9.17368 5.69486C9.20175 5.51448 9.36543 5.38462 9.54928 5.38462H9.61539C9.82769 5.38462 10 5.21231 10 5C10 4.78769 9.82769 4.61538 9.61539 4.61538H9.54928C9.36543 4.61538 9.20141 4.48593 9.17218 4.30439C9.15794 4.21631 9.14146 4.12912 9.12185 4.04297C9.08108 3.86451 9.18212 3.68403 9.35096 3.61403L9.41106 3.58849C9.60721 3.50734 9.70068 3.28248 9.61914 3.08594C9.53799 2.88978 9.31313 2.79632 9.11659 2.87785L9.05499 2.9034C8.88537 2.97378 8.68505 2.91719 8.58774 2.76142C8.54082 2.68603 8.49204 2.61212 8.44051 2.53981C8.33397 2.39058 8.35822 2.18415 8.48783 2.05454L8.53516 2.00796C8.68554 1.85758 8.68554 1.61409 8.53516 1.46409C8.38477 1.31371 8.14129 1.31371 7.99129 1.46409L7.94471 1.51142C7.8151 1.64103 7.60867 1.66603 7.45944 1.5595C7.38713 1.50796 7.31322 1.45843 7.23783 1.41151C7.08206 1.31459 7.02547 1.11388 7.09585 0.944261L7.12139 0.883413C7.20255 0.68726 7.10947 0.461647 6.91331 0.380108C6.71716 0.298954 6.4923 0.392037 6.41076 0.588191L6.38522 0.648287C6.31522 0.817133 6.13474 0.918924 5.95628 0.878155C5.87013 0.85854 5.78294 0.841304 5.69486 0.827073C5.51409 0.798227 5.38462 0.634567 5.38462 0.450721V0.384615C5.38462 0.172308 5.21231 0 5 0ZM5 1.92308C6.56871 1.92308 7.86099 3.09803 8.05063 4.61538H5.66481C5.59741 4.49865 5.50052 4.40167 5.38384 4.33417C5.26717 4.26666 5.1348 4.23101 5 4.23077C4.99975 4.23077 4.9995 4.23077 4.99925 4.23077L3.80634 2.16346C4.17346 2.00874 4.57662 1.92308 5 1.92308ZM3.14228 2.55108L4.33443 4.61538C4.26671 4.73226 4.23095 4.86492 4.23077 5C4.23122 5.13457 4.26696 5.26668 4.33443 5.38311L3.14153 7.44817C2.40247 6.88615 1.92308 6.00003 1.92308 5C1.92308 3.99959 2.40275 3.11306 3.14228 2.55108ZM5.66557 5.38462H8.05063C7.86099 6.90197 6.56871 8.07692 5 8.07692C4.57662 8.07692 4.17346 7.99126 3.80634 7.83654L4.99925 5.76923C4.9995 5.76923 4.99975 5.76923 5 5.76923C5.13492 5.76912 5.26745 5.73353 5.38427 5.66602C5.50109 5.59851 5.5981 5.50146 5.66557 5.38462Z" fill="#fff"/>
</svg>
