<svg width="120" height="25" viewBox="0 0 120 25" fill="none" xmlns="http://www.w3.org/2000/svg">
<g clip-path="url(#clip0_29_28)">
<path d="M81.5747 10.1512C80.1759 10.1393 78.8051 10.5433 77.6362 11.3118C76.4673 12.0803 75.5531 13.1787 75.0095 14.4676C74.4659 15.7566 74.3175 17.178 74.5831 18.5514C74.8487 19.9248 75.5164 21.1884 76.5013 22.1818C77.4862 23.1752 78.744 23.8535 80.1152 24.1308C81.4863 24.4082 82.9089 24.2719 84.2024 23.7393C85.496 23.2068 86.6021 22.302 87.3806 21.1397C88.159 19.9774 88.5747 18.6101 88.5747 17.2112C88.5696 15.3507 87.8323 13.567 86.5224 12.2459C85.2124 10.9247 83.4351 10.1722 81.5747 10.1512ZM81.5747 21.0612C80.8172 21.0652 80.0756 20.8444 79.4436 20.4268C78.8115 20.0093 78.3175 19.4137 78.024 18.7154C77.7305 18.0171 77.6506 17.2474 77.7945 16.5037C77.9384 15.76 78.2996 15.0756 78.8324 14.5372C79.3653 13.9988 80.0458 13.6305 80.788 13.4788C81.5301 13.3272 82.3006 13.399 83.0019 13.6852C83.7033 13.9714 84.304 14.4592 84.7281 15.0868C85.1522 15.7144 85.3807 16.4537 85.3847 17.2112C85.3848 18.2254 84.9846 19.1987 84.2713 19.9195C83.5579 20.6404 82.5888 21.0507 81.5747 21.0612Z" fill="white"/>
<path d="M55.7147 9.99121C54.2093 9.99359 52.7175 10.275 51.3147 10.8212C50.2535 10.2196 49.0432 9.93174 47.8247 9.99121C45.9204 9.98135 44.0279 10.2889 42.2247 10.9012L41.8747 11.0212V23.9912H45.4047V13.3612C46.0468 13.1354 46.7242 13.027 47.4047 13.0412C49.1547 13.0412 49.6647 13.6012 49.6647 15.4212V23.9912H53.2347V15.1912C53.2565 14.5902 53.2028 13.9888 53.0747 13.4012C53.6832 13.1763 54.326 13.0579 54.9747 13.0512C56.6447 13.0512 57.3947 13.8012 57.3947 15.4312V23.9912H60.9247V15.1512C60.9998 14.5022 60.9437 13.8447 60.7599 13.2177C60.5761 12.5907 60.2683 12.007 59.8547 11.5012C59.305 10.9792 58.6538 10.5758 57.9416 10.316C57.2294 10.0562 56.4714 9.94569 55.7147 9.99121Z" fill="white"/>
<path d="M69.8247 21.1912C67.4747 21.1912 66.1247 19.7312 66.1247 17.1912C66.1247 14.6512 67.4847 13.0812 69.8647 13.0812C70.3047 13.0751 70.743 13.1358 71.1647 13.2612C71.6605 13.4131 72.1247 13.6537 72.5347 13.9712L74.0247 11.4012C73.4107 10.9065 72.6982 10.5485 71.9347 10.3512C71.2096 10.1529 70.4654 10.0322 69.7147 9.99121C65.4647 9.99121 62.6147 12.9312 62.6147 17.3112C62.6147 21.5212 65.3147 24.2312 69.5047 24.2312C71.2114 24.2693 72.8753 23.6945 74.1947 22.6112L72.4347 20.3912C71.6757 20.9363 70.7588 21.2173 69.8247 21.1912Z" fill="white"/>
<path d="M23.8247 10.1112C18.8247 10.1112 16.4447 12.3312 16.4447 17.0512V23.9912H20.0547V16.9912C20.0547 14.6112 21.4047 13.1412 23.5047 13.1412C24.1806 13.149 24.8527 13.2431 25.5047 13.4212L26.3347 10.2912C25.5026 10.1786 24.6643 10.1185 23.8247 10.1112Z" fill="white"/>
<path d="M39.8247 16.6612V23.9912H35.0147C31.6847 23.9912 30.2147 23.7512 28.4747 22.6012C26.9647 21.6012 26.1247 19.6012 26.1247 17.0912C26.1247 13.6012 28.4347 10.0912 33.5047 10.0912C37.6347 10.0712 39.8247 12.3712 39.8247 16.6612ZM36.2947 17.0512C36.2947 14.3912 35.2947 13.0512 33.1947 13.0512C31.0947 13.0512 29.8247 14.6312 29.8247 16.9912C29.8247 19.7912 31.1247 20.9912 34.1447 20.9912H36.3247L36.2947 17.0512Z" fill="white"/>
<path d="M14.5147 16.6612V23.9912H9.71471C6.38471 23.9912 4.91471 23.7512 3.16471 22.6012C1.65471 21.5712 0.824707 19.6312 0.824707 17.0912C0.824707 13.6012 3.12471 10.0912 8.20471 10.0912C12.3247 10.0712 14.5147 12.3712 14.5147 16.6612ZM10.8247 17.0512C10.8247 14.3512 9.87471 13.0512 7.76471 13.0512C5.65471 13.0512 4.35471 14.6312 4.35471 16.9912C4.35471 19.7912 5.70471 20.9912 8.72471 20.9912H10.8247V17.0512Z" fill="white"/>
<path d="M95.8247 0.491211H95.3247V24.4912H119.325V0.491211H95.8247Z" fill="url(#paint0_radial_29_28)" stroke="white"/>
<path d="M108.505 10.6412C108.631 10.6941 108.739 10.7829 108.816 10.8967C108.892 11.0104 108.934 11.1441 108.935 11.2812C108.935 11.5112 108.645 11.5812 108.365 11.4512C108.235 11.4009 108.125 11.3109 108.049 11.1942C107.974 11.0775 107.937 10.94 107.945 10.8012C107.995 10.5812 108.235 10.5112 108.505 10.6412Z" fill="white"/>
<path d="M109.325 6.22121C109.545 6.33121 109.705 6.53121 109.685 6.67121C109.665 6.81121 109.465 6.83121 109.235 6.72121C109.005 6.61121 108.855 6.40121 108.875 6.25121C108.895 6.10121 109.095 6.10121 109.325 6.22121Z" fill="white"/>
<path d="M109.395 5.77121C109.575 5.87121 109.715 6.04121 109.695 6.15121C109.675 6.26121 109.515 6.28121 109.325 6.15121C109.135 6.02121 109.005 5.88121 109.025 5.77121C109.045 5.66121 109.205 5.68121 109.395 5.77121Z" fill="white"/>
<path d="M109.465 5.34121C109.645 5.43121 109.765 5.58121 109.755 5.68121C109.745 5.78121 109.585 5.79121 109.405 5.68121C109.225 5.57121 109.115 5.43121 109.125 5.33121C109.135 5.23121 109.295 5.25121 109.465 5.34121Z" fill="white"/>
<path d="M109.535 4.91121C109.695 5.00121 109.805 5.13121 109.795 5.22121C109.785 5.31121 109.645 5.32121 109.475 5.22121C109.305 5.12121 109.205 5.00121 109.215 4.91121C109.225 4.82121 109.375 4.83121 109.535 4.91121Z" fill="white"/>
<path d="M109.595 4.52121C109.745 4.60121 109.855 4.72121 109.845 4.80121C109.835 4.88121 109.705 4.89121 109.555 4.80121C109.405 4.71121 109.295 4.59121 109.305 4.51121C109.315 4.43121 109.455 4.44121 109.595 4.52121Z" fill="white"/>
<path d="M109.655 4.16121C109.795 4.24121 109.885 4.35121 109.885 4.42121C109.885 4.49121 109.755 4.49121 109.615 4.42121C109.475 4.35121 109.375 4.23121 109.385 4.15121C109.395 4.07121 109.515 4.09121 109.655 4.16121Z" fill="white"/>
<path d="M109.715 3.82121C109.835 3.89121 109.925 3.98121 109.915 4.06121C109.905 4.14121 109.805 4.12121 109.675 4.06121C109.545 4.00121 109.455 3.89121 109.465 3.82121C109.475 3.75121 109.585 3.75121 109.715 3.82121Z" fill="white"/>
<path d="M109.765 3.47121C109.875 3.53121 109.955 3.61121 109.945 3.67121C109.935 3.73121 109.845 3.67121 109.735 3.67121C109.625 3.67121 109.545 3.53121 109.555 3.47121C109.565 3.41121 109.655 3.41121 109.765 3.47121Z" fill="white"/>
<path d="M109.825 3.14121C109.925 3.20121 109.995 3.27121 109.995 3.33121C109.995 3.39121 109.905 3.33121 109.795 3.33121C109.685 3.33121 109.625 3.20121 109.635 3.15121C109.645 3.10121 109.725 3.09121 109.825 3.14121Z" fill="white"/>
<path d="M109.825 2.82121C109.915 2.82121 109.975 2.93121 109.975 2.98121C109.975 3.03121 109.895 2.98121 109.805 2.98121C109.715 2.98121 109.655 2.87121 109.665 2.82121C109.675 2.77121 109.825 2.77121 109.825 2.82121Z" fill="white"/>
<path d="M109.915 2.52121C109.995 2.52121 110.045 2.61121 110.045 2.65121C110.045 2.69121 109.975 2.65121 109.895 2.65121C109.815 2.65121 109.765 2.55121 109.775 2.51121C109.785 2.47121 109.825 2.47121 109.915 2.52121Z" fill="white"/>
<path d="M108.225 12.1912C108.115 12.1457 108.023 12.0674 107.96 11.9671C107.898 11.8667 107.868 11.7493 107.875 11.6312C107.875 11.4412 108.125 11.3812 108.355 11.4912C108.459 11.5377 108.548 11.6134 108.61 11.7093C108.672 11.8051 108.705 11.917 108.705 12.0312C108.665 12.2312 108.455 12.3012 108.225 12.1912Z" fill="white"/>
<path d="M108.045 13.1412C107.938 13.0938 107.849 13.0144 107.79 12.914C107.731 12.8136 107.705 12.6973 107.715 12.5812C107.715 12.3812 107.955 12.3112 108.185 12.4212C108.289 12.4681 108.377 12.5459 108.436 12.6443C108.495 12.7427 108.523 12.8568 108.515 12.9712C108.475 13.1712 108.275 13.2412 108.045 13.1412Z" fill="white"/>
<path d="M107.825 14.1212C107.719 14.0734 107.631 13.9936 107.574 13.893C107.517 13.7925 107.492 13.6764 107.505 13.5612C107.505 13.3612 107.745 13.2912 107.965 13.3912C108.069 13.4354 108.156 13.5116 108.213 13.6087C108.271 13.7059 108.296 13.8189 108.285 13.9312C108.275 14.1412 108.075 14.2212 107.825 14.1212Z" fill="white"/>
<path d="M107.645 15.2012C107.539 15.1544 107.452 15.0744 107.396 14.9733C107.34 14.8722 107.318 14.7556 107.335 14.6412C107.343 14.5933 107.363 14.5482 107.393 14.51C107.424 14.4719 107.463 14.442 107.508 14.4231C107.553 14.4042 107.601 14.3968 107.65 14.4017C107.698 14.4067 107.745 14.4237 107.785 14.4512C107.889 14.4975 107.975 14.576 108.031 14.675C108.086 14.7741 108.109 14.8884 108.095 15.0012C108.055 15.2112 107.825 15.2912 107.645 15.2012Z" fill="white"/>
<path d="M107.425 16.2712C107.333 16.2292 107.257 16.159 107.209 16.0708C107.16 15.9825 107.141 15.881 107.155 15.7812C107.163 15.738 107.182 15.6975 107.209 15.663C107.237 15.6284 107.272 15.6007 107.312 15.5822C107.351 15.5637 107.395 15.5549 107.439 15.5564C107.483 15.558 107.526 15.5699 107.565 15.5912C107.654 15.6347 107.728 15.7057 107.775 15.7938C107.821 15.8818 107.839 15.9825 107.825 16.0812C107.818 16.1241 107.8 16.1646 107.774 16.1993C107.748 16.234 107.714 16.2619 107.674 16.2805C107.635 16.2992 107.592 16.3081 107.548 16.3065C107.505 16.3048 107.462 16.2927 107.425 16.2712Z" fill="white"/>
<path d="M107.155 17.5812C107.066 17.5374 106.993 17.466 106.948 17.3777C106.903 17.2894 106.888 17.1889 106.905 17.0912C106.911 17.0489 106.927 17.0087 106.952 16.9739C106.977 16.9392 107.01 16.9108 107.048 16.8913C107.087 16.8718 107.129 16.8616 107.172 16.8615C107.214 16.8615 107.257 16.8717 107.295 16.8912C107.384 16.9347 107.458 17.0057 107.505 17.0938C107.551 17.1818 107.569 17.2825 107.555 17.3812C107.547 17.4238 107.529 17.4641 107.503 17.4987C107.477 17.5334 107.443 17.5615 107.405 17.5809C107.366 17.6003 107.323 17.6104 107.28 17.6105C107.236 17.6105 107.194 17.6005 107.155 17.5812Z" fill="white"/>
<path d="M106.825 18.9912C106.741 18.9506 106.674 18.8831 106.634 18.7996C106.595 18.716 106.584 18.6215 106.605 18.5312C106.609 18.4909 106.622 18.4521 106.644 18.4182C106.667 18.3843 106.697 18.3563 106.732 18.3366C106.768 18.3169 106.807 18.3062 106.848 18.3052C106.888 18.3043 106.928 18.3132 106.965 18.3312C107.045 18.3726 107.109 18.4388 107.149 18.5198C107.189 18.6009 107.201 18.6925 107.185 18.7812C107.178 18.8205 107.163 18.858 107.141 18.8908C107.118 18.9236 107.089 18.9511 107.054 18.9711C107.02 18.9912 106.981 19.0034 106.942 19.0069C106.902 19.0104 106.862 19.005 106.825 18.9912Z" fill="white"/>
<path d="M106.565 20.4112C106.494 20.375 106.437 20.3156 106.404 20.2429C106.372 20.1702 106.365 20.0884 106.385 20.0112C106.387 19.9755 106.398 19.9408 106.416 19.9099C106.434 19.879 106.459 19.8528 106.489 19.8334C106.52 19.814 106.554 19.8018 106.589 19.798C106.625 19.7941 106.661 19.7987 106.695 19.8112C106.763 19.85 106.818 19.9097 106.85 19.9817C106.883 20.0536 106.891 20.1341 106.875 20.2112C106.825 20.3812 106.695 20.4712 106.565 20.4112Z" fill="white"/>
<path d="M109.475 11.1812C109.576 11.2229 109.662 11.2936 109.722 11.3845C109.783 11.4753 109.815 11.5821 109.815 11.6912C109.815 11.8812 109.605 11.9412 109.385 11.8312C109.282 11.7854 109.194 11.7112 109.132 11.6173C109.07 11.5234 109.036 11.4137 109.035 11.3012C109.075 11.1212 109.265 11.0712 109.475 11.1812Z" fill="white"/>
<path d="M110.435 11.5712C110.559 11.6332 110.664 11.727 110.739 11.8429C110.815 11.9589 110.858 12.0929 110.865 12.2312C110.865 12.4612 110.615 12.5412 110.335 12.4012C110.208 12.3402 110.101 12.2453 110.025 12.127C109.949 12.0087 109.907 11.8717 109.905 11.7312C109.935 11.5112 110.165 11.4412 110.435 11.5712Z" fill="white"/>
<path d="M117.035 11.2212C116.935 11.1612 116.855 11.2212 116.865 11.2812C116.902 11.4034 116.979 11.5092 117.085 11.5812C117.195 11.6512 117.265 11.5812 117.255 11.5212C117.222 11.3971 117.143 11.2899 117.035 11.2212Z" fill="white"/>
<path d="M116.265 10.7012C116.125 10.6212 116.025 10.6412 116.035 10.7612C116.076 10.9243 116.18 11.0644 116.325 11.1512C116.465 11.2312 116.565 11.2112 116.555 11.0812C116.506 10.924 116.404 10.7893 116.265 10.7012Z" fill="white"/>
<path d="M114.125 17.8712C113.935 17.7512 113.795 17.8712 113.785 18.0512C113.794 18.1718 113.828 18.2892 113.884 18.396C113.941 18.5027 114.02 18.5965 114.115 18.6712C114.305 18.7812 114.445 18.6712 114.445 18.4712C114.441 18.3534 114.41 18.238 114.355 18.134C114.299 18.0299 114.22 17.94 114.125 17.8712Z" fill="white"/>
<path d="M113.205 16.0512C112.995 15.9312 112.825 16.0512 112.805 16.2512C112.812 16.3818 112.851 16.5088 112.917 16.6218C112.983 16.7347 113.075 16.8305 113.185 16.9012C113.405 17.0212 113.575 16.9012 113.575 16.7012C113.568 16.5715 113.531 16.4451 113.467 16.3322C113.403 16.2193 113.313 16.123 113.205 16.0512Z" fill="white"/>
<path d="M112.245 14.4812C112.025 14.3712 111.855 14.4812 111.835 14.6512C111.839 14.7748 111.875 14.8951 111.94 15.0004C112.005 15.1056 112.096 15.1921 112.205 15.2512C112.415 15.3712 112.585 15.2512 112.605 15.0712C112.595 14.9516 112.557 14.836 112.495 14.7336C112.432 14.6311 112.347 14.5447 112.245 14.4812Z" fill="white"/>
<path d="M111.655 8.04121C111.465 7.94121 111.305 7.96121 111.295 8.10121C111.285 8.24121 111.435 8.42121 111.625 8.53121C111.815 8.64121 111.975 8.61121 111.985 8.47121C111.967 8.37867 111.928 8.29152 111.871 8.21682C111.814 8.14212 111.74 8.08196 111.655 8.04121Z" fill="white"/>
<path d="M115.585 10.9012C115.435 10.8112 115.325 10.8412 115.335 10.9712C115.376 11.1343 115.481 11.2744 115.625 11.3612C115.785 11.4512 115.885 11.4212 115.875 11.2912C115.833 11.1281 115.729 10.988 115.585 10.9012Z" fill="white"/>
<path d="M114.825 10.4312C114.655 10.3412 114.545 10.3712 114.545 10.5012C114.566 10.5868 114.605 10.6672 114.658 10.7376C114.711 10.8081 114.778 10.8671 114.855 10.9112C115.015 11.0012 115.125 10.9712 115.125 10.8312C115.08 10.6642 114.973 10.5208 114.825 10.4312Z" fill="white"/>
<path d="M113.255 10.1712C113.075 10.0712 112.925 10.1012 112.925 10.2512C112.942 10.3476 112.981 10.4388 113.038 10.5184C113.095 10.598 113.169 10.6638 113.255 10.7112C113.445 10.8112 113.595 10.7812 113.595 10.6212C113.576 10.5252 113.536 10.4347 113.477 10.3567C113.418 10.2787 113.342 10.2153 113.255 10.1712Z" fill="white"/>
<path d="M114.045 9.99121C113.865 9.89121 113.735 9.92121 113.735 10.0612C113.751 10.1553 113.79 10.2441 113.847 10.3205C113.905 10.3969 113.979 10.4588 114.065 10.5012C114.245 10.6012 114.375 10.5712 114.375 10.4212C114.326 10.2399 114.207 10.0853 114.045 9.99121Z" fill="white"/>
<path d="M113.225 9.49121C113.025 9.38121 112.865 9.41121 112.865 9.57121C112.885 9.6729 112.928 9.76872 112.991 9.85174C113.053 9.93475 113.133 10.0029 113.225 10.0512C113.435 10.1612 113.585 10.1212 113.585 9.96121C113.561 9.86183 113.517 9.76853 113.455 9.6875C113.393 9.60647 113.315 9.53956 113.225 9.49121Z" fill="white"/>
<path d="M112.435 9.69121C112.225 9.58121 112.055 9.61121 112.045 9.77121C112.061 9.87854 112.103 9.98032 112.167 10.0675C112.232 10.1547 112.317 10.2247 112.415 10.2712C112.625 10.3912 112.795 10.3512 112.795 10.1812C112.775 10.0777 112.733 9.97992 112.671 9.89508C112.608 9.81025 112.528 9.74056 112.435 9.69121Z" fill="white"/>
<path d="M111.325 12.9912C111.105 12.8812 110.925 12.9412 110.895 13.1412C110.9 13.2618 110.937 13.3788 111.002 13.4806C111.067 13.5824 111.158 13.6654 111.265 13.7212C111.495 13.8412 111.675 13.7212 111.685 13.5612C111.678 13.4433 111.642 13.329 111.579 13.2293C111.516 13.1295 111.428 13.0475 111.325 12.9912Z" fill="white"/>
<path d="M111.395 12.1112C111.155 11.9912 110.965 12.0512 110.935 12.2612C110.942 12.389 110.983 12.5127 111.053 12.6198C111.123 12.7268 111.22 12.8135 111.335 12.8712C111.575 13.0012 111.775 12.9312 111.785 12.7112C111.776 12.5864 111.735 12.4659 111.667 12.3609C111.599 12.256 111.505 12.1701 111.395 12.1112Z" fill="white"/>
<path d="M111.445 11.3012C111.195 11.1712 110.985 11.2312 110.955 11.4412C110.969 11.5762 111.015 11.7059 111.09 11.8191C111.165 11.9323 111.266 12.0257 111.385 12.0912C111.655 12.2212 111.855 12.1512 111.875 11.9312C111.862 11.7984 111.816 11.671 111.741 11.5609C111.666 11.4507 111.564 11.3614 111.445 11.3012Z" fill="white"/>
<path d="M111.495 10.5412C111.255 10.4112 111.045 10.4612 111.025 10.6612C111.037 10.7903 111.082 10.9141 111.155 11.0208C111.229 11.1276 111.329 11.2138 111.445 11.2712C111.705 11.4012 111.905 11.3412 111.915 11.1312C111.902 11.0048 111.857 10.8839 111.783 10.7805C111.709 10.677 111.61 10.5945 111.495 10.5412Z" fill="white"/>
<path d="M111.535 9.88121C111.325 9.76121 111.145 9.80121 111.135 9.97121C111.144 10.083 111.184 10.1901 111.249 10.2815C111.314 10.3729 111.402 10.4453 111.505 10.4912C111.725 10.6112 111.895 10.5612 111.905 10.3912C111.894 10.2809 111.854 10.1754 111.789 10.0857C111.724 9.99601 111.636 9.9254 111.535 9.88121Z" fill="white"/>
<path d="M111.585 9.20121C111.345 9.08121 111.155 9.12121 111.145 9.29121C111.159 9.40933 111.203 9.52182 111.273 9.61805C111.343 9.71429 111.437 9.79109 111.545 9.84121C111.785 9.97121 111.975 9.92121 111.985 9.74121C111.966 9.62574 111.92 9.51642 111.851 9.42245C111.781 9.32847 111.69 9.2526 111.585 9.20121Z" fill="white"/>
<path d="M111.615 8.59121C111.385 8.47121 111.205 8.50121 111.185 8.66121C111.201 8.77475 111.246 8.88247 111.314 8.97489C111.382 9.06731 111.471 9.1416 111.575 9.19121C111.815 9.31121 111.995 9.27121 112.005 9.10121C111.985 8.99125 111.939 8.88758 111.872 8.79886C111.804 8.71014 111.716 8.63894 111.615 8.59121Z" fill="white"/>
<path d="M110.135 6.71121C109.975 6.63121 109.835 6.64121 109.825 6.71121C109.815 6.78121 109.925 6.96121 110.085 7.05121C110.245 7.14121 110.385 7.12121 110.395 7.05121C110.405 6.98121 110.285 6.80121 110.135 6.71121Z" fill="white"/>
<path d="M110.165 6.24121C110.015 6.16121 109.895 6.17121 109.885 6.24121C109.875 6.31121 109.975 6.46121 110.125 6.54121C110.275 6.62121 110.395 6.60121 110.405 6.54121C110.415 6.48121 110.315 6.31121 110.165 6.24121Z" fill="white"/>
<path d="M110.195 5.78121C110.065 5.72121 109.965 5.72121 109.945 5.78121C109.959 5.83752 109.986 5.88965 110.024 5.93318C110.062 5.9767 110.111 6.01034 110.165 6.03121C110.295 6.10121 110.395 6.09121 110.405 6.03121C110.415 5.97121 110.325 5.85121 110.195 5.78121Z" fill="white"/>
<path d="M110.215 5.35121C110.095 5.29121 110.005 5.28121 109.995 5.35121C109.985 5.42121 110.065 5.51121 110.185 5.58121C110.305 5.65121 110.395 5.64121 110.405 5.58121C110.415 5.52121 110.325 5.41121 110.215 5.35121Z" fill="white"/>
<path d="M110.235 4.99121C110.125 4.93121 110.035 4.92121 110.025 4.99121C110.015 5.06121 110.095 5.14121 110.205 5.20121C110.315 5.26121 110.405 5.27121 110.415 5.20121C110.425 5.13121 110.335 4.99121 110.235 4.99121Z" fill="white"/>
<path d="M110.255 4.53121C110.155 4.53121 110.085 4.47121 110.075 4.53121C110.065 4.59121 110.145 4.66121 110.235 4.71121C110.325 4.76121 110.405 4.77121 110.415 4.71121C110.425 4.65121 110.355 4.58121 110.255 4.53121Z" fill="white"/>
<path d="M110.275 4.17121C110.185 4.17121 110.115 4.11121 110.105 4.17121C110.095 4.23121 110.165 4.29121 110.255 4.34121C110.345 4.39121 110.415 4.40121 110.425 4.34121C110.435 4.28121 110.355 4.22121 110.275 4.17121Z" fill="white"/>
<path d="M110.295 3.80121C110.215 3.75121 110.145 3.74121 110.145 3.80121C110.145 3.86121 110.195 3.90121 110.275 3.94121C110.355 3.98121 110.415 4.00121 110.425 3.94121C110.435 3.88121 110.365 3.84121 110.295 3.80121Z" fill="white"/>
<path d="M109.275 12.5912C109.445 12.6812 109.595 12.5912 109.615 12.4812C109.615 12.3952 109.591 12.3108 109.545 12.2381C109.499 12.1655 109.433 12.1075 109.355 12.0712C109.185 11.9812 109.035 12.0712 109.015 12.1812C109.013 12.2675 109.037 12.3524 109.083 12.4253C109.129 12.4982 109.196 12.5559 109.275 12.5912Z" fill="white"/>
<path d="M109.125 13.5412C109.285 13.6212 109.425 13.5412 109.455 13.4212C109.457 13.336 109.435 13.2519 109.391 13.1791C109.346 13.1063 109.282 13.048 109.205 13.0112C109.045 12.9412 108.905 13.0112 108.875 13.1312C108.872 13.2164 108.894 13.3005 108.939 13.3733C108.983 13.4461 109.048 13.5044 109.125 13.5412Z" fill="white"/>
<path d="M108.905 14.5112C109.065 14.5912 109.205 14.5112 109.225 14.3812C109.231 14.2966 109.211 14.2122 109.168 14.139C109.125 14.0658 109.061 14.0073 108.985 13.9712C108.825 13.8912 108.685 13.9712 108.655 14.1012C108.652 14.1864 108.674 14.2705 108.719 14.3433C108.763 14.4161 108.828 14.4744 108.905 14.5112Z" fill="white"/>
<path d="M108.695 15.5712C108.723 15.5902 108.756 15.6017 108.79 15.6046C108.824 15.6075 108.858 15.6016 108.889 15.5876C108.92 15.5736 108.947 15.5518 108.967 15.5245C108.987 15.4971 109 15.465 109.005 15.4312C109.01 15.3519 108.992 15.2728 108.953 15.2035C108.914 15.1343 108.855 15.0779 108.785 15.0412C108.756 15.0222 108.724 15.0107 108.69 15.0078C108.656 15.005 108.622 15.0108 108.591 15.0248C108.56 15.0389 108.533 15.0606 108.512 15.088C108.492 15.1153 108.479 15.1474 108.475 15.1812C108.465 15.2611 108.482 15.342 108.521 15.4121C108.561 15.4821 108.622 15.5379 108.695 15.5712Z" fill="white"/>
<path d="M108.445 16.6312C108.473 16.6486 108.505 16.6584 108.538 16.6597C108.57 16.661 108.603 16.6538 108.632 16.6386C108.662 16.6235 108.686 16.601 108.704 16.5735C108.722 16.5459 108.733 16.5141 108.735 16.4812C108.741 16.4056 108.724 16.33 108.686 16.2641C108.649 16.1981 108.593 16.1449 108.525 16.1112C108.497 16.0941 108.466 16.0841 108.434 16.0823C108.402 16.0806 108.37 16.087 108.341 16.1009C108.312 16.1149 108.287 16.1361 108.268 16.1624C108.25 16.1886 108.238 16.2192 108.235 16.2512C108.228 16.3282 108.245 16.4055 108.282 16.4731C108.319 16.5408 108.376 16.5958 108.445 16.6312Z" fill="white"/>
<path d="M108.155 17.8912C108.182 17.9068 108.212 17.9151 108.243 17.9154C108.274 17.9156 108.305 17.9078 108.332 17.8927C108.359 17.8776 108.382 17.8557 108.398 17.8292C108.415 17.8026 108.424 17.7723 108.425 17.7412C108.435 17.6689 108.421 17.5953 108.387 17.5307C108.353 17.4662 108.3 17.4139 108.235 17.3812C108.208 17.3659 108.179 17.3575 108.149 17.3568C108.118 17.356 108.088 17.3629 108.061 17.3769C108.034 17.3909 108.011 17.4114 107.994 17.4367C107.978 17.4619 107.967 17.491 107.965 17.5212C107.951 17.5952 107.962 17.6717 107.997 17.7387C108.031 17.8056 108.087 17.8593 108.155 17.8912Z" fill="white"/>
<path d="M112.415 9.06121C112.225 8.95121 112.065 8.98121 112.055 9.13121C112.074 9.22817 112.116 9.31926 112.177 9.39734C112.238 9.47541 112.316 9.53835 112.405 9.58121C112.595 9.68121 112.745 9.65121 112.755 9.50121C112.736 9.40647 112.696 9.31735 112.637 9.24096C112.578 9.16457 112.502 9.10302 112.415 9.06121Z" fill="white"/>
<path d="M112.365 10.3812C112.195 10.2912 112.055 10.3312 112.045 10.4712C112.058 10.5611 112.094 10.6464 112.148 10.7195C112.202 10.7927 112.273 10.8516 112.355 10.8912C112.535 10.9812 112.665 10.9512 112.675 10.8012C112.659 10.7121 112.622 10.6279 112.569 10.5551C112.515 10.4822 112.445 10.4227 112.365 10.3812Z" fill="white"/>
<path d="M112.355 11.0712C112.155 10.9612 112.005 11.0112 111.985 11.1712C111.999 11.2766 112.038 11.377 112.098 11.4641C112.159 11.5511 112.24 11.6222 112.335 11.6712C112.535 11.7812 112.695 11.7312 112.695 11.5612C112.685 11.4573 112.648 11.3576 112.589 11.2718C112.529 11.186 112.449 11.117 112.355 11.0712Z" fill="white"/>
<path d="M112.255 13.5212C112.055 13.4212 111.905 13.5212 111.895 13.6612C111.899 13.7706 111.932 13.877 111.989 13.97C112.047 14.0629 112.128 14.1392 112.225 14.1912C112.425 14.3012 112.575 14.1912 112.585 14.0412C112.576 13.9342 112.542 13.831 112.484 13.7404C112.427 13.6497 112.348 13.5745 112.255 13.5212Z" fill="white"/>
<path d="M115.525 10.2212C115.355 10.1312 115.245 10.1612 115.255 10.2912C115.275 10.3788 115.312 10.4614 115.366 10.5337C115.419 10.606 115.487 10.6664 115.565 10.7112C115.735 10.8012 115.845 10.7712 115.835 10.6412C115.79 10.466 115.679 10.3152 115.525 10.2212Z" fill="white"/>
<path d="M113.145 17.2312C112.965 17.1312 112.825 17.2312 112.805 17.4112C112.812 17.5228 112.844 17.6314 112.899 17.7285C112.955 17.8256 113.032 17.9086 113.125 17.9712C113.305 18.0712 113.445 17.9712 113.455 17.7812C113.449 17.6718 113.418 17.5653 113.364 17.4699C113.31 17.3744 113.235 17.2928 113.145 17.2312Z" fill="white"/>
<path d="M114.135 19.0912C113.965 18.9812 113.825 19.0912 113.825 19.2812C113.828 19.3952 113.858 19.5069 113.912 19.6075C113.966 19.7082 114.042 19.795 114.135 19.8612C114.305 19.9712 114.435 19.8612 114.435 19.6712C114.432 19.558 114.404 19.4469 114.352 19.3463C114.3 19.2458 114.226 19.1585 114.135 19.0912Z" fill="white"/>
<path d="M112.165 15.5112C111.965 15.4012 111.805 15.5112 111.785 15.6812C111.788 15.7974 111.821 15.9107 111.88 16.0105C111.94 16.1103 112.024 16.1932 112.125 16.2512C112.325 16.3612 112.485 16.2512 112.495 16.0712C112.492 15.9575 112.46 15.8465 112.402 15.7485C112.344 15.6505 112.263 15.5689 112.165 15.5112Z" fill="white"/>
<path d="M111.245 13.9912C111.055 13.8912 110.885 13.9912 110.865 14.1412C110.869 14.2506 110.902 14.357 110.959 14.45C111.017 14.5429 111.098 14.6192 111.195 14.6712C111.395 14.7712 111.555 14.6712 111.565 14.5112C111.562 14.4041 111.531 14.2996 111.474 14.2083C111.418 14.117 111.339 14.0421 111.245 13.9912Z" fill="white"/>
<path d="M110.355 12.4912C110.135 12.3812 109.955 12.4412 109.925 12.6312C109.925 12.7466 109.958 12.8595 110.02 12.9569C110.082 13.0542 110.17 13.132 110.275 13.1812C110.495 13.2912 110.675 13.1812 110.695 13.0212C110.691 12.9106 110.657 12.803 110.597 12.7098C110.537 12.6166 110.454 12.5411 110.355 12.4912Z" fill="white"/>
<path d="M112.295 12.6912C112.115 12.5912 111.975 12.6912 111.955 12.8112C111.966 12.9109 112.001 13.0065 112.057 13.09C112.112 13.1735 112.187 13.2425 112.275 13.2912C112.455 13.3912 112.595 13.2912 112.605 13.1612C112.596 13.0632 112.564 12.9689 112.509 12.8868C112.455 12.8048 112.381 12.7375 112.295 12.6912Z" fill="white"/>
<path d="M111.675 7.52121C111.505 7.43121 111.375 7.44121 111.365 7.52121C111.355 7.60121 111.485 7.79121 111.655 7.89121C111.825 7.99121 111.965 7.96121 111.975 7.84121C111.949 7.77043 111.909 7.7056 111.857 7.65062C111.806 7.59563 111.744 7.55162 111.675 7.52121Z" fill="white"/>
<path d="M114.765 9.83121C114.635 9.76121 114.535 9.78121 114.535 9.88121C114.552 9.95153 114.584 10.0173 114.629 10.0742C114.674 10.1311 114.73 10.1778 114.795 10.2112C114.925 10.2912 115.025 10.2712 115.015 10.1612C114.998 10.092 114.967 10.027 114.924 9.97026C114.881 9.9135 114.827 9.86617 114.765 9.83121Z" fill="white"/>
<path d="M113.265 11.6312C113.115 11.5512 112.995 11.5812 112.985 11.7212C112.997 11.8037 113.029 11.882 113.078 11.9497C113.127 12.0175 113.191 12.0728 113.265 12.1112C113.415 12.1912 113.535 12.1612 113.535 12.0212C113.52 11.9406 113.489 11.8641 113.442 11.7968C113.396 11.7295 113.335 11.673 113.265 11.6312Z" fill="white"/>
<path d="M113.185 15.0512C113.005 14.9412 112.855 15.0512 112.845 15.2012C112.853 15.3137 112.887 15.4228 112.944 15.52C113.001 15.6171 113.08 15.6997 113.175 15.7612C113.365 15.8612 113.515 15.7612 113.515 15.5912C113.508 15.4812 113.474 15.3746 113.416 15.2805C113.359 15.1864 113.279 15.1077 113.185 15.0512Z" fill="white"/>
<path d="M112.325 11.8912C112.155 11.8012 112.015 11.8412 112.005 12.0012C112.013 12.0954 112.044 12.1861 112.097 12.2648C112.149 12.3435 112.221 12.4076 112.305 12.4512C112.485 12.5512 112.625 12.4512 112.635 12.3412C112.624 12.2465 112.59 12.1559 112.536 12.0774C112.482 11.9989 112.409 11.935 112.325 11.8912Z" fill="white"/>
<path d="M114.135 12.9112C113.965 12.8112 113.835 12.8612 113.835 13.0212C113.846 13.1182 113.88 13.2112 113.934 13.2928C113.988 13.3743 114.06 13.4423 114.145 13.4912C114.315 13.5912 114.445 13.5412 114.445 13.3812C114.434 13.284 114.4 13.1907 114.346 13.109C114.292 13.0273 114.22 12.9595 114.135 12.9112Z" fill="white"/>
<path d="M114.875 21.1812C114.735 21.0812 114.635 21.1812 114.635 21.3412C114.637 21.4435 114.661 21.5442 114.704 21.6371C114.747 21.7299 114.808 21.813 114.885 21.8812C115.015 21.9812 115.115 21.8812 115.115 21.7012C115.112 21.6028 115.089 21.5061 115.048 21.4167C115.007 21.3273 114.948 21.2472 114.875 21.1812Z" fill="white"/>
<path d="M114.065 10.6512C113.915 10.5612 113.795 10.5912 113.795 10.7212C113.809 10.8056 113.843 10.8856 113.893 10.9549C113.943 11.0243 114.009 11.0812 114.085 11.1212C114.245 11.2112 114.365 11.1812 114.355 11.0412C114.34 10.9581 114.306 10.8795 114.256 10.8117C114.206 10.744 114.14 10.689 114.065 10.6512Z" fill="white"/>
<path d="M110.885 7.11121C110.725 7.03121 110.605 7.05121 110.595 7.11121C110.585 7.17121 110.695 7.35121 110.855 7.44121C111.015 7.53121 111.135 7.50121 111.145 7.44121C111.129 7.37037 111.097 7.30401 111.052 7.24693C111.007 7.18986 110.95 7.1435 110.885 7.11121Z" fill="white"/>
<path d="M112.445 7.44121C112.295 7.36121 112.185 7.38121 112.175 7.44121C112.165 7.50121 112.295 7.68121 112.435 7.77121C112.575 7.86121 112.705 7.83121 112.705 7.77121C112.687 7.7009 112.655 7.6351 112.61 7.5782C112.565 7.5213 112.509 7.4746 112.445 7.44121Z" fill="white"/>
<path d="M114.015 9.41121C113.885 9.34121 113.795 9.36121 113.805 9.46121C113.818 9.5227 113.844 9.58053 113.883 9.63064C113.921 9.68075 113.969 9.7219 114.025 9.75121C114.155 9.82121 114.245 9.80121 114.245 9.75121C114.234 9.68106 114.208 9.61418 114.168 9.55539C114.128 9.49659 114.076 9.44735 114.015 9.41121Z" fill="white"/>
<path d="M113.225 12.4212C113.075 12.3312 112.955 12.4212 112.945 12.5112C112.954 12.5987 112.984 12.6827 113.033 12.7559C113.081 12.8291 113.147 12.8893 113.225 12.9312C113.385 13.0212 113.505 12.9312 113.505 12.8312C113.495 12.7452 113.464 12.6629 113.416 12.5914C113.367 12.5199 113.301 12.4615 113.225 12.4212Z" fill="white"/>
<path d="M114.085 12.1312C113.955 12.0512 113.845 12.1312 113.845 12.2112C113.858 12.2858 113.887 12.3567 113.93 12.4188C113.973 12.481 114.029 12.533 114.095 12.5712C114.235 12.6512 114.335 12.5712 114.325 12.4912C114.316 12.4166 114.289 12.3452 114.248 12.2826C114.206 12.2201 114.15 12.1682 114.085 12.1312Z" fill="white"/>
<path d="M114.975 13.4412C114.825 13.3512 114.715 13.4412 114.715 13.5412C114.73 13.6294 114.763 13.7133 114.813 13.7874C114.863 13.8616 114.929 13.9242 115.005 13.9712C115.155 14.0712 115.255 13.9712 115.255 13.8712C115.242 13.7835 115.21 13.6996 115.162 13.6253C115.114 13.5511 115.05 13.4882 114.975 13.4412Z" fill="white"/>
<path d="M116.325 11.4012C116.205 11.3312 116.135 11.3512 116.135 11.4612C116.171 11.5889 116.253 11.6991 116.365 11.7712C116.475 11.8412 116.555 11.7712 116.545 11.7112C116.515 11.5829 116.436 11.4716 116.325 11.4012Z" fill="white"/>
<path d="M112.445 6.99121C112.315 6.92121 112.215 6.92121 112.215 6.99121C112.215 7.06121 112.315 7.19121 112.445 7.27121C112.575 7.35121 112.675 7.33121 112.675 7.27121C112.675 7.21121 112.575 7.05121 112.445 6.99121Z" fill="white"/>
<path d="M112.435 7.99121C112.295 7.91121 112.185 7.93121 112.185 7.99121C112.196 8.05734 112.224 8.11948 112.266 8.17191C112.308 8.22434 112.363 8.26537 112.425 8.29121C112.565 8.37121 112.665 8.35121 112.665 8.29121C112.653 8.22642 112.626 8.16534 112.586 8.11312C112.546 8.06091 112.494 8.01909 112.435 7.99121Z" fill="white"/>
<path d="M115.025 19.9112C114.865 19.8012 114.745 19.9112 114.745 20.0912C114.751 20.2012 114.779 20.3087 114.829 20.4069C114.879 20.505 114.949 20.5917 115.035 20.6612C115.195 20.7712 115.305 20.6612 115.305 20.4812C115.298 20.3724 115.27 20.2659 115.222 20.168C115.174 20.0701 115.107 19.9828 115.025 19.9112Z" fill="white"/>
<path d="M111.705 7.05121C111.565 6.98121 111.465 6.99121 111.455 7.05121C111.469 7.11362 111.497 7.17205 111.537 7.22222C111.577 7.2724 111.627 7.31305 111.685 7.34121C111.825 7.41121 111.925 7.40121 111.935 7.34121C111.92 7.2788 111.892 7.22037 111.853 7.1702C111.813 7.12002 111.762 7.07937 111.705 7.05121Z" fill="white"/>
<path d="M113.225 10.9112C113.095 10.8312 112.995 10.8612 112.985 10.9712C112.996 11.0425 113.023 11.1103 113.065 11.1692C113.107 11.2282 113.161 11.2768 113.225 11.3112C113.365 11.3812 113.465 11.3112 113.465 11.2412C113.454 11.1712 113.426 11.1048 113.384 11.0474C113.343 10.9901 113.288 10.9434 113.225 10.9112Z" fill="white"/>
<path d="M113.225 8.99121C113.115 8.93121 113.025 8.99121 113.025 8.99121C113.035 9.04729 113.059 9.10011 113.093 9.14532C113.128 9.19052 113.173 9.22682 113.225 9.25121C113.335 9.31121 113.425 9.25121 113.425 9.25121C113.414 9.19513 113.391 9.14231 113.356 9.09711C113.321 9.05191 113.276 9.01561 113.225 8.99121Z" fill="white"/>
<path d="M113.205 14.1512C113.075 14.0812 112.965 14.1512 112.965 14.2512C112.97 14.3284 112.993 14.4033 113.033 14.4694C113.073 14.5356 113.129 14.5911 113.195 14.6312C113.335 14.7012 113.435 14.6312 113.435 14.5212C113.428 14.446 113.403 14.3734 113.363 14.3092C113.323 14.2451 113.269 14.191 113.205 14.1512Z" fill="white"/>
<path d="M114.145 16.7612C113.995 16.6612 113.875 16.7612 113.875 16.9012C113.881 16.9977 113.909 17.0916 113.955 17.1762C114.002 17.2609 114.067 17.3343 114.145 17.3912C114.305 17.4812 114.415 17.3912 114.415 17.2412C114.41 17.1456 114.384 17.0524 114.337 16.969C114.29 16.8856 114.224 16.8144 114.145 16.7612Z" fill="white"/>
<path d="M112.425 8.58121C112.325 8.52121 112.245 8.58121 112.245 8.58121C112.254 8.63108 112.276 8.67795 112.307 8.71794C112.338 8.75794 112.379 8.78991 112.425 8.81121C112.525 8.86121 112.605 8.81121 112.605 8.81121C112.596 8.76103 112.575 8.7138 112.543 8.67368C112.512 8.63357 112.471 8.60181 112.425 8.58121Z" fill="white"/>
<path d="M114.065 20.3412C113.945 20.2612 113.855 20.3412 113.845 20.4912C113.846 20.5739 113.865 20.6554 113.901 20.7298C113.938 20.8041 113.99 20.8695 114.055 20.9212C114.185 21.0012 114.275 20.9212 114.275 20.7712C114.274 20.6885 114.254 20.607 114.218 20.5326C114.182 20.4583 114.129 20.3929 114.065 20.3412Z" fill="white"/>
<path d="M114.825 11.1612C114.695 11.0912 114.605 11.1112 114.605 11.2212C114.618 11.2905 114.646 11.3559 114.688 11.413C114.729 11.47 114.783 11.5172 114.845 11.5512C114.975 11.6312 115.065 11.5512 115.065 11.4912C115.03 11.3545 114.944 11.2364 114.825 11.1612Z" fill="white"/>
<path d="M113.205 7.41121C113.095 7.35121 113.005 7.41121 113.005 7.41121C113.005 7.41121 113.105 7.60121 113.215 7.67121C113.325 7.74121 113.425 7.67121 113.425 7.67121C113.388 7.55907 113.309 7.46571 113.205 7.41121Z" fill="white"/>
<path d="M117.825 11.7312C117.735 11.6712 117.675 11.7312 117.685 11.7312C117.718 11.8388 117.785 11.9333 117.875 12.0012C117.965 12.0612 118.025 12.0012 118.015 11.9512C117.976 11.86 117.909 11.7831 117.825 11.7312Z" fill="white"/>
<path d="M115.825 13.9912C115.695 13.9012 115.605 13.9912 115.605 14.0812C115.617 14.1639 115.647 14.2431 115.691 14.3137C115.736 14.3843 115.795 14.4448 115.865 14.4912C115.995 14.5712 116.085 14.4912 116.085 14.3912C116.072 14.3099 116.043 14.2322 115.998 14.1632C115.953 14.0943 115.894 14.0356 115.825 13.9912Z" fill="white"/>
<path d="M115.415 22.5312C115.305 22.4412 115.225 22.5312 115.225 22.6812C115.228 22.8667 115.299 23.0445 115.425 23.1812C115.545 23.2712 115.625 23.1812 115.615 23.0312C115.613 22.8453 115.542 22.6668 115.415 22.5312Z" fill="white"/>
<path d="M113.105 18.4712C112.965 18.3912 112.865 18.4712 112.855 18.6212C112.855 18.7062 112.876 18.7899 112.916 18.8648C112.956 18.9398 113.014 19.0038 113.085 19.0512C113.215 19.1312 113.325 19.0512 113.335 18.9012C113.332 18.8167 113.31 18.7339 113.27 18.6593C113.23 18.5847 113.174 18.5204 113.105 18.4712Z" fill="white"/>
<path d="M114.945 12.6812C114.845 12.6812 114.775 12.6812 114.775 12.7412C114.785 12.7961 114.806 12.8483 114.837 12.8948C114.868 12.9412 114.908 12.9808 114.955 13.0112C115.055 13.0712 115.125 13.0112 115.115 12.9512C115.096 12.8424 115.035 12.7453 114.945 12.6812Z" fill="white"/>
<path d="M113.175 6.99121C113.075 6.99121 112.995 6.99121 112.995 6.99121C113.009 7.03661 113.032 7.07864 113.063 7.11475C113.094 7.15085 113.132 7.18027 113.175 7.20121C113.275 7.25121 113.355 7.25121 113.355 7.20121C113.322 7.11157 113.258 7.03687 113.175 6.99121Z" fill="white"/>
<path d="M113.825 7.36121C113.745 7.36121 113.685 7.36121 113.695 7.36121C113.705 7.36121 113.765 7.49121 113.845 7.53121C113.925 7.57121 113.985 7.58121 113.985 7.53121C113.954 7.45694 113.897 7.39649 113.825 7.36121Z" fill="white"/>
<path d="M112.115 16.7712C111.995 16.7012 111.895 16.7712 111.885 16.8912C111.885 16.9618 111.904 17.0312 111.939 17.0925C111.974 17.1538 112.024 17.205 112.085 17.2412C112.106 17.2592 112.132 17.2705 112.16 17.2736C112.187 17.2767 112.215 17.2715 112.24 17.2586C112.265 17.2457 112.285 17.2258 112.298 17.2013C112.312 17.1768 112.317 17.1489 112.315 17.1212C112.313 17.051 112.293 16.9823 112.258 16.9213C112.223 16.8603 112.174 16.8088 112.115 16.7712Z" fill="white"/>
<path d="M111.125 15.1212C111.005 15.0612 110.905 15.1212 110.895 15.2212C110.893 15.2883 110.911 15.3544 110.944 15.4125C110.977 15.4707 111.026 15.5186 111.085 15.5512C111.205 15.6112 111.305 15.5512 111.315 15.4512C111.317 15.3839 111.3 15.3174 111.267 15.259C111.233 15.2007 111.184 15.153 111.125 15.1212Z" fill="white"/>
<path d="M110.215 13.5912C110.095 13.5312 109.995 13.5912 109.975 13.6712C109.974 13.7356 109.991 13.7989 110.025 13.8537C110.058 13.9086 110.107 13.9528 110.165 13.9812C110.285 14.0412 110.385 13.9812 110.395 13.8912C110.395 13.8296 110.378 13.7691 110.346 13.7163C110.315 13.6634 110.269 13.6202 110.215 13.5912Z" fill="white"/>
<path d="M113.825 6.92121C113.735 6.92121 113.675 6.92121 113.675 6.92121C113.703 6.99922 113.761 7.06351 113.835 7.10121C113.925 7.10121 113.995 7.10121 113.985 7.10121C113.956 7.0232 113.899 6.95891 113.825 6.92121Z" fill="white"/>
<path d="M114.385 6.93121C114.305 6.93121 114.255 6.93121 114.255 6.93121C114.255 6.93121 114.325 7.05121 114.395 7.09121C114.465 7.13121 114.525 7.09121 114.525 7.09121C114.499 7.02257 114.449 6.96566 114.385 6.93121Z" fill="white"/>
<path d="M116.665 14.6412C116.575 14.5812 116.515 14.6412 116.525 14.7012C116.542 14.8111 116.599 14.9108 116.685 14.9812C116.775 14.9812 116.835 14.9812 116.825 14.9112C116.806 14.8049 116.749 14.7091 116.665 14.6412Z" fill="white"/>
<path d="M115.885 14.8512C115.785 14.7912 115.705 14.8512 115.705 14.9412C115.716 15.0075 115.74 15.0709 115.776 15.1276C115.812 15.1843 115.859 15.2331 115.915 15.2712C116.015 15.3412 116.095 15.2712 116.085 15.1912C116.076 15.1241 116.053 15.0595 116.019 15.0011C115.985 14.9427 115.939 14.8918 115.885 14.8512Z" fill="white"/>
<path d="M115.025 14.3112C114.925 14.2512 114.855 14.3112 114.855 14.3912C114.861 14.45 114.88 14.5067 114.911 14.5569C114.943 14.6072 114.985 14.6497 115.035 14.6812C115.135 14.7512 115.215 14.6812 115.205 14.6112C115.197 14.5516 115.177 14.4942 115.146 14.4426C115.115 14.3909 115.074 14.3462 115.025 14.3112Z" fill="white"/>
<path d="M114.135 13.7812C114.035 13.7812 113.965 13.7812 113.965 13.8512C113.971 13.9047 113.99 13.956 114.019 14.0011C114.049 14.0462 114.088 14.0839 114.135 14.1112C114.225 14.1712 114.295 14.1112 114.295 14.0412C114.289 13.9886 114.272 13.9379 114.245 13.8928C114.217 13.8478 114.179 13.8096 114.135 13.7812Z" fill="white"/>
<path d="M113.225 13.2612C113.135 13.2612 113.055 13.2612 113.055 13.3312C113.059 13.3839 113.077 13.4346 113.107 13.4783C113.137 13.5221 113.177 13.5575 113.225 13.5812C113.315 13.6412 113.395 13.5812 113.395 13.5212C113.387 13.4681 113.368 13.4174 113.338 13.3725C113.309 13.3276 113.27 13.2896 113.225 13.2612Z" fill="white"/>
<path d="M116.705 15.4512C116.625 15.3912 116.565 15.4512 116.565 15.5212C116.573 15.5769 116.592 15.6304 116.621 15.6785C116.65 15.7266 116.689 15.7683 116.735 15.8012C116.815 15.8612 116.875 15.8012 116.865 15.7312C116.85 15.6207 116.792 15.5203 116.705 15.4512Z" fill="white"/>
<path d="M117.565 16.1012C117.485 16.0412 117.435 16.1012 117.445 16.1612C117.457 16.2703 117.511 16.3704 117.595 16.4412C117.675 16.4912 117.725 16.4412 117.715 16.3712C117.695 16.2674 117.642 16.1727 117.565 16.1012Z" fill="white"/>
<path d="M113.195 7.92121C113.095 7.86121 113.025 7.92121 113.025 7.92121C113.025 7.92121 113.105 8.08121 113.205 8.13121C113.305 8.18121 113.365 8.18121 113.365 8.13121C113.365 8.08121 113.285 7.99121 113.195 7.92121Z" fill="white"/>
<path d="M107.505 10.1912C107.285 10.0912 107.075 10.1912 107.025 10.3112C107.019 10.4215 107.047 10.5308 107.106 10.6241C107.166 10.7173 107.252 10.7897 107.355 10.8312C107.585 10.9312 107.785 10.8812 107.835 10.7012C107.837 10.5929 107.807 10.4864 107.748 10.3954C107.689 10.3045 107.605 10.2333 107.505 10.1912Z" fill="white"/>
<path d="M106.535 9.65121C106.255 9.52121 105.985 9.58121 105.915 9.79121C105.902 9.92826 105.936 10.0655 106.01 10.1814C106.084 10.2973 106.195 10.3852 106.325 10.4312C106.615 10.5612 106.875 10.4912 106.945 10.2712C106.954 10.1371 106.919 10.0037 106.845 9.89155C106.771 9.77943 106.662 9.69494 106.535 9.65121Z" fill="white"/>
<path d="M100.045 2.79121C100.195 2.84121 100.275 2.94121 100.225 3.01121C100.167 3.04362 100.101 3.06062 100.035 3.06062C99.9682 3.06062 99.9028 3.04362 99.8447 3.01121C99.6947 2.95121 99.6147 2.86121 99.6747 2.79121C99.7309 2.75874 99.7948 2.74164 99.8597 2.74164C99.9247 2.74164 99.9885 2.75874 100.045 2.79121Z" fill="white"/>
<path d="M101.115 3.12121C101.305 3.19121 101.395 3.31121 101.335 3.40121C101.275 3.49121 101.075 3.51121 100.895 3.40121C100.715 3.29121 100.615 3.21121 100.675 3.12121C100.735 3.03121 100.935 3.06121 101.115 3.12121Z" fill="white"/>
<path d="M100.715 11.6012C100.752 11.6125 100.786 11.6312 100.816 11.6561C100.846 11.681 100.87 11.7116 100.888 11.7461C100.906 11.7806 100.916 11.8183 100.919 11.8569C100.922 11.8956 100.917 11.9345 100.905 11.9712C100.863 12.0432 100.795 12.0966 100.715 12.1207C100.635 12.1448 100.55 12.1378 100.475 12.1012C100.437 12.0912 100.401 12.0733 100.371 12.0487C100.34 12.0241 100.315 11.9934 100.297 11.9585C100.279 11.9236 100.269 11.8853 100.267 11.8462C100.265 11.807 100.271 11.7679 100.285 11.7312C100.328 11.661 100.396 11.609 100.475 11.5851C100.554 11.5612 100.639 11.5669 100.715 11.6012Z" fill="white"/>
<path d="M102.245 10.8312C102.347 10.8615 102.434 10.9307 102.487 11.0242C102.539 11.1176 102.553 11.2278 102.525 11.3312C102.47 11.4275 102.38 11.499 102.274 11.5307C102.168 11.5623 102.053 11.5518 101.955 11.5012C101.903 11.4863 101.854 11.4612 101.812 11.4274C101.77 11.3937 101.735 11.3519 101.709 11.3045C101.683 11.2571 101.666 11.205 101.66 11.1512C101.655 11.0975 101.659 11.0431 101.675 10.9912C101.731 10.8966 101.822 10.8273 101.928 10.7975C102.034 10.7677 102.147 10.7798 102.245 10.8312Z" fill="white"/>
<path d="M103.825 10.3912C103.933 10.4259 104.024 10.4991 104.081 10.5969C104.138 10.6947 104.157 10.8102 104.135 10.9212C104.109 10.97 104.073 11.013 104.03 11.0477C103.987 11.0823 103.937 11.1079 103.884 11.1228C103.831 11.1378 103.775 11.1418 103.72 11.1346C103.665 11.1275 103.612 11.1093 103.565 11.0812C103.453 11.0485 103.359 10.9741 103.301 10.8735C103.243 10.7729 103.227 10.6538 103.255 10.5412C103.282 10.4933 103.318 10.4512 103.361 10.4176C103.405 10.3839 103.455 10.3594 103.508 10.3454C103.561 10.3314 103.617 10.3282 103.671 10.3361C103.725 10.344 103.778 10.3627 103.825 10.3912Z" fill="white"/>
<path d="M106.665 5.47121C106.865 5.57121 107.005 5.75121 106.965 5.87121C106.925 5.99121 106.735 6.02121 106.525 5.87121C106.315 5.72121 106.185 5.58121 106.215 5.46121C106.245 5.34121 106.455 5.37121 106.665 5.47121Z" fill="white"/>
<path d="M101.825 3.99121C102.025 4.06121 102.125 4.20121 102.065 4.30121C102.005 4.40121 101.805 4.42121 101.605 4.30121C101.405 4.18121 101.305 4.09121 101.365 3.99121C101.433 3.94647 101.513 3.92264 101.595 3.92264C101.676 3.92264 101.756 3.94647 101.825 3.99121Z" fill="white"/>
<path d="M102.825 4.37121C103.025 4.46121 103.125 4.60121 103.075 4.71121C103.025 4.82121 102.815 4.84121 102.615 4.71121C102.415 4.58121 102.305 4.48121 102.365 4.37121C102.425 4.26121 102.575 4.30121 102.825 4.37121Z" fill="white"/>
<path d="M104.435 5.71121C104.645 5.81121 104.775 5.98121 104.725 6.11121C104.675 6.24121 104.455 6.27121 104.235 6.18121C104.015 6.09121 103.885 5.90121 103.935 5.77121C103.985 5.64121 104.215 5.62121 104.435 5.71121Z" fill="white"/>
<path d="M103.735 4.75121C103.945 4.84121 104.065 5.00121 104.015 5.13121C103.965 5.26121 103.745 5.27121 103.525 5.18121C103.305 5.09121 103.185 4.92121 103.245 4.80121C103.305 4.68121 103.525 4.66121 103.735 4.75121Z" fill="white"/>
<path d="M104.695 5.16121C104.915 5.26121 105.045 5.44121 105.005 5.57121C104.965 5.70121 104.725 5.73121 104.495 5.63121C104.265 5.53121 104.135 5.34121 104.185 5.21121C104.235 5.08121 104.465 5.06121 104.695 5.16121Z" fill="white"/>
<path d="M105.375 6.11121C105.605 6.22121 105.745 6.42121 105.695 6.56121C105.645 6.70121 105.415 6.74121 105.175 6.63121C104.935 6.52121 104.795 6.32121 104.855 6.18121C104.915 6.04121 105.145 5.99121 105.375 6.11121Z" fill="white"/>
<path d="M105.205 9.99121C105.312 10.029 105.403 10.1021 105.463 10.1984C105.523 10.2947 105.548 10.4085 105.535 10.5212C105.475 10.7112 105.235 10.7712 104.995 10.6712C104.885 10.6347 104.791 10.5605 104.731 10.4616C104.67 10.3628 104.647 10.2457 104.665 10.1312C104.725 9.99121 104.965 9.89121 105.205 9.99121Z" fill="white"/>
<path d="M105.455 9.20121C105.569 9.24091 105.666 9.31764 105.731 9.41914C105.796 9.52064 105.826 9.64107 105.815 9.76121C105.745 9.95121 105.495 10.0112 105.235 9.90121C105.118 9.86273 105.018 9.78482 104.952 9.68083C104.887 9.57684 104.859 9.45324 104.875 9.33121C104.945 9.14121 105.195 9.09121 105.455 9.20121Z" fill="white"/>
<path d="M105.675 8.45121C105.955 8.58121 106.125 8.83121 106.065 9.04121C106.005 9.25121 105.735 9.30121 105.445 9.17121C105.155 9.04121 104.985 8.78121 105.055 8.58121C105.125 8.38121 105.395 8.33121 105.675 8.45121Z" fill="white"/>
<path d="M105.905 7.75121C106.175 7.88121 106.335 8.12121 106.285 8.31121C106.235 8.50121 105.965 8.55121 105.685 8.42121C105.405 8.29121 105.245 8.05121 105.305 7.86121C105.365 7.67121 105.635 7.63121 105.905 7.75121Z" fill="white"/>
<path d="M106.095 7.14121C106.325 7.26121 106.475 7.46121 106.435 7.62121C106.395 7.78121 106.155 7.82121 105.915 7.71121C105.675 7.60121 105.525 7.38121 105.575 7.22121C105.625 7.06121 105.825 6.99121 106.095 7.14121Z" fill="white"/>
<path d="M106.315 6.53121C106.565 6.65121 106.725 6.87121 106.675 7.04121C106.625 7.21121 106.385 7.24121 106.125 7.11121C105.865 6.98121 105.705 6.76121 105.755 6.60121C105.805 6.44121 106.055 6.41121 106.315 6.53121Z" fill="white"/>
<path d="M106.495 5.99121C106.745 6.11121 106.895 6.32121 106.855 6.47121C106.815 6.62121 106.575 6.66121 106.325 6.54121C106.075 6.42121 105.915 6.20121 105.965 6.04121C106.015 5.88121 106.255 5.85121 106.495 5.99121Z" fill="white"/>
<path d="M108.465 5.84121C108.625 5.93121 108.745 6.07121 108.725 6.17121C108.705 6.27121 108.555 6.28121 108.385 6.17121C108.215 6.06121 108.115 5.94121 108.135 5.84121C108.155 5.74121 108.305 5.76121 108.465 5.84121Z" fill="white"/>
<path d="M108.595 5.39121C108.745 5.47121 108.845 5.60121 108.825 5.69121C108.805 5.78121 108.675 5.78121 108.525 5.69121C108.375 5.60121 108.265 5.48121 108.285 5.40121C108.305 5.32121 108.445 5.31121 108.595 5.39121Z" fill="white"/>
<path d="M108.725 4.99121C108.855 5.06121 108.945 5.17121 108.925 5.25121C108.905 5.33121 108.795 5.32121 108.665 5.25121C108.535 5.18121 108.445 5.07121 108.455 4.99121C108.465 4.91121 108.585 4.90121 108.725 4.99121Z" fill="white"/>
<path d="M108.825 4.56121C108.935 4.63121 109.015 4.72121 109.005 4.79121C108.995 4.86121 108.885 4.86121 108.775 4.79121C108.665 4.72121 108.565 4.63121 108.585 4.56121C108.605 4.49121 108.725 4.50121 108.825 4.56121Z" fill="white"/>
<path d="M108.955 4.20121C109.065 4.26121 109.145 4.34121 109.135 4.41121C109.125 4.48121 109.025 4.47121 108.915 4.41121C108.805 4.35121 108.725 4.27121 108.735 4.20121C108.745 4.13121 108.825 4.14121 108.955 4.20121Z" fill="white"/>
<path d="M109.055 3.85121C109.155 3.91121 109.225 3.98121 109.215 4.03121C109.205 4.08121 109.115 4.03121 109.025 4.03121C108.935 4.03121 108.855 3.90121 108.865 3.85121C108.875 3.80121 108.965 3.80121 109.055 3.85121Z" fill="white"/>
<path d="M109.135 3.56121C109.225 3.56121 109.295 3.67121 109.285 3.72121C109.275 3.77121 109.195 3.72121 109.105 3.72121C109.015 3.72121 108.955 3.61121 108.965 3.56121C108.975 3.51121 109.045 3.51121 109.135 3.56121Z" fill="white"/>
<path d="M109.235 3.26121C109.315 3.26121 109.365 3.36121 109.365 3.40121C109.365 3.44121 109.285 3.40121 109.205 3.40121C109.125 3.40121 109.075 3.30121 109.075 3.26121C109.075 3.22121 109.155 3.21121 109.235 3.26121Z" fill="white"/>
<path d="M107.175 11.5712C107.096 11.5366 107.03 11.4788 106.985 11.4055C106.941 11.3322 106.919 11.2469 106.925 11.1612C106.925 11.0212 107.125 10.9812 107.295 11.0512C107.374 11.0836 107.441 11.1393 107.487 11.2107C107.533 11.2822 107.557 11.366 107.555 11.4512C107.515 11.6012 107.355 11.6512 107.175 11.5712Z" fill="white"/>
<path d="M106.995 12.4912C106.917 12.4593 106.852 12.4031 106.808 12.331C106.765 12.259 106.746 12.1748 106.755 12.0912C106.755 11.9512 106.945 11.9012 107.115 11.9812C107.19 12.0138 107.253 12.0687 107.296 12.1385C107.339 12.2082 107.359 12.2895 107.355 12.3712C107.315 12.5212 107.165 12.5712 106.995 12.4912Z" fill="white"/>
<path d="M106.825 13.4712C106.746 13.442 106.679 13.386 106.637 13.3129C106.595 13.2398 106.58 13.1543 106.595 13.0712C106.595 12.9212 106.785 12.8712 106.945 12.9412C107.022 12.9731 107.088 13.0293 107.131 13.1014C107.174 13.1735 107.193 13.2576 107.185 13.3412C107.174 13.3766 107.155 13.409 107.129 13.4358C107.103 13.4626 107.072 13.4831 107.037 13.4957C107.002 13.5083 106.965 13.5127 106.928 13.5084C106.891 13.5042 106.856 13.4914 106.825 13.4712Z" fill="white"/>
<path d="M106.645 14.5312C106.572 14.5008 106.512 14.4467 106.474 14.3777C106.436 14.3087 106.422 14.2289 106.435 14.1512C106.435 14.0012 106.615 13.9512 106.775 14.0112C106.846 14.0461 106.905 14.1025 106.942 14.1724C106.98 14.2424 106.995 14.3224 106.985 14.4012C106.975 14.4349 106.957 14.4657 106.933 14.4915C106.909 14.5172 106.879 14.5371 106.847 14.5497C106.814 14.5622 106.779 14.5671 106.744 14.5639C106.709 14.5607 106.675 14.5495 106.645 14.5312Z" fill="white"/>
<path d="M106.435 15.6912C106.364 15.6591 106.306 15.6043 106.27 15.5355C106.233 15.4667 106.221 15.3878 106.235 15.3112C106.242 15.2781 106.257 15.2472 106.279 15.2213C106.301 15.1953 106.329 15.1751 106.361 15.1623C106.392 15.1496 106.426 15.1446 106.46 15.1479C106.494 15.1512 106.526 15.1626 106.555 15.1812C106.626 15.21 106.685 15.2627 106.721 15.3302C106.758 15.3978 106.77 15.4759 106.755 15.5512C106.747 15.584 106.731 15.6145 106.709 15.6403C106.688 15.6662 106.66 15.6867 106.629 15.7002C106.598 15.7137 106.565 15.72 106.531 15.7184C106.497 15.7168 106.464 15.7075 106.435 15.6912Z" fill="white"/>
<path d="M106.215 16.9912C106.147 16.9624 106.091 16.9104 106.058 16.8444C106.025 16.7784 106.017 16.7028 106.035 16.6312C106.041 16.5992 106.054 16.5691 106.073 16.5431C106.093 16.5171 106.118 16.496 106.147 16.4814C106.176 16.4669 106.208 16.4593 106.241 16.4593C106.274 16.4592 106.306 16.4667 106.335 16.4812C106.401 16.5115 106.456 16.5638 106.488 16.6294C106.521 16.6949 106.53 16.7697 106.515 16.8412C106.507 16.8722 106.493 16.9012 106.473 16.9261C106.453 16.951 106.428 16.9714 106.399 16.9856C106.371 16.9999 106.34 17.0078 106.308 17.0088C106.276 17.0097 106.244 17.0037 106.215 16.9912Z" fill="white"/>
<path d="M105.605 5.59121C105.825 5.69121 105.955 5.87121 105.905 6.00121C105.855 6.13121 105.655 6.15121 105.435 6.00121C105.215 5.85121 105.085 5.72121 105.135 5.59121C105.185 5.46121 105.395 5.49121 105.605 5.59121Z" fill="white"/>
<path d="M105.115 6.74121C105.315 6.83121 105.435 7.00121 105.385 7.12121C105.335 7.24121 105.155 7.28121 104.955 7.19121C104.755 7.10121 104.635 6.93121 104.685 6.80121C104.735 6.67121 104.925 6.65121 105.115 6.74121Z" fill="white"/>
<path d="M104.905 7.35121C105.125 7.46121 105.255 7.65121 105.205 7.80121C105.155 7.95121 104.935 7.99121 104.705 7.89121C104.475 7.79121 104.345 7.59121 104.395 7.44121C104.445 7.29121 104.675 7.25121 104.905 7.35121Z" fill="white"/>
<path d="M104.085 9.54121C104.305 9.64121 104.435 9.84121 104.375 10.0112C104.315 10.1812 104.095 10.2412 103.865 10.1412C103.766 10.111 103.681 10.0453 103.628 9.9567C103.574 9.86812 103.555 9.76289 103.575 9.66121C103.628 9.57959 103.711 9.52161 103.806 9.49927C103.901 9.47693 104.001 9.49195 104.085 9.54121Z" fill="white"/>
<path d="M102.105 3.47121C102.315 3.56121 102.425 3.70121 102.365 3.81121C102.305 3.92121 102.085 3.93121 101.865 3.81121C101.645 3.69121 101.545 3.58121 101.615 3.47121C101.685 3.36121 101.905 3.39121 102.105 3.47121Z" fill="white"/>
<path d="M101.825 11.8712C101.874 11.8849 101.92 11.9084 101.959 11.9402C101.999 11.9719 102.032 12.0114 102.056 12.0561C102.081 12.1009 102.096 12.1501 102.1 12.2008C102.105 12.2515 102.1 12.3026 102.085 12.3512C102.036 12.4428 101.953 12.5118 101.854 12.5435C101.755 12.5752 101.648 12.5672 101.555 12.5212C101.505 12.5065 101.46 12.482 101.42 12.4491C101.381 12.4161 101.348 12.3756 101.325 12.3297C101.301 12.2839 101.288 12.2339 101.284 12.1825C101.281 12.1312 101.288 12.0797 101.305 12.0312C101.328 11.9861 101.36 11.9461 101.399 11.9135C101.438 11.881 101.483 11.8565 101.531 11.8416C101.579 11.8267 101.63 11.8216 101.681 11.8267C101.731 11.8318 101.78 11.8469 101.825 11.8712Z" fill="white"/>
<path d="M100.295 12.4812C100.344 12.4945 100.389 12.518 100.428 12.5501C100.467 12.5822 100.499 12.6222 100.522 12.6675C100.545 12.7128 100.558 12.7624 100.56 12.813C100.562 12.8636 100.553 12.9141 100.535 12.9612C100.485 13.0578 100.4 13.1315 100.298 13.1669C100.195 13.2023 100.083 13.1967 99.9847 13.1512C99.9346 13.1381 99.8879 13.1144 99.8478 13.0816C99.8077 13.0488 99.7751 13.0078 99.7523 12.9612C99.7295 12.9147 99.7171 12.8638 99.7158 12.8121C99.7144 12.7603 99.7243 12.7088 99.7447 12.6612C99.7991 12.5698 99.8848 12.5012 99.9859 12.4681C100.087 12.435 100.197 12.4396 100.295 12.4812Z" fill="white"/>
<path d="M103.435 11.3412C103.537 11.3757 103.622 11.4472 103.674 11.5417C103.726 11.6361 103.74 11.7466 103.715 11.8512C103.693 11.8985 103.661 11.9407 103.622 11.9752C103.582 12.0097 103.536 12.0357 103.487 12.0517C103.437 12.0676 103.384 12.0732 103.333 12.0679C103.281 12.0627 103.23 12.0468 103.185 12.0212C103.079 11.9887 102.989 11.9164 102.935 11.8195C102.881 11.7226 102.867 11.6086 102.895 11.5012C102.945 11.4087 103.031 11.34 103.132 11.3101C103.233 11.2801 103.342 11.2913 103.435 11.3412Z" fill="white"/>
<path d="M104.915 10.9212C105.011 10.955 105.093 11.0214 105.146 11.109C105.199 11.1966 105.22 11.3 105.205 11.4012C105.145 11.5812 104.935 11.6512 104.705 11.5512C104.607 11.517 104.525 11.4486 104.473 11.3586C104.422 11.2685 104.404 11.1629 104.425 11.0612C104.485 10.8812 104.695 10.8212 104.915 10.9212Z" fill="white"/>
<path d="M106.275 10.5012C106.376 10.5399 106.462 10.6106 106.52 10.7026C106.578 10.7947 106.604 10.903 106.595 11.0112C106.595 11.2012 106.325 11.2612 106.095 11.1612C105.99 11.1216 105.901 11.0478 105.843 10.9517C105.785 10.8555 105.761 10.7427 105.775 10.6312C105.825 10.4612 106.045 10.4012 106.275 10.5012Z" fill="white"/>
<path d="M104.365 8.77121C104.454 8.79885 104.53 8.85739 104.579 8.93626C104.629 9.01512 104.648 9.10911 104.635 9.20121C104.575 9.35121 104.375 9.39121 104.165 9.30121C103.955 9.21121 103.835 9.02121 103.895 8.87121C103.955 8.72121 104.155 8.68121 104.365 8.77121Z" fill="white"/>
<path d="M106.825 4.99121C107.005 5.09121 107.125 5.24121 107.095 5.34121C107.065 5.44121 106.885 5.46121 106.705 5.34121C106.525 5.22121 106.405 5.09121 106.435 4.99121C106.465 4.89121 106.635 4.90121 106.825 4.99121Z" fill="white"/>
<path d="M103.075 3.92121C103.235 3.99121 103.325 4.11121 103.275 4.20121C103.225 4.29121 103.065 4.30121 102.895 4.20121C102.725 4.10121 102.635 4.01121 102.685 3.92121C102.735 3.83121 102.905 3.85121 103.075 3.92121Z" fill="white"/>
<path d="M103.895 6.99121C104.075 7.07121 104.175 7.21121 104.125 7.33121C104.075 7.45121 103.905 7.47121 103.715 7.40121C103.525 7.33121 103.435 7.17121 103.485 7.05121C103.535 6.93121 103.715 6.89121 103.895 6.99121Z" fill="white"/>
<path d="M102.615 9.92121C102.712 9.94934 102.796 10.0136 102.848 10.1009C102.9 10.1881 102.916 10.292 102.895 10.3912C102.839 10.4784 102.752 10.5412 102.652 10.5672C102.552 10.5932 102.446 10.5803 102.355 10.5312C102.256 10.5053 102.171 10.4415 102.118 10.3535C102.066 10.2656 102.05 10.1606 102.075 10.0612C102.13 9.97405 102.217 9.91118 102.317 9.88522C102.417 9.85925 102.524 9.87211 102.615 9.92121Z" fill="white"/>
<path d="M104.615 8.08121C104.815 8.18121 104.935 8.35121 104.885 8.49121C104.835 8.63121 104.645 8.67121 104.435 8.58121C104.225 8.49121 104.115 8.31121 104.165 8.17121C104.215 8.03121 104.415 7.99121 104.615 8.08121Z" fill="white"/>
<path d="M102.535 7.18121C102.745 7.27121 102.855 7.44121 102.805 7.57121C102.755 7.70121 102.525 7.75121 102.305 7.66121C102.085 7.57121 101.985 7.41121 102.045 7.27121C102.103 7.20141 102.184 7.15421 102.273 7.13777C102.363 7.12134 102.455 7.1367 102.535 7.18121Z" fill="white"/>
<path d="M98.9647 13.1412C98.9999 13.1495 99.0327 13.1656 99.0608 13.1884C99.0888 13.2111 99.1114 13.2399 99.1268 13.2726C99.1422 13.3053 99.15 13.341 99.1496 13.3771C99.1492 13.4133 99.1408 13.4488 99.1247 13.4812C99.0848 13.5501 99.0213 13.6022 98.9459 13.6279C98.8706 13.6536 98.7885 13.6513 98.7147 13.6212C98.6793 13.6135 98.6463 13.5975 98.6182 13.5746C98.5902 13.5517 98.5679 13.5225 98.5533 13.4893C98.5387 13.4562 98.5321 13.4201 98.5341 13.3839C98.5361 13.3477 98.5466 13.3126 98.5647 13.2812C98.6057 13.216 98.6676 13.1667 98.7403 13.1413C98.8129 13.1158 98.8921 13.1158 98.9647 13.1412Z" fill="white"/>
<path d="M103.445 5.31121C103.635 5.39121 103.745 5.54121 103.695 5.65121C103.645 5.76121 103.445 5.79121 103.255 5.71121C103.065 5.63121 102.955 5.48121 103.005 5.36121C103.055 5.24121 103.255 5.23121 103.445 5.31121Z" fill="white"/>
<path d="M107.655 5.43121C107.815 5.52121 107.925 5.65121 107.905 5.75121C107.885 5.85121 107.735 5.86121 107.565 5.75121C107.395 5.64121 107.295 5.52121 107.325 5.43121C107.355 5.34121 107.495 5.35121 107.655 5.43121Z" fill="white"/>
<path d="M105.295 3.83121C105.415 3.88121 105.495 3.96121 105.485 4.03121C105.475 4.10121 105.355 4.11121 105.225 4.03121C105.095 3.95121 105.025 3.90121 105.045 3.83121C105.065 3.76121 105.175 3.78121 105.295 3.83121Z" fill="white"/>
<path d="M103.965 4.29121C104.115 4.36121 104.195 4.46121 104.165 4.55121C104.135 4.64121 103.975 4.64121 103.835 4.55121C103.695 4.46121 103.605 4.38121 103.635 4.30121C103.665 4.22121 103.825 4.23121 103.965 4.29121Z" fill="white"/>
<path d="M103.575 7.66121C103.755 7.74121 103.865 7.90121 103.815 8.02121C103.765 8.14121 103.575 8.18121 103.385 8.11121C103.195 8.04121 103.095 7.87121 103.155 7.74121C103.215 7.61121 103.395 7.59121 103.575 7.66121Z" fill="white"/>
<path d="M102.825 6.57121C102.985 6.64121 103.075 6.77121 103.025 6.87121C102.975 6.97121 102.825 6.99121 102.685 6.99121C102.545 6.99121 102.425 6.78121 102.475 6.68121C102.514 6.62801 102.569 6.58866 102.632 6.56888C102.695 6.54909 102.762 6.54991 102.825 6.57121Z" fill="white"/>
<path d="M101.445 6.80121C101.645 6.88121 101.745 7.02121 101.685 7.15121C101.626 7.21465 101.548 7.25691 101.463 7.27139C101.378 7.28587 101.291 7.27174 101.215 7.23121C101.025 7.16121 100.925 7.01121 100.985 6.89121C101.045 6.77121 101.255 6.73121 101.445 6.80121Z" fill="white"/>
<path d="M100.825 3.69121C100.985 3.69121 101.065 3.84121 101.015 3.92121C100.959 3.95578 100.895 3.9741 100.83 3.9741C100.764 3.9741 100.7 3.95578 100.645 3.92121C100.485 3.86121 100.405 3.76121 100.455 3.68121C100.512 3.65024 100.576 3.63486 100.641 3.63662C100.706 3.63837 100.769 3.6572 100.825 3.69121Z" fill="white"/>
<path d="M105.505 3.41121C105.635 3.46121 105.725 3.55121 105.715 3.62121C105.705 3.69121 105.575 3.71121 105.435 3.62121C105.295 3.53121 105.215 3.48121 105.235 3.41121C105.255 3.34121 105.375 3.36121 105.505 3.41121Z" fill="white"/>
<path d="M105.985 4.60121C106.145 4.68121 106.245 4.81121 106.215 4.91121C106.185 5.01121 106.025 5.01121 105.865 4.91121C105.705 4.81121 105.595 4.70121 105.625 4.60121C105.655 4.50121 105.825 4.53121 105.985 4.60121Z" fill="white"/>
<path d="M106.165 4.15121C106.315 4.23121 106.405 4.34121 106.385 4.43121C106.365 4.52121 106.225 4.51121 106.075 4.43121C105.925 4.35121 105.835 4.24121 105.865 4.16121C105.895 4.08121 106.025 4.08121 106.165 4.15121Z" fill="white"/>
<path d="M104.135 6.38121C104.295 6.45121 104.385 6.58121 104.345 6.68121C104.296 6.72278 104.234 6.7456 104.17 6.7456C104.106 6.7456 104.044 6.72278 103.995 6.68121C103.835 6.61121 103.745 6.48121 103.785 6.38121C103.825 6.28121 103.985 6.31121 104.135 6.38121Z" fill="white"/>
<path d="M104.905 4.73121C105.035 4.79121 105.105 4.89121 105.075 4.96121C105.045 5.03121 104.925 5.04121 104.795 4.96121C104.665 4.88121 104.585 4.80121 104.615 4.73121C104.645 4.66121 104.825 4.67121 104.905 4.73121Z" fill="white"/>
<path d="M102.945 9.15121C103.013 9.1721 103.071 9.21727 103.108 9.27812C103.144 9.33897 103.158 9.41125 103.145 9.48121C103.104 9.53833 103.045 9.57891 102.977 9.59545C102.909 9.61199 102.837 9.60338 102.775 9.57121C102.615 9.50121 102.525 9.36121 102.575 9.24121C102.625 9.12121 102.825 9.09121 102.945 9.15121Z" fill="white"/>
<path d="M105.765 5.15121C105.875 5.15121 105.945 5.29121 105.925 5.36121C105.905 5.43121 105.785 5.44121 105.675 5.36121C105.565 5.28121 105.495 5.21121 105.515 5.14121C105.535 5.07121 105.645 5.10121 105.765 5.15121Z" fill="white"/>
<path d="M106.935 4.56121C107.065 4.63121 107.145 4.74121 107.135 4.81121C107.125 4.88121 106.995 4.89121 106.865 4.81121C106.735 4.73121 106.655 4.63121 106.675 4.56121C106.695 4.49121 106.825 4.50121 106.935 4.56121Z" fill="white"/>
<path d="M102.435 4.99121C102.595 5.06121 102.685 5.17121 102.635 5.26121C102.585 5.35121 102.425 5.37121 102.265 5.26121C102.105 5.15121 102.015 5.08121 102.065 4.99121C102.115 4.90121 102.275 4.88121 102.435 4.99121Z" fill="white"/>
<path d="M98.9847 2.44121C99.1147 2.44121 99.1747 2.56121 99.1247 2.62121C99.075 2.64588 99.0202 2.65872 98.9647 2.65872C98.9092 2.65872 98.8544 2.64588 98.8047 2.62121C98.6747 2.62121 98.6147 2.50121 98.6647 2.45121C98.7128 2.42252 98.7674 2.40655 98.8234 2.40481C98.8794 2.40306 98.9349 2.41558 98.9847 2.44121Z" fill="white"/>
<path d="M100.335 6.41121C100.515 6.48121 100.605 6.61121 100.545 6.72121C100.488 6.77806 100.416 6.81623 100.337 6.83054C100.259 6.84486 100.177 6.83461 100.105 6.80121C99.9247 6.74121 99.8247 6.61121 99.8947 6.50121C99.9498 6.44269 100.022 6.40263 100.1 6.38652C100.179 6.37041 100.261 6.37903 100.335 6.41121Z" fill="white"/>
<path d="M98.5847 14.1412C98.617 14.1517 98.6465 14.1692 98.6711 14.1924C98.6958 14.2157 98.715 14.2441 98.7275 14.2756C98.7399 14.3071 98.7452 14.341 98.743 14.3748C98.7408 14.4086 98.7311 14.4416 98.7147 14.4712C98.6772 14.5348 98.6189 14.5835 98.5497 14.609C98.4804 14.6345 98.4045 14.6353 98.3347 14.6112C98.3005 14.6036 98.2685 14.588 98.2415 14.5656C98.2146 14.5432 98.1933 14.5146 98.1796 14.4823C98.1659 14.45 98.1602 14.4149 98.1628 14.3799C98.1654 14.3449 98.1764 14.3111 98.1947 14.2812C98.234 14.2168 98.2941 14.1678 98.365 14.1424C98.436 14.1169 98.5135 14.1165 98.5847 14.1412Z" fill="white"/>
<path d="M97.4547 14.7312C97.4826 14.7393 97.5083 14.7537 97.5297 14.7733C97.5512 14.7929 97.5679 14.8171 97.5785 14.8442C97.5891 14.8712 97.5934 14.9003 97.591 14.9293C97.5886 14.9583 97.5796 14.9863 97.5647 15.0112C97.5312 15.0681 97.4788 15.1113 97.4166 15.1332C97.3544 15.1552 97.2864 15.1545 97.2247 15.1312C97.1959 15.1243 97.1692 15.1108 97.1466 15.0917C97.124 15.0726 97.1061 15.0485 97.0945 15.0213C97.0828 14.9941 97.0777 14.9646 97.0794 14.935C97.0812 14.9055 97.0899 14.8768 97.1047 14.8512C97.1424 14.7962 97.1968 14.7549 97.2598 14.7333C97.3229 14.7117 97.3912 14.7109 97.4547 14.7312Z" fill="white"/>
<path d="M101.435 12.8612C101.48 12.8892 101.516 12.9293 101.539 12.9771C101.562 13.0248 101.571 13.0781 101.565 13.1307C101.559 13.1834 101.538 13.2333 101.505 13.2746C101.472 13.3159 101.428 13.347 101.378 13.3641C101.327 13.3812 101.273 13.3838 101.222 13.3714C101.17 13.359 101.123 13.3323 101.086 13.2943C101.049 13.2563 101.024 13.2086 101.013 13.1567C101.002 13.1048 101.006 13.0509 101.025 13.0012C101.065 12.9323 101.128 12.8802 101.203 12.8545C101.279 12.8288 101.361 12.8312 101.435 12.8612Z" fill="white"/>
<path d="M99.8947 13.5212C99.9309 13.5336 99.9643 13.553 99.993 13.5783C100.022 13.6036 100.045 13.6344 100.062 13.6688C100.078 13.7031 100.088 13.7405 100.09 13.7787C100.093 13.8169 100.087 13.8551 100.075 13.8912C100.059 13.9275 100.035 13.9602 100.006 13.9875C99.9774 14.0147 99.9433 14.0359 99.9061 14.0499C99.8689 14.0638 99.8293 14.0702 99.7895 14.0688C99.7498 14.0673 99.7108 14.0579 99.6747 14.0412C99.6365 14.03 99.6009 14.011 99.5703 13.9854C99.5397 13.9599 99.5148 13.9283 99.4969 13.8926C99.4791 13.857 99.4688 13.818 99.4667 13.7782C99.4646 13.7384 99.4707 13.6985 99.4847 13.6612C99.5213 13.589 99.5846 13.5339 99.6612 13.5077C99.7378 13.4815 99.8216 13.4864 99.8947 13.5212Z" fill="white"/>
<path d="M101.825 6.19121C101.945 6.19121 102.005 6.33121 101.975 6.41121C101.945 6.49121 101.805 6.50121 101.675 6.41121C101.545 6.32121 101.495 6.26121 101.535 6.19121C101.575 6.12121 101.675 6.15121 101.825 6.19121Z" fill="white"/>
<path d="M104.965 2.78121C105.065 2.78121 105.135 2.89121 105.115 2.95121C105.095 3.01121 105.005 3.01121 104.895 2.95121C104.785 2.89121 104.725 2.84121 104.745 2.79121C104.765 2.74121 104.825 2.74121 104.965 2.78121Z" fill="white"/>
<path d="M103.055 12.3512C103.119 12.3719 103.173 12.417 103.205 12.4767C103.236 12.5365 103.244 12.6062 103.225 12.6712C103.212 12.7015 103.193 12.7289 103.169 12.7515C103.145 12.7742 103.117 12.7917 103.086 12.803C103.055 12.8142 103.022 12.819 102.989 12.817C102.956 12.815 102.924 12.8062 102.895 12.7912C102.831 12.7665 102.778 12.7192 102.747 12.6584C102.716 12.5976 102.708 12.5275 102.725 12.4612C102.755 12.4036 102.806 12.3599 102.867 12.3394C102.929 12.3189 102.996 12.3231 103.055 12.3512Z" fill="white"/>
<path d="M104.575 11.8412C104.635 11.8618 104.685 11.9037 104.717 11.959C104.748 12.0142 104.758 12.0791 104.745 12.1412C104.733 12.1688 104.716 12.1937 104.694 12.214C104.672 12.2344 104.646 12.2499 104.617 12.2593C104.589 12.2688 104.559 12.2721 104.529 12.269C104.499 12.2658 104.471 12.2564 104.445 12.2412C104.384 12.2186 104.333 12.1748 104.302 12.1179C104.271 12.061 104.261 11.9947 104.275 11.9312C104.287 11.9044 104.305 11.8806 104.328 11.8613C104.35 11.842 104.376 11.8276 104.405 11.8191C104.433 11.8106 104.463 11.8082 104.492 11.812C104.521 11.8158 104.55 11.8258 104.575 11.8412Z" fill="white"/>
<path d="M105.985 11.5312C106.042 11.5511 106.09 11.5894 106.123 11.6402C106.156 11.6909 106.17 11.7511 106.165 11.8112C106.165 11.9212 106.015 11.9612 105.885 11.9012C105.828 11.8792 105.78 11.8386 105.749 11.7859C105.718 11.7332 105.706 11.6716 105.715 11.6112C105.725 11.5861 105.741 11.5637 105.761 11.5455C105.781 11.5273 105.804 11.5138 105.83 11.5061C105.856 11.4985 105.884 11.4967 105.91 11.5011C105.937 11.5054 105.963 11.5157 105.985 11.5312Z" fill="white"/>
<path d="M99.1247 6.10121C99.2447 6.10121 99.3047 6.22121 99.2547 6.29121C99.2159 6.32924 99.1669 6.35516 99.1136 6.36581C99.0604 6.37646 99.0051 6.37139 98.9547 6.35121C98.8347 6.35121 98.7747 6.23121 98.8147 6.16121C98.8551 6.12233 98.9058 6.09597 98.9608 6.08532C99.0158 6.07468 99.0728 6.08019 99.1247 6.10121Z" fill="white"/>
<path d="M99.9147 6.99121C100.065 6.99121 100.135 7.15121 100.085 7.24121C100.039 7.28837 99.9801 7.32038 99.9157 7.3329C99.8513 7.34542 99.7846 7.33785 99.7247 7.31121C99.5747 7.31121 99.5047 7.15121 99.5547 7.06121C99.5995 7.01277 99.6585 6.97986 99.7232 6.96727C99.788 6.95468 99.855 6.96307 99.9147 6.99121Z" fill="white"/>
<path d="M101.055 7.49121C101.185 7.49121 101.255 7.64121 101.215 7.72121C101.175 7.80121 101.035 7.83121 100.895 7.79121C100.755 7.75121 100.705 7.64121 100.745 7.55121C100.783 7.50858 100.834 7.47961 100.89 7.46876C100.946 7.45792 101.004 7.46581 101.055 7.49121Z" fill="white"/>
<path d="M102.185 7.99121C102.305 7.99121 102.365 8.13121 102.325 8.21121C102.285 8.29121 102.175 8.31121 102.055 8.27121C101.935 8.23121 101.885 8.12121 101.915 8.05121C101.946 8.01183 101.99 7.98439 102.039 7.97347C102.088 7.96256 102.14 7.96882 102.185 7.99121Z" fill="white"/>
<path d="M103.265 8.39121C103.375 8.39121 103.435 8.54121 103.405 8.62121C103.368 8.6522 103.322 8.66923 103.275 8.66923C103.227 8.66923 103.181 8.6522 103.145 8.62121C103.035 8.62121 102.975 8.48121 103.005 8.40121C103.035 8.32121 103.145 8.35121 103.265 8.39121Z" fill="white"/>
<path d="M105.695 3.07121C105.795 3.07121 105.865 3.17121 105.855 3.23121C105.845 3.29121 105.755 3.23121 105.645 3.23121C105.535 3.23121 105.475 3.13121 105.495 3.07121C105.515 3.01121 105.595 2.99121 105.695 3.07121Z" fill="white"/>
<path d="M105.165 2.45121C105.255 2.45121 105.315 2.55121 105.305 2.60121C105.295 2.65121 105.215 2.65121 105.125 2.60121C105.035 2.55121 104.965 2.50121 104.985 2.45121C105.005 2.40121 105.075 2.41121 105.165 2.45121Z" fill="white"/>
<path d="M104.605 1.91121C104.685 1.91121 104.745 2.00121 104.725 2.04121C104.705 2.08121 104.645 2.09121 104.565 2.04121C104.485 1.99121 104.425 1.95121 104.435 1.91121C104.445 1.87121 104.525 1.88121 104.605 1.91121Z" fill="white"/>
<path d="M106.315 3.78121C106.415 3.84121 106.485 3.92121 106.475 3.98121C106.465 4.04121 106.355 4.04121 106.245 3.98121C106.135 3.92121 106.065 3.84121 106.085 3.78121C106.105 3.72121 106.205 3.73121 106.315 3.78121Z" fill="white"/>
<path d="M98.7247 6.64121C98.8447 6.64121 98.9047 6.76121 98.8547 6.84121C98.8144 6.88009 98.7636 6.90645 98.7086 6.9171C98.6536 6.92775 98.5967 6.92223 98.5447 6.90121C98.4247 6.90121 98.3647 6.78121 98.4147 6.70121C98.4551 6.66233 98.5058 6.63597 98.5608 6.62532C98.6158 6.61467 98.6728 6.62019 98.7247 6.64121Z" fill="white"/>
<path d="M97.6147 6.33121C97.7247 6.33121 97.7847 6.43121 97.7347 6.50121C97.6957 6.53891 97.6472 6.56533 97.5944 6.57766C97.5416 6.58998 97.4864 6.58776 97.4347 6.57121C97.3147 6.57121 97.2647 6.46121 97.3147 6.39121C97.3557 6.35695 97.4047 6.33352 97.4571 6.32304C97.5095 6.31256 97.5637 6.31537 97.6147 6.33121Z" fill="white"/>
<path d="M107.055 5.92121C107.055 6.05121 107.125 6.22121 107.325 6.35121C107.095 6.27121 106.905 6.35121 106.865 6.46121C106.825 6.57121 106.865 6.75121 107.075 6.89121C106.885 6.89121 106.735 6.89121 106.695 7.03121C106.655 7.17121 106.775 7.40121 106.985 7.54121C106.745 7.47121 106.545 7.54121 106.495 7.69121C106.483 7.77738 106.496 7.86506 106.531 7.9445C106.566 8.02394 106.623 8.09204 106.695 8.14121C106.618 8.1225 106.537 8.13124 106.465 8.16593C106.394 8.20062 106.337 8.25907 106.305 8.33121C106.293 8.43157 106.309 8.53319 106.352 8.62491C106.394 8.71664 106.461 8.79494 106.545 8.85121C106.325 8.85121 106.145 8.85121 106.095 9.05121C106.084 9.1957 106.122 9.33958 106.201 9.46066C106.281 9.58174 106.398 9.6733 106.535 9.72121C106.627 9.77762 106.735 9.80319 106.843 9.7942C106.951 9.78521 107.053 9.74214 107.135 9.67121C107.161 9.79048 107.216 9.90166 107.294 9.99556C107.373 10.0895 107.472 10.1634 107.585 10.2112C107.663 10.2579 107.753 10.2825 107.845 10.2825C107.936 10.2825 108.026 10.2579 108.105 10.2112C108.195 10.4068 108.346 10.5682 108.535 10.6712C108.613 10.7189 108.703 10.7441 108.795 10.7441C108.886 10.7441 108.976 10.7189 109.055 10.6712C109.132 10.8751 109.287 11.0403 109.485 11.1312C109.558 11.1833 109.645 11.2114 109.735 11.2114C109.824 11.2114 109.912 11.1833 109.985 11.1312C110.069 11.339 110.225 11.5095 110.425 11.6112C110.715 11.7612 110.955 11.6912 110.985 11.4412C110.98 11.3348 110.953 11.2306 110.905 11.1356C110.856 11.0407 110.788 10.9573 110.705 10.8912C110.895 10.8912 111.035 10.8412 111.045 10.6712C111.043 10.5779 111.022 10.486 110.982 10.4015C110.943 10.3171 110.886 10.242 110.815 10.1812C110.975 10.1812 111.095 10.1812 111.105 9.98121C111.095 9.86937 111.059 9.76139 111 9.6659C110.941 9.5704 110.86 9.49003 110.765 9.43121C110.985 9.51121 111.145 9.43121 111.165 9.28121C111.159 9.18995 111.132 9.10122 111.087 9.0216C111.042 8.94197 110.98 8.87349 110.905 8.82121C111.075 8.82121 111.205 8.82121 111.215 8.66121C111.202 8.55798 111.166 8.45906 111.109 8.37227C111.051 8.28549 110.975 8.21323 110.885 8.16121C111.075 8.22121 111.205 8.16121 111.215 8.05121C111.199 7.94507 111.157 7.84457 111.092 7.75894C111.028 7.67332 110.943 7.60533 110.845 7.56121C110.645 7.46121 110.485 7.47121 110.425 7.56121C110.397 7.46867 110.35 7.38322 110.286 7.31072C110.222 7.23823 110.143 7.1804 110.055 7.14121C109.875 7.05121 109.715 7.04121 109.645 7.14121C109.574 6.94805 109.43 6.79018 109.245 6.70121C109.025 6.59121 108.835 6.59121 108.765 6.70121C108.735 6.61355 108.688 6.53286 108.626 6.46408C108.564 6.3953 108.489 6.33988 108.405 6.30121C108.165 6.19121 107.965 6.20121 107.925 6.30121C107.925 6.15121 107.795 5.96121 107.555 5.84121C107.315 5.72121 107.095 5.78121 107.055 5.92121ZM110.055 10.3512C110.106 10.3761 110.15 10.4142 110.181 10.4617C110.213 10.5092 110.232 10.5642 110.235 10.6212C110.235 10.7112 110.125 10.7412 110.015 10.6812C109.961 10.6587 109.914 10.6214 109.881 10.5736C109.847 10.5258 109.828 10.4695 109.825 10.4112C109.875 10.3212 109.965 10.3012 110.085 10.3512H110.055ZM109.145 9.91121C109.255 9.97121 109.325 10.0612 109.305 10.1512C109.285 10.2412 109.205 10.2512 109.105 10.2012C109.055 10.183 109.013 10.1504 108.983 10.1076C108.952 10.0647 108.936 10.0137 108.935 9.96121C108.985 9.89121 109.075 9.86121 109.175 9.91121H109.145ZM108.235 9.46121C108.281 9.48027 108.32 9.51206 108.348 9.55282C108.377 9.59357 108.393 9.6416 108.395 9.69121C108.395 9.77121 108.285 9.79121 108.175 9.74121C108.065 9.69121 108.005 9.59121 108.025 9.51121C108.045 9.43121 108.165 9.41121 108.265 9.46121H108.235ZM107.415 9.22121C107.415 9.30121 107.285 9.33121 107.165 9.22121C107.045 9.11121 106.965 9.05121 106.985 8.96121C107.005 8.87121 107.125 8.85121 107.245 8.96121C107.365 9.07121 107.465 9.13121 107.445 9.22121H107.415ZM110.165 9.71121C110.21 9.73124 110.249 9.76328 110.277 9.80383C110.305 9.84439 110.322 9.8919 110.325 9.94121C110.325 10.0212 110.235 10.0412 110.135 9.99121C110.089 9.97084 110.049 9.93894 110.019 9.89863C109.99 9.85832 109.971 9.81097 109.965 9.76121C110.015 9.68121 110.095 9.66121 110.195 9.71121H110.165ZM107.425 8.33121C107.525 8.38121 107.595 8.47121 107.575 8.55121C107.555 8.63121 107.465 8.64121 107.355 8.55121C107.245 8.46121 107.185 8.40121 107.205 8.33121C107.225 8.26121 107.325 8.28121 107.425 8.33121ZM110.275 9.05121C110.375 9.05121 110.445 9.19121 110.435 9.26121C110.425 9.33121 110.345 9.35121 110.245 9.26121C110.2 9.2439 110.161 9.21392 110.132 9.17488C110.104 9.13584 110.087 9.08941 110.085 9.04121C110.095 8.99121 110.175 8.99121 110.275 9.05121ZM107.585 7.69121C107.628 7.7072 107.665 7.73576 107.692 7.77319C107.719 7.81063 107.734 7.85522 107.735 7.90121C107.735 7.97121 107.625 7.98121 107.525 7.90121C107.425 7.82121 107.355 7.76121 107.375 7.69121C107.395 7.62121 107.485 7.64121 107.585 7.69121ZM110.345 8.42121C110.388 8.4378 110.426 8.46626 110.455 8.50337C110.483 8.54048 110.5 8.58476 110.505 8.63121C110.505 8.70121 110.415 8.71121 110.325 8.63121C110.235 8.55121 110.155 8.49121 110.165 8.42121C110.175 8.35121 110.255 8.37121 110.345 8.42121ZM107.735 7.09121C107.825 7.14121 107.895 7.22121 107.875 7.29121C107.855 7.36121 107.775 7.37121 107.675 7.29121C107.575 7.21121 107.505 7.16121 107.525 7.09121C107.545 7.02121 107.635 7.04121 107.735 7.09121ZM110.385 7.77121C110.495 7.83121 110.565 7.92121 110.555 7.99121C110.545 8.06121 110.465 8.08121 110.355 7.99121C110.311 7.97098 110.272 7.9404 110.243 7.90209C110.213 7.86378 110.193 7.81888 110.185 7.77121C110.205 7.73121 110.285 7.72121 110.385 7.77121ZM109.585 7.37121C109.623 7.38834 109.657 7.41459 109.683 7.44769C109.709 7.48079 109.727 7.51975 109.735 7.56121C109.735 7.63121 109.645 7.64121 109.545 7.56121C109.505 7.54437 109.471 7.51669 109.446 7.48132C109.421 7.44595 109.407 7.40433 109.405 7.36121C109.415 7.33121 109.485 7.32121 109.585 7.37121ZM108.765 6.99121C108.855 6.99121 108.915 7.12121 108.905 7.18121C108.895 7.24121 108.815 7.25121 108.725 7.18121C108.635 7.11121 108.565 7.05121 108.575 6.98121C108.585 6.91121 108.675 6.90121 108.765 6.99121ZM107.875 6.53121C107.985 6.53121 108.055 6.67121 108.035 6.74121C108.015 6.81121 107.925 6.82121 107.815 6.74121C107.705 6.66121 107.645 6.60121 107.655 6.53121C107.665 6.46121 107.825 6.43121 107.875 6.49121V6.53121Z" fill="white"/>
</g>
<defs>
<radialGradient id="paint0_radial_29_28" cx="0" cy="0" r="1" gradientUnits="userSpaceOnUse" gradientTransform="translate(83.0053 28.0766) scale(44.34)">
<stop offset="0.29" stop-color="#7EBE42"/>
<stop offset="0.44" stop-color="#63AE45"/>
<stop offset="0.69" stop-color="#009848"/>
<stop offset="0.7" stop-color="#0763AF"/>
<stop offset="0.9" stop-color="#1798D5"/>
<stop offset="1" stop-color="#26AAE1"/>
</radialGradient>
<clipPath id="clip0_29_28">
<rect width="119" height="25" fill="white" transform="translate(0.824707 -0.00878906)"/>
</clipPath>
</defs>
</svg>
