<svg width="13" height="26" viewBox="0 0 13 26" fill="none" xmlns="http://www.w3.org/2000/svg">
<path d="M0.722589 0.498847C0.6255 0.498868 0.530584 0.527678 0.44987 0.581637C0.369157 0.635596 0.306261 0.712276 0.26913 0.801985C0.231999 0.891693 0.222318 0.9904 0.241287 1.08562C0.260256 1.18084 0.307034 1.26828 0.375709 1.33691L11.3568 12.3193C11.5108 12.4743 11.5973 12.6839 11.5973 12.9024C11.5973 13.121 11.5108 13.3306 11.3568 13.4856L0.375706 24.4673C0.286291 24.5599 0.236811 24.6839 0.237929 24.8126C0.239048 24.9413 0.290667 25.0644 0.381678 25.1554C0.472689 25.2464 0.595799 25.2981 0.724504 25.2992C0.853208 25.3003 0.977207 25.2508 1.06979 25.1614L12.0495 14.1797C12.3878 13.8406 12.5778 13.3812 12.5778 12.9023C12.5778 12.4233 12.3878 11.9639 12.0495 11.6249L1.06849 0.642836C0.976763 0.550994 0.852391 0.499221 0.722589 0.498847Z" fill="#fff"/>
</svg>
