<svg width="16" height="16" viewBox="0 0 16 16" fill="none" xmlns="http://www.w3.org/2000/svg">
<g clip-path="url(#clip0_182_672)">
<path d="M7.73633 7.94141C7.89453 7.79492 8.08789 7.71289 8.28711 7.71289H15.207V8.63867H8.52148C8.29297 8.63867 8.16992 8.76758 8.09961 8.83203C7.80664 9.10742 5.84375 10.9121 5.84375 10.9121L5.25195 10.332C5.25195 10.3379 7.46094 8.19922 7.73633 7.94141ZM11.6973 2.9082C12.4824 2.9082 12.9102 2.36328 12.9102 1.69531C12.9102 1.02734 12.3652 0.482422 11.6973 0.482422C11.0293 0.482422 10.4844 1.02734 10.4844 1.69531C10.4844 2.36328 11.0293 2.9082 11.6973 2.9082ZM9.89844 4.98828H10.3027L9.70508 7.12695H13.6836L13.0859 4.98828H13.4902L14.1055 7.12695H15.1543L14.3105 4.29102C14.1992 3.89844 13.7012 3.20703 12.8457 3.20703H10.5371C9.68164 3.20703 9.18359 3.9043 9.07227 4.29102L8.23438 7.12695H9.2832L9.89844 4.98828ZM6.46484 7.01562L5.94922 6.05469L5.39844 5.02344C5.39844 5.02344 5.33398 4.92969 5.2168 4.98242C5.11133 5.03516 5.1582 5.15234 5.1582 5.15234L5.50977 5.82617L5.73242 6.24805L5.48047 6.13086C5.0293 5.92578 4.7832 5.84375 4.68359 5.79688C4.66602 5.79102 4.57812 5.73828 4.53711 5.65039C4.41992 5.38672 3.91602 4.11523 3.80469 3.83398C3.71094 3.59375 3.47656 3.25977 2.99023 3.13672C2.43945 3.00195 1.88281 3.34766 1.75391 3.89844L1.00391 7.07422C0.939453 7.33203 0.822266 8.02344 0.822266 8.31055C0.822266 8.60352 0.828125 14.498 0.828125 14.498C0.828125 15.0254 1.20312 15.4414 1.72461 15.4414C2.24609 15.4414 2.60352 15.0137 2.59766 14.4922C2.59766 14.4922 2.59766 11.123 2.59766 9.24805L3.40039 5.86719C3.49414 6.0957 3.61133 6.37695 3.64648 6.44141C3.74023 6.59961 3.82812 6.71094 4.00977 6.79297C4.00977 6.79297 5.05859 7.22656 5.46289 7.41406C5.70898 7.50781 5.97266 7.42578 6.125 7.23242L6.18359 7.11523L6.20117 7.15039C6.20117 7.15039 6.31836 7.36133 6.5 7.37305C6.55273 7.20898 6.46484 7.01562 6.46484 7.01562ZM4.8418 1.68359C4.8418 1.01563 4.29688 0.470703 3.62891 0.470703C2.96094 0.476562 2.42188 1.01563 2.42188 1.68359C2.42188 2.35156 2.9668 2.89648 3.63477 2.89648C4.30273 2.89648 4.8418 2.35742 4.8418 1.68359ZM5.38672 9.59375L7.74805 7.39648L7.44336 7.06836L5.08203 9.26562L5.38672 9.59375Z" fill="#fff"/>
</g>
<defs>
<clipPath id="clip0_182_672">
<rect width="15" height="15" fill="white" transform="translate(0.5 0.5)"/>
</clipPath>
</defs>
</svg>
