<svg width="60" height="60" viewBox="0 0 60 60" fill="none" xmlns="http://www.w3.org/2000/svg">
<path d="M22.5 55H37.5C50 55 55 50 55 37.5V22.5C55 10 50 5 37.5 5H22.5C10 5 5 10 5 22.5V37.5C5 50 10 55 22.5 55Z" stroke="white" stroke-width="2" stroke-linecap="round" stroke-linejoin="round"/>
<path d="M38.9257 46.249V36.499" stroke="white" stroke-width="2" stroke-miterlimit="10" stroke-linecap="round" stroke-linejoin="round"/>
<path d="M38.9257 18.625V13.75" stroke="white" stroke-width="2" stroke-miterlimit="10" stroke-linecap="round" stroke-linejoin="round"/>
<path d="M38.9243 31.6255C42.5143 31.6255 45.4243 28.7152 45.4243 25.1255C45.4243 21.5356 42.5143 18.6255 38.9243 18.6255C35.3345 18.6255 32.4243 21.5356 32.4243 25.1255C32.4243 28.7152 35.3345 31.6255 38.9243 31.6255Z" stroke="white" stroke-width="2" stroke-miterlimit="10" stroke-linecap="round" stroke-linejoin="round"/>
<path d="M21.0742 46.2495V41.3745" stroke="white" stroke-width="2" stroke-miterlimit="10" stroke-linecap="round" stroke-linejoin="round"/>
<path d="M21.0742 23.5V13.75" stroke="white" stroke-width="2" stroke-miterlimit="10" stroke-linecap="round" stroke-linejoin="round"/>
<path d="M21.0752 41.374C24.665 41.374 27.5752 38.4638 27.5752 34.874C27.5752 31.2843 24.665 28.374 21.0752 28.374C17.4853 28.374 14.5752 31.2843 14.5752 34.874C14.5752 38.4638 17.4853 41.374 21.0752 41.374Z" stroke="white" stroke-width="2" stroke-miterlimit="10" stroke-linecap="round" stroke-linejoin="round"/>
</svg>
