<svg width="30" height="29" viewBox="0 0 30 29" fill="none" xmlns="http://www.w3.org/2000/svg">
<path d="M7.75 13.292C7.75 9.87431 7.75 8.16547 8.81174 7.10373C9.87348 6.04199 11.5823 6.04199 15 6.04199H18.625C22.0427 6.04199 23.7515 6.04199 24.8132 7.10373C25.875 8.16547 25.875 9.87431 25.875 13.292V19.3337C25.875 22.7513 25.875 24.4601 24.8132 25.5219C23.7515 26.5837 22.0427 26.5837 18.625 26.5837H15C11.5823 26.5837 9.87348 26.5837 8.81174 25.5219C7.75 24.4601 7.75 22.7513 7.75 19.3337V13.292Z" stroke="#fff" stroke-width="2"/>
<path d="M7.75 22.9587C5.74797 22.9587 4.125 21.3357 4.125 19.3337V12.0837C4.125 7.52674 4.125 5.2483 5.54065 3.83264C6.95631 2.41699 9.23475 2.41699 13.7917 2.41699H18.625C20.6271 2.41699 22.25 4.03997 22.25 6.04199" stroke="#fff" stroke-width="2"/>
</svg>
