<svg width="15" height="15" viewBox="0 0 15 15" fill="none" xmlns="http://www.w3.org/2000/svg">
<path d="M7.86756 3.89902L1.40015 10.3663V13.6H4.63385L11.1013 7.13267M7.86756 3.89902L10.1866 1.57995L10.1881 1.57858C10.5072 1.25935 10.6671 1.09946 10.8515 1.03957C11.0139 0.986811 11.1887 0.986811 11.3511 1.03957C11.5353 1.09941 11.6951 1.25913 12.0138 1.5779L13.4203 2.98438C13.7405 3.30453 13.9006 3.46468 13.9606 3.64926C14.0134 3.81163 14.0133 3.98652 13.9606 4.14889C13.9007 4.33334 13.7408 4.49324 13.421 4.81293L13.4203 4.81362L11.1013 7.13267M7.86756 3.89902L11.1013 7.13267" stroke="white" stroke-linecap="round" stroke-linejoin="round"/>
</svg>
