<svg width="217" height="51" viewBox="0 0 217 51" fill="none" xmlns="http://www.w3.org/2000/svg">
<path d="M1.45825 39.9674L3.96401 44.4732L6.4925 39.9674H7.29934L4.31629 45.121V48.2404H3.61741V45.121L0.628673 39.9674H1.45825Z" fill="black"/>
<path d="M7.60049 45.263V45.0755C7.60049 44.6285 7.66488 44.2156 7.79368 43.8368C7.92247 43.458 8.10619 43.1304 8.34483 42.8539C8.58726 42.5773 8.87704 42.3633 9.21418 42.2118C9.55131 42.0565 9.92632 41.9788 10.3392 41.9788C10.7559 41.9788 11.1328 42.0565 11.4699 42.2118C11.8071 42.3633 12.0968 42.5773 12.3393 42.8539C12.5817 43.1304 12.7673 43.458 12.8961 43.8368C13.0249 44.2156 13.0893 44.6285 13.0893 45.0755V45.263C13.0893 45.71 13.0249 46.1229 12.8961 46.5017C12.7673 46.8767 12.5817 47.2025 12.3393 47.479C12.1006 47.7555 11.8127 47.9714 11.4756 48.1268C11.1385 48.2783 10.7635 48.354 10.3506 48.354C9.9339 48.354 9.55699 48.2783 9.21986 48.1268C8.88273 47.9714 8.59295 47.7555 8.35051 47.479C8.10808 47.2025 7.92247 46.8767 7.79368 46.5017C7.66488 46.1229 7.60049 45.71 7.60049 45.263ZM8.27665 45.0755V45.263C8.27665 45.6002 8.3221 45.9202 8.41301 46.2233C8.50393 46.5225 8.63651 46.7896 8.81075 47.0244C8.985 47.2555 9.20092 47.4373 9.4585 47.5699C9.71609 47.7025 10.0134 47.7688 10.3506 47.7688C10.6839 47.7688 10.9775 47.7025 11.2313 47.5699C11.4889 47.4373 11.7048 47.2555 11.879 47.0244C12.0533 46.7896 12.184 46.5225 12.2711 46.2233C12.362 45.9202 12.4075 45.6002 12.4075 45.263V45.0755C12.4075 44.7422 12.362 44.4259 12.2711 44.1266C12.184 43.8274 12.0514 43.5603 11.8734 43.3255C11.6991 43.0906 11.4832 42.905 11.2256 42.7686C10.968 42.6323 10.6726 42.5641 10.3392 42.5641C10.0059 42.5641 9.71041 42.6323 9.45282 42.7686C9.19903 42.905 8.98311 43.0906 8.80507 43.3255C8.63083 43.5603 8.49825 43.8274 8.40733 44.1266C8.32021 44.4259 8.27665 44.7422 8.27665 45.0755Z" fill="black"/>
<path d="M18.4361 46.8199V42.0925H19.1179V48.2404H18.4645L18.4361 46.8199ZM18.5611 45.6835L18.9134 45.6721C18.9134 46.0585 18.8679 46.4146 18.777 46.7403C18.6861 47.0661 18.544 47.3502 18.3508 47.5926C18.1576 47.8351 17.9076 48.0226 17.6008 48.1552C17.294 48.2877 16.9247 48.354 16.4928 48.354C16.1936 48.354 15.9189 48.3124 15.6689 48.229C15.4227 48.1419 15.2106 48.0055 15.0325 47.8199C14.8545 47.6343 14.7162 47.3938 14.6178 47.0983C14.5231 46.8028 14.4757 46.4449 14.4757 46.0244V42.0925H15.1519V46.0358C15.1519 46.3653 15.1879 46.64 15.2598 46.8597C15.3356 47.0794 15.4379 47.2555 15.5667 47.3881C15.6992 47.5207 15.8508 47.6154 16.0212 47.6722C16.1917 47.729 16.3754 47.7574 16.5724 47.7574C17.0724 47.7574 17.4663 47.6608 17.7542 47.4676C18.0459 47.2745 18.2523 47.0207 18.3736 46.7063C18.4986 46.3881 18.5611 46.0471 18.5611 45.6835Z" fill="black"/>
<path d="M21.5725 43.1096V48.2404H20.8964V42.0925H21.5555L21.5725 43.1096ZM23.7487 42.047L23.7317 42.672C23.6559 42.6607 23.5821 42.6512 23.5101 42.6436C23.4381 42.6361 23.3605 42.6323 23.2771 42.6323C22.9817 42.6323 22.7222 42.6872 22.4987 42.797C22.279 42.9031 22.0934 43.0527 21.9419 43.2459C21.7903 43.4353 21.6748 43.6588 21.5953 43.9164C21.5157 44.1702 21.4703 44.4429 21.4589 44.7346L21.2089 44.8312C21.2089 44.4297 21.2505 44.0565 21.3339 43.7118C21.4172 43.3671 21.5441 43.066 21.7146 42.8084C21.8888 42.547 22.1066 42.3444 22.368 42.2004C22.6332 42.0527 22.9438 41.9788 23.2999 41.9788C23.387 41.9788 23.4722 41.9864 23.5555 42.0016C23.6427 42.0129 23.7071 42.0281 23.7487 42.047Z" fill="black"/>
<path d="M32.8115 39.9674H33.5104V45.5699C33.5104 46.1911 33.3797 46.7081 33.1184 47.121C32.857 47.5339 32.5047 47.8427 32.0615 48.0472C31.6221 48.2518 31.1353 48.354 30.6012 48.354C30.052 48.354 29.5576 48.2518 29.1182 48.0472C28.6788 47.8427 28.3303 47.5339 28.0727 47.121C27.8189 46.7081 27.692 46.1911 27.692 45.5699V39.9674H28.3853V45.5699C28.3853 46.0509 28.4799 46.4544 28.6694 46.7801C28.8588 47.1059 29.1201 47.3502 29.4535 47.5131C29.7868 47.676 30.1694 47.7574 30.6012 47.7574C31.0293 47.7574 31.41 47.676 31.7433 47.5131C32.0767 47.3502 32.338 47.1059 32.5274 46.7801C32.7168 46.4544 32.8115 46.0509 32.8115 45.5699V39.9674Z" fill="black"/>
<path d="M36.073 39.5128V48.2404H35.3968V39.5128H36.073Z" fill="black"/>
<path d="M40.255 42.0925V42.6493H37.1753V42.0925H40.255ZM38.306 40.5129H38.9822V46.746C38.9822 47.0301 39.0201 47.2442 39.0958 47.3881C39.1716 47.532 39.2701 47.6286 39.3913 47.6779C39.5125 47.7271 39.6432 47.7517 39.7833 47.7517C39.8856 47.7517 39.9841 47.7461 40.0788 47.7347C40.1735 47.7195 40.2587 47.7044 40.3345 47.6892L40.3629 48.2631C40.2796 48.2896 40.1716 48.3105 40.039 48.3256C39.9065 48.3446 39.7739 48.354 39.6413 48.354C39.3799 48.354 39.1489 48.3067 38.9481 48.212C38.7473 48.1135 38.5901 47.9468 38.4765 47.712C38.3628 47.4733 38.306 47.1495 38.306 46.7403V40.5129Z" fill="black"/>
<path d="M42.4368 42.0925V48.2404H41.7607V42.0925H42.4368ZM41.6414 40.314C41.6414 40.1852 41.6811 40.0773 41.7607 39.9901C41.844 39.8992 41.9577 39.8538 42.1016 39.8538C42.2455 39.8538 42.3592 39.8992 42.4425 39.9901C42.5296 40.0773 42.5732 40.1852 42.5732 40.314C42.5732 40.439 42.5296 40.547 42.4425 40.6379C42.3592 40.725 42.2455 40.7686 42.1016 40.7686C41.9577 40.7686 41.844 40.725 41.7607 40.6379C41.6811 40.547 41.6414 40.439 41.6414 40.314Z" fill="black"/>
<path d="M44.9369 43.3652V48.2404H44.2551V42.0925H44.9085L44.9369 43.3652ZM44.8119 44.7857L44.4824 44.6153C44.5051 44.2516 44.5733 43.9107 44.6869 43.5925C44.8043 43.2743 44.9672 42.994 45.1756 42.7516C45.3839 42.5092 45.6339 42.3198 45.9256 42.1834C46.2173 42.047 46.5487 41.9788 46.9199 41.9788C47.2192 41.9788 47.49 42.0205 47.7325 42.1038C47.9787 42.1834 48.187 42.3103 48.3575 42.4845C48.5317 42.655 48.6662 42.8785 48.7609 43.155C48.8556 43.4315 48.903 43.763 48.903 44.1494V48.2404H48.2268V44.1721C48.2268 43.763 48.1624 43.4429 48.0336 43.2118C47.9086 42.9808 47.7325 42.816 47.5052 42.7175C47.2817 42.619 47.0222 42.5698 46.7267 42.5698C46.3783 42.5698 46.0828 42.6417 45.8404 42.7857C45.6017 42.9258 45.4066 43.1095 45.2551 43.3368C45.1074 43.5603 44.9975 43.8009 44.9256 44.0584C44.8536 44.3122 44.8157 44.5547 44.8119 44.7857ZM48.8973 44.2516L48.4427 44.263C48.4617 43.9637 48.5298 43.6777 48.6473 43.405C48.7685 43.1323 48.9333 42.8898 49.1416 42.6777C49.3499 42.4618 49.5981 42.2913 49.8859 42.1663C50.1776 42.0413 50.5053 41.9788 50.8689 41.9788C51.1871 41.9788 51.4712 42.0224 51.7212 42.1095C51.9712 42.1929 52.1815 42.3273 52.3519 42.5129C52.5262 42.6948 52.6588 42.9277 52.7497 43.2118C52.8406 43.4959 52.886 43.8368 52.886 44.2346V48.2404H52.2042V44.2289C52.2042 43.7933 52.1398 43.4562 52.011 43.2175C51.886 42.9751 51.7118 42.8065 51.4883 42.7118C51.2648 42.6171 51.0034 42.5698 50.7042 42.5698C50.4087 42.5735 50.1492 42.6285 49.9257 42.7345C49.7022 42.8368 49.5147 42.9732 49.3632 43.1436C49.2155 43.3103 49.1018 43.4902 49.0223 43.6834C48.9465 43.8766 48.9049 44.066 48.8973 44.2516Z" fill="black"/>
<path d="M58.3521 47.1381V43.9675C58.3521 43.6759 58.2915 43.424 58.1703 43.2118C58.0491 42.9997 57.8711 42.8368 57.6362 42.7232C57.4013 42.6095 57.1116 42.5527 56.7668 42.5527C56.4487 42.5527 56.1646 42.6095 55.9145 42.7232C55.6683 42.833 55.4732 42.9827 55.3293 43.1721C55.1891 43.3577 55.1191 43.5641 55.1191 43.7914L54.4372 43.7857C54.4372 43.5546 54.494 43.3311 54.6077 43.1152C54.7213 42.8993 54.8823 42.7061 55.0907 42.5357C55.299 42.3652 55.5471 42.2307 55.835 42.1322C56.1267 42.03 56.4468 41.9788 56.7953 41.9788C57.2347 41.9788 57.621 42.0527 57.9544 42.2004C58.2915 42.3482 58.5548 42.5698 58.7442 42.8652C58.9336 43.1607 59.0283 43.5319 59.0283 43.9789V46.9506C59.0283 47.1627 59.0434 47.3824 59.0737 47.6097C59.1078 47.837 59.1552 48.0245 59.2158 48.1722V48.2404H58.4942C58.4487 48.104 58.4127 47.9336 58.3862 47.729C58.3635 47.5207 58.3521 47.3237 58.3521 47.1381ZM58.5112 44.6607L58.5226 45.1835H57.1873C56.8388 45.1835 56.5263 45.2157 56.2498 45.2801C55.977 45.3407 55.746 45.4316 55.5566 45.5528C55.3672 45.6702 55.2213 45.8123 55.1191 45.979C55.0206 46.1456 54.9713 46.335 54.9713 46.5472C54.9713 46.7669 55.0263 46.9676 55.1361 47.1494C55.2498 47.3313 55.4089 47.4771 55.6134 47.587C55.8217 47.693 56.068 47.7461 56.3521 47.7461C56.7309 47.7461 57.0642 47.676 57.3521 47.5358C57.6438 47.3957 57.8843 47.212 58.0737 46.9847C58.2631 46.7574 58.39 46.5093 58.4544 46.2403L58.7499 46.6324C58.7006 46.8218 58.6097 47.0169 58.4771 47.2176C58.3483 47.4146 58.1798 47.6002 57.9714 47.7745C57.7631 47.9449 57.5169 48.0851 57.2328 48.1949C56.9525 48.301 56.6343 48.354 56.2782 48.354C55.8767 48.354 55.5263 48.2783 55.227 48.1268C54.9316 47.9752 54.7005 47.7688 54.5338 47.5074C54.3709 47.2423 54.2895 46.943 54.2895 46.6097C54.2895 46.3066 54.3539 46.0358 54.4827 45.7971C54.6115 45.5547 54.7971 45.3502 55.0395 45.1835C55.2857 45.013 55.5812 44.8842 55.9259 44.7971C56.2744 44.7062 56.6646 44.6607 57.0964 44.6607H58.5112Z" fill="black"/>
<path d="M63.1761 42.0925V42.6493H60.0965V42.0925H63.1761ZM61.2272 40.5129H61.9034V46.746C61.9034 47.0301 61.9413 47.2442 62.017 47.3881C62.0928 47.532 62.1913 47.6286 62.3125 47.6779C62.4337 47.7271 62.5644 47.7517 62.7045 47.7517C62.8068 47.7517 62.9053 47.7461 63 47.7347C63.0947 47.7195 63.1799 47.7044 63.2557 47.6892L63.2841 48.2631C63.2008 48.2896 63.0928 48.3105 62.9602 48.3256C62.8276 48.3446 62.6951 48.354 62.5625 48.354C62.3011 48.354 62.07 48.3067 61.8693 48.212C61.6685 48.1135 61.5113 47.9468 61.3977 47.712C61.284 47.4733 61.2272 47.1495 61.2272 46.7403V40.5129Z" fill="black"/>
<path d="M66.9774 48.354C66.5759 48.354 66.2065 48.2802 65.8694 48.1324C65.5361 47.9847 65.2444 47.7764 64.9944 47.5074C64.7482 47.2385 64.5569 46.9203 64.4205 46.5528C64.2879 46.1816 64.2216 45.7763 64.2216 45.3369V45.0926C64.2216 44.6191 64.2917 44.191 64.4319 43.8084C64.572 43.4258 64.7652 43.0982 65.0114 42.8255C65.2577 42.5527 65.538 42.3444 65.8524 42.2004C66.1706 42.0527 66.5039 41.9788 66.8524 41.9788C67.2426 41.9788 67.5892 42.0489 67.8922 42.1891C68.1952 42.3254 68.449 42.5205 68.6536 42.7743C68.8619 43.0243 69.0191 43.3217 69.1252 43.6664C69.2313 44.0073 69.2843 44.3842 69.2843 44.7971V45.2119H64.6307V44.6323H68.6081V44.5528C68.6006 44.2081 68.5305 43.8861 68.3979 43.5868C68.2691 43.2838 68.0759 43.0376 67.8183 42.8482C67.5608 42.6588 67.2388 42.5641 66.8524 42.5641C66.5645 42.5641 66.2994 42.6247 66.0569 42.7459C65.8183 42.8671 65.6118 43.0414 65.4376 43.2686C65.2671 43.4921 65.1345 43.7592 65.0398 44.0698C64.9489 44.3766 64.9035 44.7176 64.9035 45.0926V45.3369C64.9035 45.6778 64.9527 45.996 65.0512 46.2915C65.1535 46.5831 65.2974 46.8407 65.483 47.0642C65.6724 47.2877 65.8959 47.462 66.1535 47.587C66.4111 47.712 66.6952 47.7745 67.0058 47.7745C67.3695 47.7745 67.6914 47.7082 67.9717 47.5756C68.2521 47.4392 68.504 47.2252 68.7275 46.9335L69.1536 47.2631C69.021 47.4601 68.8544 47.6419 68.6536 47.8086C68.4566 47.9752 68.2199 48.1078 67.9433 48.2063C67.6668 48.3048 67.3448 48.354 66.9774 48.354Z" fill="black"/>
<path d="M78.7676 47.6438V48.2404H74.114V47.6438H78.7676ZM74.3242 39.9674V48.2404H73.6253V39.9674H74.3242ZM78.188 43.6777V44.2744H74.114V43.6777H78.188ZM78.7391 39.9674V40.5697H74.114V39.9674H78.7391Z" fill="black"/>
<path d="M81.7563 47.587L83.7279 42.0925H84.4268L82.1256 48.2404H81.6313L81.7563 47.587ZM79.9721 42.0925L81.9665 47.604L82.0745 48.2404H81.5745L79.2676 42.0925H79.9721Z" fill="black"/>
<path d="M87.8417 48.354C87.4402 48.354 87.0709 48.2802 86.7337 48.1324C86.4004 47.9847 86.1087 47.7764 85.8587 47.5074C85.6125 47.2385 85.4212 46.9203 85.2848 46.5528C85.1522 46.1816 85.0859 45.7763 85.0859 45.3369V45.0926C85.0859 44.6191 85.156 44.191 85.2962 43.8084C85.4363 43.4258 85.6295 43.0982 85.8757 42.8255C86.122 42.5527 86.4023 42.3444 86.7167 42.2004C87.0349 42.0527 87.3682 41.9788 87.7167 41.9788C88.1069 41.9788 88.4535 42.0489 88.7565 42.1891C89.0596 42.3254 89.3134 42.5205 89.5179 42.7743C89.7262 43.0243 89.8834 43.3217 89.9895 43.6664C90.0956 44.0073 90.1486 44.3842 90.1486 44.7971V45.2119H85.495V44.6323H89.4724V44.5528C89.4649 44.2081 89.3948 43.8861 89.2622 43.5868C89.1334 43.2838 88.9402 43.0376 88.6826 42.8482C88.4251 42.6588 88.1031 42.5641 87.7167 42.5641C87.4288 42.5641 87.1637 42.6247 86.9212 42.7459C86.6826 42.8671 86.4761 43.0414 86.3019 43.2686C86.1314 43.4921 85.9989 43.7592 85.9042 44.0698C85.8132 44.3766 85.7678 44.7176 85.7678 45.0926V45.3369C85.7678 45.6778 85.817 45.996 85.9155 46.2915C86.0178 46.5831 86.1617 46.8407 86.3473 47.0642C86.5367 47.2877 86.7602 47.462 87.0178 47.587C87.2754 47.712 87.5595 47.7745 87.8701 47.7745C88.2338 47.7745 88.5558 47.7082 88.8361 47.5756C89.1164 47.4392 89.3683 47.2252 89.5918 46.9335L90.0179 47.2631C89.8853 47.4601 89.7187 47.6419 89.5179 47.8086C89.3209 47.9752 89.0842 48.1078 88.8077 48.2063C88.5311 48.3048 88.2092 48.354 87.8417 48.354Z" fill="black"/>
<path d="M92.1657 43.405V48.2404H91.4896V42.0925H92.1373L92.1657 43.405ZM92.0123 44.7857L91.7112 44.6153C91.7339 44.2516 91.8077 43.9107 91.9328 43.5925C92.0578 43.2743 92.2263 42.994 92.4384 42.7516C92.6544 42.5092 92.9063 42.3198 93.1942 42.1834C93.4858 42.047 93.8078 41.9788 94.1601 41.9788C94.4669 41.9788 94.7416 42.0205 94.984 42.1038C95.2264 42.1872 95.4329 42.3198 95.6033 42.5016C95.7738 42.6834 95.9026 42.9164 95.9897 43.2005C96.0806 43.4846 96.1261 43.8312 96.1261 44.2403V48.2404H95.4442V44.2346C95.4442 43.8103 95.3855 43.4789 95.2681 43.2402C95.1507 42.9978 94.984 42.8254 94.7681 42.7232C94.5522 42.6209 94.2965 42.5698 94.001 42.5698C93.6752 42.5698 93.3892 42.6417 93.143 42.7857C92.9006 42.9258 92.696 43.1095 92.5294 43.3368C92.3665 43.5603 92.2415 43.8009 92.1544 44.0584C92.0672 44.3122 92.0199 44.5547 92.0123 44.7857Z" fill="black"/>
<path d="M100.211 42.0925V42.6493H97.1318V42.0925H100.211ZM98.2625 40.5129H98.9387V46.746C98.9387 47.0301 98.9765 47.2442 99.0523 47.3881C99.1281 47.532 99.2265 47.6286 99.3478 47.6779C99.469 47.7271 99.5997 47.7517 99.7398 47.7517C99.8421 47.7517 99.9406 47.7461 100.035 47.7347C100.13 47.7195 100.215 47.7044 100.291 47.6892L100.319 48.2631C100.236 48.2896 100.128 48.3105 99.9955 48.3256C99.8629 48.3446 99.7304 48.354 99.5978 48.354C99.3364 48.354 99.1053 48.3067 98.9046 48.212C98.7038 48.1135 98.5466 47.9468 98.433 47.712C98.3193 47.4733 98.2625 47.1495 98.2625 46.7403V40.5129Z" fill="black"/>
<path d="M104.854 39.9674H105.558L108.615 47.2517L111.678 39.9674H112.377L108.882 48.2404H108.348L104.854 39.9674ZM104.638 39.9674H105.257L105.331 44.6266V48.2404H104.638V39.9674ZM111.985 39.9674H112.604V48.2404H111.905V44.6266L111.985 39.9674Z" fill="black"/>
<path d="M118.286 47.1381V43.9675C118.286 43.6759 118.225 43.424 118.104 43.2118C117.983 42.9997 117.805 42.8368 117.57 42.7232C117.335 42.6095 117.045 42.5527 116.701 42.5527C116.382 42.5527 116.098 42.6095 115.848 42.7232C115.602 42.833 115.407 42.9827 115.263 43.1721C115.123 43.3577 115.053 43.5641 115.053 43.7914L114.371 43.7857C114.371 43.5546 114.428 43.3311 114.541 43.1152C114.655 42.8993 114.816 42.7061 115.024 42.5357C115.233 42.3652 115.481 42.2307 115.769 42.1322C116.06 42.03 116.381 41.9788 116.729 41.9788C117.168 41.9788 117.555 42.0527 117.888 42.2004C118.225 42.3482 118.489 42.5698 118.678 42.8652C118.867 43.1607 118.962 43.5319 118.962 43.9789V46.9506C118.962 47.1627 118.977 47.3824 119.007 47.6097C119.042 47.837 119.089 48.0245 119.15 48.1722V48.2404H118.428C118.382 48.104 118.346 47.9336 118.32 47.729C118.297 47.5207 118.286 47.3237 118.286 47.1381ZM118.445 44.6607L118.456 45.1835H117.121C116.773 45.1835 116.46 45.2157 116.184 45.2801C115.911 45.3407 115.68 45.4316 115.49 45.5528C115.301 45.6702 115.155 45.8123 115.053 45.979C114.954 46.1456 114.905 46.335 114.905 46.5472C114.905 46.7669 114.96 46.9676 115.07 47.1494C115.184 47.3313 115.343 47.4771 115.547 47.587C115.755 47.693 116.002 47.7461 116.286 47.7461C116.665 47.7461 116.998 47.676 117.286 47.5358C117.578 47.3957 117.818 47.212 118.007 46.9847C118.197 46.7574 118.324 46.5093 118.388 46.2403L118.684 46.6324C118.634 46.8218 118.543 47.0169 118.411 47.2176C118.282 47.4146 118.114 47.6002 117.905 47.7745C117.697 47.9449 117.451 48.0851 117.167 48.1949C116.886 48.301 116.568 48.354 116.212 48.354C115.81 48.354 115.46 48.2783 115.161 48.1268C114.865 47.9752 114.634 47.7688 114.468 47.5074C114.305 47.2423 114.223 46.943 114.223 46.6097C114.223 46.3066 114.288 46.0358 114.416 45.7971C114.545 45.5547 114.731 45.3502 114.973 45.1835C115.219 45.013 115.515 44.8842 115.86 44.7971C116.208 44.7062 116.598 44.6607 117.03 44.6607H118.445Z" fill="black"/>
<path d="M121.462 43.405V48.2404H120.786V42.0925H121.434L121.462 43.405ZM121.309 44.7857L121.008 44.6153C121.03 44.2516 121.104 43.9107 121.229 43.5925C121.354 43.2743 121.523 42.994 121.735 42.7516C121.951 42.5092 122.203 42.3198 122.491 42.1834C122.782 42.047 123.104 41.9788 123.456 41.9788C123.763 41.9788 124.038 42.0205 124.28 42.1038C124.523 42.1872 124.729 42.3198 124.9 42.5016C125.07 42.6834 125.199 42.9164 125.286 43.2005C125.377 43.4846 125.422 43.8312 125.422 44.2403V48.2404H124.741V44.2346C124.741 43.8103 124.682 43.4789 124.564 43.2402C124.447 42.9978 124.28 42.8254 124.064 42.7232C123.849 42.6209 123.593 42.5698 123.297 42.5698C122.972 42.5698 122.686 42.6417 122.439 42.7857C122.197 42.9258 121.992 43.1095 121.826 43.3368C121.663 43.5603 121.538 43.8009 121.451 44.0584C121.364 44.3122 121.316 44.5547 121.309 44.7857Z" fill="black"/>
<path d="M130.923 47.1381V43.9675C130.923 43.6759 130.862 43.424 130.741 43.2118C130.62 42.9997 130.442 42.8368 130.207 42.7232C129.972 42.6095 129.682 42.5527 129.337 42.5527C129.019 42.5527 128.735 42.6095 128.485 42.7232C128.239 42.833 128.044 42.9827 127.9 43.1721C127.76 43.3577 127.69 43.5641 127.69 43.7914L127.008 43.7857C127.008 43.5546 127.065 43.3311 127.178 43.1152C127.292 42.8993 127.453 42.7061 127.661 42.5357C127.87 42.3652 128.118 42.2307 128.406 42.1322C128.697 42.03 129.017 41.9788 129.366 41.9788C129.805 41.9788 130.192 42.0527 130.525 42.2004C130.862 42.3482 131.125 42.5698 131.315 42.8652C131.504 43.1607 131.599 43.5319 131.599 43.9789V46.9506C131.599 47.1627 131.614 47.3824 131.644 47.6097C131.678 47.837 131.726 48.0245 131.786 48.1722V48.2404H131.065C131.019 48.104 130.983 47.9336 130.957 47.729C130.934 47.5207 130.923 47.3237 130.923 47.1381ZM131.082 44.6607L131.093 45.1835H129.758C129.409 45.1835 129.097 45.2157 128.82 45.2801C128.548 45.3407 128.316 45.4316 128.127 45.5528C127.938 45.6702 127.792 45.8123 127.69 45.979C127.591 46.1456 127.542 46.335 127.542 46.5472C127.542 46.7669 127.597 46.9676 127.707 47.1494C127.82 47.3313 127.979 47.4771 128.184 47.587C128.392 47.693 128.638 47.7461 128.923 47.7461C129.301 47.7461 129.635 47.676 129.923 47.5358C130.214 47.3957 130.455 47.212 130.644 46.9847C130.834 46.7574 130.961 46.5093 131.025 46.2403L131.32 46.6324C131.271 46.8218 131.18 47.0169 131.048 47.2176C130.919 47.4146 130.75 47.6002 130.542 47.7745C130.334 47.9449 130.087 48.0851 129.803 48.1949C129.523 48.301 129.205 48.354 128.849 48.354C128.447 48.354 128.097 48.2783 127.798 48.1268C127.502 47.9752 127.271 47.7688 127.104 47.5074C126.941 47.2423 126.86 46.943 126.86 46.6097C126.86 46.3066 126.924 46.0358 127.053 45.7971C127.182 45.5547 127.368 45.3502 127.61 45.1835C127.856 45.013 128.152 44.8842 128.496 44.7971C128.845 44.7062 129.235 44.6607 129.667 44.6607H131.082Z" fill="black"/>
<path d="M137.468 42.0925H138.099V48.1324C138.099 48.6665 137.997 49.1249 137.792 49.5075C137.591 49.8901 137.305 50.1836 136.934 50.3882C136.567 50.5927 136.133 50.695 135.633 50.695C135.379 50.695 135.118 50.6552 134.849 50.5757C134.584 50.4999 134.332 50.3825 134.093 50.2234C133.858 50.0681 133.658 49.8749 133.491 49.6438L133.872 49.2291C134.122 49.5321 134.389 49.7537 134.673 49.8939C134.957 50.0378 135.264 50.1098 135.593 50.1098C135.983 50.1098 136.313 50.0321 136.582 49.8768C136.855 49.7215 137.061 49.498 137.201 49.2063C137.345 48.9147 137.417 48.5643 137.417 48.1552V43.4448L137.468 42.0925ZM133.15 45.2289V45.1096C133.15 44.6323 133.203 44.2024 133.309 43.8198C133.419 43.4334 133.576 43.1039 133.781 42.8311C133.985 42.5546 134.233 42.3444 134.525 42.2004C134.82 42.0527 135.154 41.9788 135.525 41.9788C135.881 41.9788 136.197 42.0375 136.474 42.155C136.75 42.2724 136.989 42.441 137.19 42.6607C137.391 42.8804 137.552 43.1417 137.673 43.4448C137.798 43.7478 137.889 44.085 137.946 44.4562V45.9733C137.9 46.3218 137.817 46.6419 137.696 46.9335C137.574 47.2214 137.413 47.4733 137.213 47.6892C137.012 47.9014 136.769 48.0661 136.485 48.1836C136.205 48.2972 135.881 48.354 135.514 48.354C135.146 48.354 134.817 48.2783 134.525 48.1268C134.233 47.9752 133.985 47.7612 133.781 47.4847C133.576 47.2044 133.419 46.8729 133.309 46.4903C133.203 46.1078 133.15 45.6873 133.15 45.2289ZM133.832 45.1096V45.2289C133.832 45.5888 133.868 45.9221 133.94 46.229C134.012 46.5358 134.122 46.8028 134.269 47.0301C134.417 47.2574 134.605 47.4354 134.832 47.5642C135.059 47.693 135.326 47.7574 135.633 47.7574C136.023 47.7574 136.351 47.6836 136.616 47.5358C136.881 47.3843 137.091 47.1854 137.247 46.9392C137.402 46.6892 137.516 46.4165 137.588 46.121V44.3539C137.546 44.1531 137.482 43.9486 137.394 43.7402C137.311 43.5319 137.194 43.3406 137.042 43.1664C136.894 42.9883 136.705 42.8463 136.474 42.7402C136.247 42.6304 135.97 42.5754 135.644 42.5754C135.334 42.5754 135.063 42.6398 134.832 42.7686C134.605 42.8974 134.417 43.0774 134.269 43.3084C134.122 43.5357 134.012 43.8027 133.94 44.1096C133.868 44.4164 133.832 44.7498 133.832 45.1096Z" fill="black"/>
<path d="M142.253 48.354C141.851 48.354 141.482 48.2802 141.145 48.1324C140.811 47.9847 140.52 47.7764 140.27 47.5074C140.023 47.2385 139.832 46.9203 139.696 46.5528C139.563 46.1816 139.497 45.7763 139.497 45.3369V45.0926C139.497 44.6191 139.567 44.191 139.707 43.8084C139.847 43.4258 140.04 43.0982 140.287 42.8255C140.533 42.5527 140.813 42.3444 141.128 42.2004C141.446 42.0527 141.779 41.9788 142.128 41.9788C142.518 41.9788 142.864 42.0489 143.167 42.1891C143.47 42.3254 143.724 42.5205 143.929 42.7743C144.137 43.0243 144.294 43.3217 144.4 43.6664C144.506 44.0073 144.559 44.3842 144.559 44.7971V45.2119H139.906V44.6323H143.883V44.5528C143.876 44.2081 143.806 43.8861 143.673 43.5868C143.544 43.2838 143.351 43.0376 143.093 42.8482C142.836 42.6588 142.514 42.5641 142.128 42.5641C141.84 42.5641 141.575 42.6247 141.332 42.7459C141.093 42.8671 140.887 43.0414 140.713 43.2686C140.542 43.4921 140.41 43.7592 140.315 44.0698C140.224 44.3766 140.179 44.7176 140.179 45.0926V45.3369C140.179 45.6778 140.228 45.996 140.326 46.2915C140.429 46.5831 140.573 46.8407 140.758 47.0642C140.948 47.2877 141.171 47.462 141.429 47.587C141.686 47.712 141.97 47.7745 142.281 47.7745C142.645 47.7745 142.967 47.7082 143.247 47.5756C143.527 47.4392 143.779 47.2252 144.003 46.9335L144.429 47.2631C144.296 47.4601 144.13 47.6419 143.929 47.8086C143.732 47.9752 143.495 48.1078 143.219 48.2063C142.942 48.3048 142.62 48.354 142.253 48.354Z" fill="black"/>
<path d="M146.542 43.3652V48.2404H145.861V42.0925H146.514L146.542 43.3652ZM146.417 44.7857L146.088 44.6153C146.111 44.2516 146.179 43.9107 146.292 43.5925C146.41 43.2743 146.573 42.994 146.781 42.7516C146.989 42.5092 147.239 42.3198 147.531 42.1834C147.823 42.047 148.154 41.9788 148.525 41.9788C148.825 41.9788 149.096 42.0205 149.338 42.1038C149.584 42.1834 149.793 42.3103 149.963 42.4845C150.137 42.655 150.272 42.8785 150.366 43.155C150.461 43.4315 150.508 43.763 150.508 44.1494V48.2404H149.832V44.1721C149.832 43.763 149.768 43.4429 149.639 43.2118C149.514 42.9808 149.338 42.816 149.111 42.7175C148.887 42.619 148.628 42.5698 148.332 42.5698C147.984 42.5698 147.688 42.6417 147.446 42.7857C147.207 42.9258 147.012 43.1095 146.861 43.3368C146.713 43.5603 146.603 43.8009 146.531 44.0584C146.459 44.3122 146.421 44.5547 146.417 44.7857ZM150.503 44.2516L150.048 44.263C150.067 43.9637 150.135 43.6777 150.253 43.405C150.374 43.1323 150.539 42.8898 150.747 42.6777C150.955 42.4618 151.204 42.2913 151.492 42.1663C151.783 42.0413 152.111 41.9788 152.474 41.9788C152.793 41.9788 153.077 42.0224 153.327 42.1095C153.577 42.1929 153.787 42.3273 153.957 42.5129C154.132 42.6948 154.264 42.9277 154.355 43.2118C154.446 43.4959 154.492 43.8368 154.492 44.2346V48.2404H153.81V44.2289C153.81 43.7933 153.745 43.4562 153.617 43.2175C153.492 42.9751 153.317 42.8065 153.094 42.7118C152.87 42.6171 152.609 42.5698 152.31 42.5698C152.014 42.5735 151.755 42.6285 151.531 42.7345C151.308 42.8368 151.12 42.9732 150.969 43.1436C150.821 43.3103 150.707 43.4902 150.628 43.6834C150.552 43.8766 150.51 44.066 150.503 44.2516Z" fill="black"/>
<path d="M158.594 48.354C158.192 48.354 157.823 48.2802 157.486 48.1324C157.153 47.9847 156.861 47.7764 156.611 47.5074C156.365 47.2385 156.173 46.9203 156.037 46.5528C155.905 46.1816 155.838 45.7763 155.838 45.3369V45.0926C155.838 44.6191 155.908 44.191 156.048 43.8084C156.189 43.4258 156.382 43.0982 156.628 42.8255C156.874 42.5527 157.155 42.3444 157.469 42.2004C157.787 42.0527 158.12 41.9788 158.469 41.9788C158.859 41.9788 159.206 42.0489 159.509 42.1891C159.812 42.3254 160.066 42.5205 160.27 42.7743C160.479 43.0243 160.636 43.3217 160.742 43.6664C160.848 44.0073 160.901 44.3842 160.901 44.7971V45.2119H156.247V44.6323H160.225V44.5528C160.217 44.2081 160.147 43.8861 160.014 43.5868C159.886 43.2838 159.693 43.0376 159.435 42.8482C159.177 42.6588 158.855 42.5641 158.469 42.5641C158.181 42.5641 157.916 42.6247 157.674 42.7459C157.435 42.8671 157.228 43.0414 157.054 43.2686C156.884 43.4921 156.751 43.7592 156.656 44.0698C156.566 44.3766 156.52 44.7176 156.52 45.0926V45.3369C156.52 45.6778 156.569 45.996 156.668 46.2915C156.77 46.5831 156.914 46.8407 157.1 47.0642C157.289 47.2877 157.513 47.462 157.77 47.587C158.028 47.712 158.312 47.7745 158.622 47.7745C158.986 47.7745 159.308 47.7082 159.588 47.5756C159.869 47.4392 160.121 47.2252 160.344 46.9335L160.77 47.2631C160.638 47.4601 160.471 47.6419 160.27 47.8086C160.073 47.9752 159.836 48.1078 159.56 48.2063C159.283 48.3048 158.961 48.354 158.594 48.354Z" fill="black"/>
<path d="M162.918 43.405V48.2404H162.242V42.0925H162.89L162.918 43.405ZM162.765 44.7857L162.463 44.6153C162.486 44.2516 162.56 43.9107 162.685 43.5925C162.81 43.2743 162.979 42.994 163.191 42.7516C163.407 42.5092 163.659 42.3198 163.946 42.1834C164.238 42.047 164.56 41.9788 164.912 41.9788C165.219 41.9788 165.494 42.0205 165.736 42.1038C165.979 42.1872 166.185 42.3198 166.356 42.5016C166.526 42.6834 166.655 42.9164 166.742 43.2005C166.833 43.4846 166.878 43.8312 166.878 44.2403V48.2404H166.197V44.2346C166.197 43.8103 166.138 43.4789 166.02 43.2402C165.903 42.9978 165.736 42.8254 165.52 42.7232C165.304 42.6209 165.049 42.5698 164.753 42.5698C164.428 42.5698 164.142 42.6417 163.895 42.7857C163.653 42.9258 163.448 43.1095 163.282 43.3368C163.119 43.5603 162.994 43.8009 162.907 44.0584C162.82 44.3122 162.772 44.5547 162.765 44.7857Z" fill="black"/>
<path d="M170.964 42.0925V42.6493H167.884V42.0925H170.964ZM169.015 40.5129H169.691V46.746C169.691 47.0301 169.729 47.2442 169.805 47.3881C169.88 47.532 169.979 47.6286 170.1 47.6779C170.221 47.7271 170.352 47.7517 170.492 47.7517C170.594 47.7517 170.693 47.7461 170.788 47.7347C170.882 47.7195 170.967 47.7044 171.043 47.6892L171.072 48.2631C170.988 48.2896 170.88 48.3105 170.748 48.3256C170.615 48.3446 170.483 48.354 170.35 48.354C170.089 48.354 169.858 48.3067 169.657 48.212C169.456 48.1135 169.299 47.9468 169.185 47.712C169.072 47.4733 169.015 47.1495 169.015 46.7403V40.5129Z" fill="black"/>
<path d="M180.072 46.2062C180.072 45.979 180.034 45.7763 179.958 45.5983C179.883 45.4202 179.758 45.2611 179.583 45.121C179.413 44.977 179.182 44.8445 178.89 44.7232C178.602 44.5982 178.242 44.4751 177.811 44.3539C177.398 44.2365 177.025 44.1077 176.691 43.9675C176.358 43.8274 176.072 43.6664 175.833 43.4846C175.598 43.3027 175.418 43.0906 175.293 42.8482C175.168 42.602 175.106 42.316 175.106 41.9902C175.106 41.672 175.174 41.3822 175.31 41.1208C175.447 40.8595 175.638 40.6341 175.884 40.4447C176.134 40.2553 176.428 40.1095 176.765 40.0072C177.106 39.9049 177.479 39.8538 177.884 39.8538C178.464 39.8538 178.964 39.9636 179.384 40.1833C179.809 40.403 180.136 40.7004 180.367 41.0754C180.602 41.4466 180.72 41.8633 180.72 42.3254H180.021C180.021 41.9656 179.936 41.6455 179.765 41.3652C179.598 41.0811 179.356 40.8595 179.038 40.7004C178.723 40.5375 178.339 40.4561 177.884 40.4561C177.43 40.4561 177.047 40.5261 176.737 40.6663C176.43 40.8027 176.197 40.9864 176.038 41.2174C175.882 41.4447 175.805 41.6985 175.805 41.9788C175.805 42.1758 175.843 42.3576 175.918 42.5243C175.994 42.6872 176.117 42.8406 176.288 42.9845C176.462 43.1247 176.691 43.2573 176.975 43.3823C177.259 43.5035 177.61 43.619 178.026 43.7289C178.466 43.8501 178.856 43.9846 179.197 44.1323C179.538 44.28 179.826 44.4505 180.061 44.6437C180.295 44.8331 180.473 45.0547 180.595 45.3085C180.716 45.5623 180.777 45.8577 180.777 46.1949C180.777 46.532 180.705 46.835 180.561 47.104C180.42 47.3692 180.222 47.5945 179.964 47.7802C179.71 47.9658 179.409 48.1078 179.061 48.2063C178.716 48.3048 178.339 48.354 177.93 48.354C177.562 48.354 177.197 48.3067 176.833 48.212C176.47 48.1173 176.136 47.9714 175.833 47.7745C175.534 47.5737 175.293 47.3161 175.112 47.0017C174.934 46.6873 174.845 46.3123 174.845 45.8767H175.538C175.538 46.2252 175.608 46.5187 175.748 46.7574C175.888 46.996 176.074 47.1892 176.305 47.337C176.54 47.4847 176.797 47.5926 177.078 47.6608C177.362 47.7252 177.646 47.7574 177.93 47.7574C178.365 47.7574 178.742 47.693 179.061 47.5642C179.383 47.4354 179.631 47.2555 179.805 47.0244C179.983 46.7896 180.072 46.5169 180.072 46.2062Z" fill="black"/>
<path d="M181.754 45.263V45.0755C181.754 44.6285 181.818 44.2156 181.947 43.8368C182.076 43.458 182.26 43.1304 182.498 42.8539C182.741 42.5773 183.03 42.3633 183.368 42.2118C183.705 42.0565 184.08 41.9788 184.493 41.9788C184.909 41.9788 185.286 42.0565 185.623 42.2118C185.96 42.3633 186.25 42.5773 186.493 42.8539C186.735 43.1304 186.921 43.458 187.049 43.8368C187.178 44.2156 187.243 44.6285 187.243 45.0755V45.263C187.243 45.71 187.178 46.1229 187.049 46.5017C186.921 46.8767 186.735 47.2025 186.493 47.479C186.254 47.7555 185.966 47.9714 185.629 48.1268C185.292 48.2783 184.917 48.354 184.504 48.354C184.087 48.354 183.71 48.2783 183.373 48.1268C183.036 47.9714 182.746 47.7555 182.504 47.479C182.261 47.2025 182.076 46.8767 181.947 46.5017C181.818 46.1229 181.754 45.71 181.754 45.263ZM182.43 45.0755V45.263C182.43 45.6002 182.475 45.9202 182.566 46.2233C182.657 46.5225 182.79 46.7896 182.964 47.0244C183.138 47.2555 183.354 47.4373 183.612 47.5699C183.869 47.7025 184.167 47.7688 184.504 47.7688C184.837 47.7688 185.131 47.7025 185.385 47.5699C185.642 47.4373 185.858 47.2555 186.032 47.0244C186.207 46.7896 186.337 46.5225 186.424 46.2233C186.515 45.9202 186.561 45.6002 186.561 45.263V45.0755C186.561 44.7422 186.515 44.4259 186.424 44.1266C186.337 43.8274 186.205 43.5603 186.027 43.3255C185.852 43.0906 185.637 42.905 185.379 42.7686C185.121 42.6323 184.826 42.5641 184.493 42.5641C184.159 42.5641 183.864 42.6323 183.606 42.7686C183.352 42.905 183.136 43.0906 182.958 43.3255C182.784 43.5603 182.652 43.8274 182.561 44.1266C182.474 44.4259 182.43 44.7422 182.43 45.0755Z" fill="black"/>
<path d="M189.407 39.5128V48.2404H188.731V39.5128H189.407Z" fill="black"/>
<path d="M195.203 46.8199V42.0925H195.885V48.2404H195.232L195.203 46.8199ZM195.328 45.6835L195.68 45.6721C195.68 46.0585 195.635 46.4146 195.544 46.7403C195.453 47.0661 195.311 47.3502 195.118 47.5926C194.925 47.8351 194.675 48.0226 194.368 48.1552C194.061 48.2877 193.692 48.354 193.26 48.354C192.961 48.354 192.686 48.3124 192.436 48.229C192.19 48.1419 191.978 48.0055 191.8 47.8199C191.622 47.6343 191.483 47.3938 191.385 47.0983C191.29 46.8028 191.243 46.4449 191.243 46.0244V42.0925H191.919V46.0358C191.919 46.3653 191.955 46.64 192.027 46.8597C192.103 47.0794 192.205 47.2555 192.334 47.3881C192.466 47.5207 192.618 47.6154 192.788 47.6722C192.959 47.729 193.142 47.7574 193.339 47.7574C193.839 47.7574 194.233 47.6608 194.521 47.4676C194.813 47.2745 195.019 47.0207 195.141 46.7063C195.266 46.3881 195.328 46.0471 195.328 45.6835Z" fill="black"/>
<path d="M199.987 42.0925V42.6493H196.908V42.0925H199.987ZM198.038 40.5129H198.715V46.746C198.715 47.0301 198.752 47.2442 198.828 47.3881C198.904 47.532 199.003 47.6286 199.124 47.6779C199.245 47.7271 199.376 47.7517 199.516 47.7517C199.618 47.7517 199.717 47.7461 199.811 47.7347C199.906 47.7195 199.991 47.7044 200.067 47.6892L200.095 48.2631C200.012 48.2896 199.904 48.3105 199.771 48.3256C199.639 48.3446 199.506 48.354 199.374 48.354C199.112 48.354 198.881 48.3067 198.681 48.212C198.48 48.1135 198.323 47.9468 198.209 47.712C198.095 47.4733 198.038 47.1495 198.038 46.7403V40.5129Z" fill="black"/>
<path d="M202.169 42.0925V48.2404H201.493V42.0925H202.169ZM201.374 40.314C201.374 40.1852 201.414 40.0773 201.493 39.9901C201.576 39.8992 201.69 39.8538 201.834 39.8538C201.978 39.8538 202.092 39.8992 202.175 39.9901C202.262 40.0773 202.306 40.1852 202.306 40.314C202.306 40.439 202.262 40.547 202.175 40.6379C202.092 40.725 201.978 40.7686 201.834 40.7686C201.69 40.7686 201.576 40.725 201.493 40.6379C201.414 40.547 201.374 40.439 201.374 40.314Z" fill="black"/>
<path d="M203.652 45.263V45.0755C203.652 44.6285 203.717 44.2156 203.845 43.8368C203.974 43.458 204.158 43.1304 204.397 42.8539C204.639 42.5773 204.929 42.3633 205.266 42.2118C205.603 42.0565 205.978 41.9788 206.391 41.9788C206.808 41.9788 207.185 42.0565 207.522 42.2118C207.859 42.3633 208.149 42.5773 208.391 42.8539C208.633 43.1304 208.819 43.458 208.948 43.8368C209.077 44.2156 209.141 44.6285 209.141 45.0755V45.263C209.141 45.71 209.077 46.1229 208.948 46.5017C208.819 46.8767 208.633 47.2025 208.391 47.479C208.152 47.7555 207.865 47.9714 207.527 48.1268C207.19 48.2783 206.815 48.354 206.402 48.354C205.986 48.354 205.609 48.2783 205.272 48.1268C204.935 47.9714 204.645 47.7555 204.402 47.479C204.16 47.2025 203.974 46.8767 203.845 46.5017C203.717 46.1229 203.652 45.71 203.652 45.263ZM204.328 45.0755V45.263C204.328 45.6002 204.374 45.9202 204.465 46.2233C204.556 46.5225 204.688 46.7896 204.863 47.0244C205.037 47.2555 205.253 47.4373 205.51 47.5699C205.768 47.7025 206.065 47.7688 206.402 47.7688C206.736 47.7688 207.029 47.7025 207.283 47.5699C207.541 47.4373 207.757 47.2555 207.931 47.0244C208.105 46.7896 208.236 46.5225 208.323 46.2233C208.414 45.9202 208.459 45.6002 208.459 45.263V45.0755C208.459 44.7422 208.414 44.4259 208.323 44.1266C208.236 43.8274 208.103 43.5603 207.925 43.3255C207.751 43.0906 207.535 42.905 207.277 42.7686C207.02 42.6323 206.724 42.5641 206.391 42.5641C206.058 42.5641 205.762 42.6323 205.505 42.7686C205.251 42.905 205.035 43.0906 204.857 43.3255C204.683 43.5603 204.55 43.8274 204.459 44.1266C204.372 44.4259 204.328 44.7422 204.328 45.0755Z" fill="black"/>
<path d="M211.226 43.405V48.2404H210.55V42.0925H211.198L211.226 43.405ZM211.073 44.7857L210.772 44.6153C210.795 44.2516 210.868 43.9107 210.993 43.5925C211.118 43.2743 211.287 42.994 211.499 42.7516C211.715 42.5092 211.967 42.3198 212.255 42.1834C212.546 42.047 212.868 41.9788 213.221 41.9788C213.528 41.9788 213.802 42.0205 214.045 42.1038C214.287 42.1872 214.494 42.3198 214.664 42.5016C214.834 42.6834 214.963 42.9164 215.05 43.2005C215.141 43.4846 215.187 43.8312 215.187 44.2403V48.2404H214.505V44.2346C214.505 43.8103 214.446 43.4789 214.329 43.2402C214.211 42.9978 214.045 42.8254 213.829 42.7232C213.613 42.6209 213.357 42.5698 213.062 42.5698C212.736 42.5698 212.45 42.6417 212.204 42.7857C211.961 42.9258 211.757 43.1095 211.59 43.3368C211.427 43.5603 211.302 43.8009 211.215 44.0584C211.128 44.3122 211.081 44.5547 211.073 44.7857Z" fill="black"/>
<path d="M0 35.5072V4.07346H19.9706V8.37385H4.53682V17.1927H17.3658V21.493H4.53682V31.2069H19.9706V35.5072H0ZM31.5223 35.5072L23.0131 11.9319H27.5933L33.8232 29.788L40.0533 11.9319H44.6335L36.1242 35.5072H31.5223ZM58.0943 36.162C55.7645 36.162 53.7167 35.6527 51.9512 34.6341C50.2002 33.6008 48.8327 32.1674 47.8485 30.3337C46.879 28.4856 46.3942 26.3463 46.3942 23.916C46.3942 21.3402 46.8717 19.1064 47.8268 17.2145C48.7964 15.3226 50.1423 13.8601 51.8644 12.8269C53.5864 11.7936 55.5907 11.277 57.8773 11.277C60.2651 11.277 62.2983 11.8373 63.977 12.9579C65.6557 14.0638 66.9075 15.6429 67.7324 17.6948C68.5717 19.7466 68.9046 22.1843 68.731 25.0075H64.1941V23.3485C64.1652 20.6125 63.6442 18.5897 62.6312 17.28C61.6326 15.9702 60.106 15.3154 58.051 15.3154C55.7789 15.3154 54.0713 16.0358 52.928 17.4764C51.7847 18.9172 51.2132 20.9982 51.2132 23.7195C51.2132 26.3098 51.7847 28.3181 52.928 29.7444C54.0713 31.156 55.721 31.8618 57.8773 31.8618C59.2954 31.8618 60.5184 31.5415 61.5458 30.9013C62.5878 30.2464 63.3981 29.315 63.977 28.1071L68.4271 29.526C67.5153 31.6362 66.1333 33.2734 64.2809 34.4376C62.4286 35.5873 60.3664 36.162 58.0943 36.162ZM49.7371 25.0075V21.4493H66.4734V25.0075H49.7371ZM89.4192 35.5072V23.916C89.4192 22.9992 89.3397 22.0605 89.1804 21.1001C89.0358 20.1251 88.7464 19.2228 88.3122 18.3932C87.8925 17.5638 87.292 16.8944 86.5105 16.3851C85.7435 15.8756 84.7378 15.621 83.4932 15.621C82.6828 15.621 81.9157 15.7592 81.1922 16.0358C80.4687 16.2977 79.8319 16.727 79.282 17.3236C78.7465 17.9203 78.3197 18.7062 78.0012 19.6812C77.6973 20.6562 77.5454 21.8423 77.5454 23.2394L74.7235 22.1696C74.7235 20.0305 75.1214 18.1458 75.9174 16.516C76.7133 14.8715 77.8565 13.5909 79.3471 12.6741C80.8377 11.7573 82.6394 11.2989 84.7522 11.2989C86.373 11.2989 87.7334 11.5608 88.8331 12.0847C89.9329 12.6087 90.823 13.2998 91.5032 14.1584C92.1978 15.0025 92.726 15.9266 93.0877 16.9307C93.4496 17.9348 93.6956 18.9172 93.8258 19.8777C93.9561 20.8381 94.0212 21.6822 94.0212 22.4098V35.5072H89.4192ZM72.9434 35.5072V11.9319H77.0027V18.7425H77.5454V35.5072H72.9434ZM113.09 35.5072C111.614 35.7983 110.167 35.9219 108.749 35.8782C107.331 35.8345 106.064 35.5581 104.95 35.0488C103.836 34.5395 102.996 33.739 102.432 32.6475C101.926 31.6726 101.651 30.6829 101.607 29.6788C101.578 28.6601 101.564 27.5105 101.564 26.2299V5.3832H106.122V26.0116C106.122 26.9575 106.13 27.7798 106.144 28.4783C106.173 29.1767 106.325 29.7662 106.6 30.2464C107.121 31.1487 107.946 31.6653 109.075 31.7962C110.218 31.9127 111.556 31.8618 113.09 31.6434V35.5072ZM97.0704 15.5992V11.9319H113.09V15.5992H97.0704Z" fill="black"/>
<path d="M156.958 35.5072V4.07346H168.463C168.767 4.07346 169.078 4.08798 169.396 4.11714C169.715 4.13165 170.07 4.17533 170.46 4.24803C171.965 4.48093 173.268 5.03393 174.367 5.90705C175.482 6.76565 176.336 7.85714 176.929 9.18139C177.537 10.4911 177.841 11.9319 177.841 13.5035C177.841 15.0752 177.537 16.5232 176.929 17.8475C176.336 19.1572 175.482 20.2487 174.367 21.1218C173.268 21.9804 171.965 22.5262 170.46 22.7591C170.07 22.8173 169.715 22.8609 169.396 22.89C169.078 22.9191 168.767 22.9336 168.463 22.9336H158.781V35.5072H156.958ZM158.781 21.1001H168.463C168.71 21.1001 168.998 21.0854 169.332 21.0564C169.678 21.0272 170.027 20.9835 170.374 20.9254C171.574 20.6926 172.581 20.2123 173.391 19.4847C174.215 18.757 174.838 17.8766 175.257 16.8433C175.678 15.7957 175.887 14.6823 175.887 13.5035C175.887 12.3248 175.678 11.2188 175.257 10.1855C174.838 9.13772 174.215 8.25008 173.391 7.52238C172.581 6.7948 171.574 6.31451 170.374 6.08175C170.027 6.00891 169.678 5.96524 169.332 5.95072C168.998 5.92169 168.71 5.90705 168.463 5.90705H158.781V21.1001ZM182.185 35.5072V11.9319H183.878V17.5638L183.313 16.8216C183.559 16.1812 183.87 15.5845 184.246 15.0315C184.622 14.4785 184.992 14.0274 185.354 13.6783C185.991 13.0524 186.743 12.5795 187.612 12.2593C188.495 11.9246 189.377 11.7354 190.26 11.6917C191.142 11.6336 191.923 11.7136 192.605 11.9319V13.6783C191.635 13.4599 190.607 13.4235 189.521 13.569C188.436 13.7 187.423 14.2021 186.482 15.0752C185.658 15.8466 185.072 16.7342 184.724 17.7384C184.392 18.7425 184.189 19.7831 184.116 20.8599C184.044 21.9222 184.008 22.9336 184.008 23.8941V35.5072H182.185ZM205.724 36.162C203.408 36.162 201.454 35.6308 199.863 34.5685C198.271 33.5061 197.063 32.0364 196.237 30.1591C195.413 28.2817 195 26.1206 195 23.6759C195 21.2019 195.419 19.0336 196.259 17.1708C197.098 15.3081 198.314 13.8601 199.906 12.8269C201.513 11.7936 203.451 11.277 205.724 11.277C208.054 11.277 210.014 11.8081 211.607 12.8705C213.198 13.9183 214.399 15.3735 215.209 17.2363C216.035 19.099 216.448 21.2456 216.448 23.6759C216.448 26.1643 216.035 28.3473 215.209 30.2245C214.385 32.0873 213.169 33.5426 211.563 34.5904C209.971 35.6381 208.025 36.162 205.724 36.162ZM205.724 34.3283C208.676 34.3283 210.875 33.3461 212.322 31.3815C213.77 29.4024 214.494 26.8338 214.494 23.6759C214.494 20.4597 213.763 17.8984 212.301 15.992C210.853 14.0711 208.662 13.1106 205.724 13.1106C203.741 13.1106 202.099 13.5617 200.796 14.464C199.508 15.3663 198.546 16.6106 197.909 18.1968C197.272 19.7831 196.954 21.6094 196.954 23.6759C196.954 26.8774 197.692 29.4533 199.169 31.4033C200.659 33.3534 202.843 34.3283 205.724 34.3283Z" fill="black"/>
<path fill-rule="evenodd" clip-rule="evenodd" d="M145.185 23.6141L140.376 18.791C140.3 20.1545 139.749 21.5172 138.7 22.5596L135.989 25.2858L147.577 36.9387C147.577 30.0191 147.998 26.4821 145.223 23.6527L145.185 23.6141Z" fill="url(#paint0_linear_159_3971)"/>
<path fill-rule="evenodd" clip-rule="evenodd" d="M140.376 18.1476L145.185 13.3119C148.011 10.4694 147.577 6.94566 147.577 0.000228295L135.989 11.6401L138.7 14.3796C139.749 15.4215 140.3 16.7714 140.376 18.1476Z" fill="url(#paint1_linear_159_3971)"/>
<path fill-rule="evenodd" clip-rule="evenodd" d="M129.21 18.4695C132.856 20.7077 134.581 23.2281 133.468 25.0935L121.689 36.9389C121.689 32.7721 120.909 26.8037 124.081 23.6139L129.21 18.4695Z" fill="url(#paint2_linear_159_3971)"/>
<path fill-rule="evenodd" clip-rule="evenodd" d="M133.47 25.0934C134.134 23.4209 132.42 21.6979 129.21 18.4695L124.082 13.3116C121.255 10.4692 121.69 6.94542 121.69 0L137.344 15.7427C138.841 17.2347 138.841 19.6917 137.344 21.1962L133.47 25.0934Z" fill="url(#paint3_linear_159_3971)"/>
<path fill-rule="evenodd" clip-rule="evenodd" d="M140.376 18.1476L142.038 16.4761C141.706 15.2025 141.04 14.0065 140.056 13.0032L137.344 10.2764L135.989 11.6401L138.7 14.3796C139.749 15.4215 140.3 16.7714 140.376 18.1476Z" fill="url(#paint4_linear_159_3971)"/>
<path fill-rule="evenodd" clip-rule="evenodd" d="M138.7 22.5596L135.989 25.2858L137.344 26.6497L140.056 23.9231C141.042 22.9328 141.706 21.7367 142.039 20.4632L140.377 18.7916C140.3 20.1551 139.749 21.5172 138.7 22.5596Z" fill="url(#paint5_linear_159_3971)"/>
<path fill-rule="evenodd" clip-rule="evenodd" d="M129.21 18.4695C132.42 21.6979 134.134 23.421 133.468 25.0935C133.277 22.6881 131.001 21.3375 126.64 21.0414L129.21 18.4695Z" fill="url(#paint6_linear_159_3971)"/>
<path fill-rule="evenodd" clip-rule="evenodd" d="M126.64 21.0414C131.001 21.3375 133.277 22.688 133.47 25.0934C131.231 26.3534 128.749 27.0609 126.231 27.1767C126.64 25.1705 126.78 23.1128 126.64 21.0414Z" fill="url(#paint7_linear_159_3971)"/>
<path fill-rule="evenodd" clip-rule="evenodd" d="M126.638 21.0412C126.779 23.1127 126.638 25.1701 126.229 27.1767C124.9 27.2409 123.557 27.1383 122.239 26.8813C122.61 25.6337 123.186 24.5142 124.081 23.6139L126.64 21.0414L126.638 21.0412Z" fill="url(#paint8_linear_159_3971)"/>
<path fill-rule="evenodd" clip-rule="evenodd" d="M126.229 27.1767C128.749 27.0607 131.231 26.3538 133.468 25.0935L121.689 36.9389C123.965 34.0711 125.501 30.7144 126.229 27.1767Z" fill="url(#paint9_linear_159_3971)"/>
<path fill-rule="evenodd" clip-rule="evenodd" d="M133.468 25.0935C135.399 22.2255 135.106 18.1473 132.573 12.8613C135.195 14.1473 137.318 15.6784 138.176 17.0031C138.751 18.3922 138.47 20.0639 137.344 21.1962L133.468 25.0935Z" fill="url(#paint10_linear_159_3971)"/>
<path fill-rule="evenodd" clip-rule="evenodd" d="M138.175 17.0034C137.319 15.6786 135.195 14.1477 132.573 12.8613C131.908 11.4851 131.102 10.0319 130.143 8.48868L137.344 15.7427C137.715 16.1029 137.996 16.5404 138.175 17.0034Z" fill="url(#paint11_linear_159_3971)"/>
<path fill-rule="evenodd" clip-rule="evenodd" d="M132.573 12.8613C135.106 18.1473 135.399 22.2255 133.468 25.0935C134.133 23.4209 132.42 21.6979 129.21 18.4695L124.081 13.3118C123.122 12.347 122.533 11.3054 122.188 10.0708C125.488 10.1226 129.401 11.3183 132.573 12.8613Z" fill="url(#paint12_linear_159_3971)"/>
<defs>
<linearGradient id="paint0_linear_159_3971" x1="333.769" y1="25.3477" x2="-0.920648" y2="25.3477" gradientUnits="userSpaceOnUse">
<stop stop-color="#D58BDB"/>
<stop offset="0.3" stop-color="#C66ACB"/>
<stop offset="0.66" stop-color="#9D4AC5"/>
<stop offset="1" stop-color="#6416C2"/>
</linearGradient>
<linearGradient id="paint1_linear_159_3971" x1="333.737" y1="25.3468" x2="-0.92056" y2="25.3468" gradientUnits="userSpaceOnUse">
<stop stop-color="#D58BDB"/>
<stop offset="0.3" stop-color="#C66ACB"/>
<stop offset="0.66" stop-color="#9D4AC5"/>
<stop offset="1" stop-color="#6416C2"/>
</linearGradient>
<linearGradient id="paint2_linear_159_3971" x1="333.32" y1="25.3486" x2="-10.2203" y2="25.3486" gradientUnits="userSpaceOnUse">
<stop stop-color="#662D80"/>
<stop offset="0.49" stop-color="#C10067"/>
<stop offset="1" stop-color="#FF644B"/>
</linearGradient>
<linearGradient id="paint3_linear_159_3971" x1="108.221" y1="51.2779" x2="108.221" y2="0.402841" gradientUnits="userSpaceOnUse">
<stop stop-color="#C41F1B"/>
<stop offset="0.33" stop-color="#D36D1D"/>
<stop offset="0.66" stop-color="#DBA21D"/>
<stop offset="1" stop-color="#E2DD86"/>
</linearGradient>
<linearGradient id="paint4_linear_159_3971" x1="904.984" y1="25.3463" x2="-4.75758" y2="25.3463" gradientUnits="userSpaceOnUse">
<stop stop-color="#D58BDB"/>
<stop offset="0.3" stop-color="#C66ACB"/>
<stop offset="0.66" stop-color="#9D4AC5"/>
<stop offset="1" stop-color="#6416C2"/>
</linearGradient>
<linearGradient id="paint5_linear_159_3971" x1="904.795" y1="25.3463" x2="-4.75658" y2="25.3463" gradientUnits="userSpaceOnUse">
<stop stop-color="#D58BDB"/>
<stop offset="0.3" stop-color="#C66ACB"/>
<stop offset="0.66" stop-color="#9D4AC5"/>
<stop offset="1" stop-color="#6416C2"/>
</linearGradient>
<linearGradient id="paint6_linear_159_3971" x1="275.014" y1="25.3475" x2="-433.456" y2="25.3475" gradientUnits="userSpaceOnUse">
<stop stop-color="#662D80"/>
<stop offset="0.49" stop-color="#C10067"/>
<stop offset="1" stop-color="#FF644B"/>
</linearGradient>
<linearGradient id="paint7_linear_159_3971" x1="423.354" y1="25.348" x2="-331.785" y2="25.348" gradientUnits="userSpaceOnUse">
<stop stop-color="#662D80"/>
<stop offset="0.49" stop-color="#C10067"/>
<stop offset="1" stop-color="#FF644B"/>
</linearGradient>
<linearGradient id="paint8_linear_159_3971" x1="882.41" y1="25.349" x2="-107.538" y2="25.349" gradientUnits="userSpaceOnUse">
<stop stop-color="#662D80"/>
<stop offset="0.49" stop-color="#C10067"/>
<stop offset="1" stop-color="#FF644B"/>
</linearGradient>
<linearGradient id="paint9_linear_159_3971" x1="343.63" y1="25.3478" x2="-58.349" y2="25.3478" gradientUnits="userSpaceOnUse">
<stop stop-color="#662D80"/>
<stop offset="0.49" stop-color="#C10067"/>
<stop offset="1" stop-color="#FF644B"/>
</linearGradient>
<linearGradient id="paint10_linear_159_3971" x1="108.223" y1="51.8908" x2="108.223" y2="-107.239" gradientUnits="userSpaceOnUse">
<stop stop-color="#C41F1B"/>
<stop offset="0.33" stop-color="#D36D1D"/>
<stop offset="0.66" stop-color="#DBA21D"/>
<stop offset="1" stop-color="#E2DD86"/>
</linearGradient>
<linearGradient id="paint11_linear_159_3971" x1="108.241" y1="100.581" x2="108.241" y2="-97.127" gradientUnits="userSpaceOnUse">
<stop stop-color="#C41F1B"/>
<stop offset="0.33" stop-color="#D36D1D"/>
<stop offset="0.66" stop-color="#DBA21D"/>
<stop offset="1" stop-color="#E2DD86"/>
</linearGradient>
<linearGradient id="paint12_linear_159_3971" x1="128.456" y1="25.3818" x2="128.456" y2="-3.36751" gradientUnits="userSpaceOnUse">
<stop stop-color="#C41F1B"/>
<stop offset="0.33" stop-color="#D36D1D"/>
<stop offset="0.66" stop-color="#DBA21D"/>
<stop offset="1" stop-color="#E2DD86"/>
</linearGradient>
</defs>
</svg>
