<svg width="500" height="501" viewBox="0 0 500 501" fill="none" xmlns="http://www.w3.org/2000/svg">
<g clip-path="url(#clip0_49_2550)">
<path opacity="0.01" d="M341.481 179.958L426.798 130.091L346.618 83.628L261.3 133.495L341.481 179.958Z" fill="#3A2EC3"/>
<path opacity="0.01" d="M352.581 346.458L437.898 296.591L357.718 250.128L272.4 299.995L352.581 346.458Z" fill="#3A2EC3"/>
<path opacity="0.01" d="M261.3 255.595L175.663 205.97L93.869 253.777L179.506 303.402L261.3 255.595Z" fill="#3A2EC3"/>
<path opacity="0.01" d="M343.201 46.204L260.866 -1.50702L178.646 46.549L260.981 94.26L343.201 46.204Z" fill="#3A2EC3"/>
<path opacity="0.01" d="M347.958 -21.982L265.623 -69.693L183.403 -21.637L265.738 26.075L347.958 -21.982Z" fill="#3A2EC3"/>
<path opacity="0.01" d="M259.686 288.022L345.364 337.67L427.158 289.863L341.481 240.215L259.686 288.022Z" fill="#3A2EC3"/>
<path opacity="0.01" d="M258.101 324.493L343.778 374.142L425.572 326.334L339.895 276.686L258.101 324.493Z" fill="#3A2EC3"/>
<path opacity="0.01" d="M259.686 150.065L179.506 103.602L97.327 151.634L177.508 198.097L259.686 150.065Z" fill="#3A2EC3"/>
<path opacity="0.01" d="M263.186 385.702L342.171 431.472L424.35 383.441L345.364 337.67L263.186 385.702Z" fill="#3A2EC3"/>
<path opacity="0.01" d="M97.327 289.591L14.791 337.832L94.972 384.295L177.508 336.054L97.327 289.591Z" fill="#3A2EC3"/>
<g opacity="0.13">
<path d="M45.838 164.102C45.838 164.102 152.182 225.603 258.525 287.103C364.762 348.788 470.998 410.473 470.998 410.473C470.998 410.473 364.654 348.973 258.311 287.472C152.074 225.786 45.838 164.102 45.838 164.102Z" fill="#3E66DF"/>
</g>
<g opacity="0.13">
<path d="M28.335 423.243C28.335 423.243 134.34 361.161 240.346 299.079C346.459 237.181 452.572 175.284 452.572 175.284C452.572 175.284 346.567 237.366 240.561 299.447C134.448 361.345 28.335 423.243 28.335 423.243Z" fill="#3E66DF"/>
</g>
<g opacity="0.13">
<path d="M84.7949 489.968C84.7949 489.968 190.8 427.886 296.805 365.805C402.918 303.907 509.031 242.01 509.031 242.01C509.031 242.01 403.026 304.092 297.021 366.174C190.908 428.07 84.7949 489.968 84.7949 489.968Z" fill="#3E66DF"/>
</g>
<g opacity="0.13">
<path d="M125.002 558.405C125.002 558.405 231.007 496.323 337.013 434.241C443.126 372.343 549.239 310.446 549.239 310.446C549.239 310.446 443.234 372.528 337.228 434.609C231.115 496.507 125.002 558.405 125.002 558.405Z" fill="#3E66DF"/>
</g>
<g opacity="0.13">
<path d="M-43.523 371.916C-43.523 371.916 62.482 309.834 168.488 247.753C274.601 185.855 380.714 123.958 380.714 123.958C380.714 123.958 274.708 186.038 168.703 248.12C62.59 310.018 -43.523 371.916 -43.523 371.916Z" fill="#3E66DF"/>
</g>
<g opacity="0.13">
<path d="M-58.921 281.237C-58.921 281.237 47.084 219.155 153.09 157.073C259.202 95.176 365.315 33.279 365.315 33.279C365.315 33.279 259.31 95.36 153.305 157.442C47.192 219.34 -58.921 281.237 -58.921 281.237Z" fill="#3E66DF"/>
</g>
<g opacity="0.13">
<path d="M-79.452 197.403C-79.452 197.403 26.553 135.321 132.559 73.24C238.672 11.342 344.784 -50.556 344.784 -50.556C344.784 -50.556 238.779 11.526 132.774 73.607C26.661 135.505 -79.452 197.403 -79.452 197.403Z" fill="#3E66DF"/>
</g>
<g opacity="0.13">
<path d="M92.032 95.665C92.032 95.665 198.376 157.165 304.719 218.666C410.956 280.351 517.192 342.036 517.192 342.036C517.192 342.036 410.848 280.536 304.505 219.035C198.269 157.35 92.032 95.665 92.032 95.665Z" fill="#3E66DF"/>
</g>
<g opacity="0.13">
<path d="M146.781 28.084C146.781 28.084 253.125 89.584 359.468 151.085C465.705 212.77 571.941 274.455 571.941 274.455C571.941 274.455 465.597 212.955 359.254 151.454C253.018 89.769 146.781 28.084 146.781 28.084Z" fill="#3E66DF"/>
</g>
<g opacity="0.13">
<path d="M193.831 -40.352C193.831 -40.352 300.175 21.148 406.518 82.649C512.755 144.334 618.991 206.019 618.991 206.019C618.991 206.019 512.648 144.518 406.305 83.018C300.068 21.333 193.831 -40.352 193.831 -40.352Z" fill="#3E66DF"/>
</g>
<g opacity="0.13">
<path d="M4.776 235.96C4.776 235.96 111.12 297.46 217.463 358.961C323.7 420.646 429.937 482.33 429.937 482.33C429.937 482.33 323.593 420.83 217.25 359.329C111.013 297.645 4.776 235.96 4.776 235.96Z" fill="#3E66DF"/>
</g>
<g opacity="0.13">
<path d="M-57.672 295.842C-57.672 295.842 48.672 357.342 155.015 418.843C261.252 480.528 367.488 542.213 367.488 542.213C367.488 542.213 261.144 480.713 154.801 419.212C48.565 357.526 -57.672 295.842 -57.672 295.842Z" fill="#3E66DF"/>
</g>
<path opacity="0.21" d="M428.5 20.39V206.349L200.5 341.39V155.431L428.5 20.39Z" stroke="#62A1FF" stroke-miterlimit="10"/>
<path opacity="0.21" d="M251.5 224.39V367.48L78.5 471.39V328.3L251.5 224.39Z" stroke="#62A1FF" stroke-miterlimit="10"/>
<path opacity="0.21" d="M206.5 60.39V203.48L33.5 307.39V164.3L206.5 60.39Z" stroke="#62A1FF" stroke-miterlimit="10"/>
<path opacity="0.1" d="M286.033 69.421L91.203 182.322C89.11 183.535 87.818 185.768 87.81 188.187L87.714 216.982L87.194 373.599C87.182 377.099 90.963 379.3 94.001 377.561L287.458 266.828C289.755 265.513 291.176 263.072 291.185 260.426L291.723 98.371L291.808 72.763C291.819 69.792 288.603 67.932 286.033 69.421Z" fill="#3A2EC3"/>
<path opacity="0.2" d="M302.033 81.421L107.203 194.322C105.11 195.535 103.818 197.768 103.81 200.187L103.714 228.982L103.194 385.599C103.182 389.099 106.963 391.3 110.001 389.561L303.458 278.828C305.755 277.513 307.176 275.072 307.185 272.426L307.723 110.371L307.808 84.763C307.819 81.792 304.603 79.932 302.033 81.421Z" fill="#3A2EC3"/>
<path opacity="0.36" d="M326.033 87.421L131.203 200.322C129.11 201.535 127.818 203.768 127.81 206.187L127.714 234.982L127.194 391.599C127.182 395.099 130.963 397.3 134.001 395.561L327.458 284.828C329.755 283.513 331.176 281.072 331.185 278.426L331.723 116.371L331.808 90.763C331.819 87.792 328.603 85.932 326.033 87.421Z" fill="#3A2EC3"/>
<path opacity="0.59" d="M343.033 94.421L148.203 207.322C146.11 208.535 144.818 210.768 144.81 213.187L144.714 241.982L144.194 398.599C144.182 402.099 147.963 404.3 151.001 402.561L344.458 291.828C346.755 290.513 348.176 288.072 348.185 285.426L348.723 123.371L348.808 97.763C348.819 94.792 345.603 92.932 343.033 94.421Z" fill="#3A2EC3"/>
<path d="M358.851 99.356L166.201 210.993C164.132 212.192 162.854 214.4 162.846 216.792L162.751 245.265L364.478 129.64L364.562 102.66C364.572 99.724 361.392 97.884 358.851 99.356Z" fill="#502BC6"/>
<path d="M162.717 245.253L162.203 400.117C162.191 403.578 165.93 405.754 168.934 404.035L360.226 294.542C362.497 293.242 363.902 290.828 363.911 288.211L364.443 129.628L162.717 245.253Z" fill="url(#paint0_linear_49_2550)"/>
<path d="M179.02 223.976C179.012 226.417 177.454 228.391 175.541 228.385C173.627 228.379 172.083 226.394 172.091 223.953C172.099 221.512 173.657 219.538 175.57 219.544C177.484 219.55 179.029 221.534 179.02 223.976Z" fill="url(#paint1_linear_49_2550)"/>
<path d="M189.075 218.393C189.067 220.835 187.509 222.809 185.596 222.802C183.683 222.796 182.138 220.811 182.146 218.37C182.154 215.929 183.712 213.955 185.626 213.961C187.538 213.968 189.083 215.952 189.075 218.393Z" fill="url(#paint2_linear_49_2550)"/>
<path d="M199.727 212.813C199.719 215.254 198.161 217.228 196.247 217.222C194.334 217.216 192.789 215.231 192.797 212.79C192.805 210.349 194.363 208.375 196.277 208.381C198.191 208.388 199.735 210.372 199.727 212.813Z" fill="url(#paint3_linear_49_2550)"/>
<path d="M219.374 252.406L219.031 355.943L351.998 279.373L352.425 151.022L264.212 201.785L264.128 227.027L219.374 252.406Z" stroke="url(#paint4_linear_49_2550)" stroke-width="0.6474" stroke-miterlimit="10"/>
<path d="M241.732 239.645L241.387 343.467" stroke="url(#paint5_linear_49_2550)" stroke-width="0.8557" stroke-miterlimit="10"/>
<path d="M264.164 227.027L263.82 330.706" stroke="url(#paint6_linear_49_2550)" stroke-width="0.8557" stroke-miterlimit="10"/>
<path d="M287.538 188.456L287.112 316.808" stroke="url(#paint7_linear_49_2550)" stroke-width="0.8557" stroke-miterlimit="10"/>
<path d="M309.541 176.265L309.117 304.045" stroke="url(#paint8_linear_49_2550)" stroke-width="0.8557" stroke-miterlimit="10"/>
<path d="M332.403 163.22L331.978 291.286" stroke="url(#paint9_linear_49_2550)" stroke-width="0.8557" stroke-miterlimit="10"/>
<path d="M219.752 330.845L352.921 254.561" stroke="url(#paint10_linear_49_2550)" stroke-width="0.8557" stroke-miterlimit="10"/>
<path d="M219.837 305.175L353.007 228.891" stroke="url(#paint11_linear_49_2550)" stroke-width="0.8557" stroke-miterlimit="10"/>
<path d="M219.925 278.649L353.095 202.365" stroke="url(#paint12_linear_49_2550)" stroke-width="0.8557" stroke-miterlimit="10"/>
<path d="M264.449 227.523L353.18 176.695" stroke="url(#paint13_linear_49_2550)" stroke-width="0.8557" stroke-miterlimit="10"/>
<path d="M203.737 261.618L175.873 276.716C174.788 277.304 173.469 276.516 173.473 275.282C173.475 274.687 173.801 274.142 174.324 273.858L202.188 258.76C203.273 258.172 204.592 258.96 204.588 260.194C204.586 260.788 204.259 261.334 203.737 261.618Z" fill="#502BC6"/>
<path d="M203.701 272.37L175.837 287.468C174.752 288.056 173.433 287.268 173.437 286.034C173.439 285.44 173.765 284.894 174.288 284.61L202.152 269.512C203.237 268.924 204.556 269.712 204.552 270.946C204.55 271.541 204.224 272.087 203.701 272.37Z" fill="#502BC6"/>
<path d="M203.665 283.123L175.801 298.221C174.716 298.809 173.397 298.021 173.401 296.787C173.403 296.193 173.729 295.647 174.252 295.364L202.116 280.266C203.201 279.678 204.52 280.466 204.516 281.7C204.514 282.294 204.188 282.84 203.665 283.123Z" fill="#502BC6"/>
<path d="M203.626 294.832L175.762 309.93C174.677 310.518 173.358 309.73 173.362 308.496C173.364 307.901 173.69 307.356 174.213 307.072L202.077 291.974C203.162 291.386 204.481 292.174 204.477 293.408C204.475 294.003 204.149 294.549 203.626 294.832Z" fill="#502BC6"/>
<path d="M203.585 307.257L175.721 322.355C174.636 322.943 173.317 322.155 173.321 320.921C173.323 320.326 173.649 319.781 174.172 319.497L202.036 304.399C203.121 303.811 204.44 304.599 204.436 305.833C204.434 306.428 204.108 306.974 203.585 307.257Z" fill="#502BC6"/>
<path d="M203.546 319.205L175.682 334.303C174.597 334.891 173.278 334.103 173.283 332.869C173.285 332.275 173.611 331.729 174.134 331.445L201.998 316.347C203.083 315.759 204.402 316.547 204.398 317.781C204.395 318.376 204.068 318.922 203.546 319.205Z" fill="#502BC6"/>
<path opacity="0.07" d="M263.547 253.199L264.051 287.381C264.061 288.373 265.228 288.976 266.075 288.459L287.411 275.273C287.953 274.943 288 274.354 288 273.72V238.464L263.547 253.199Z" fill="#3A2EC3"/>
<path opacity="0.19" d="M267.489 253.199L267.964 287.381C267.974 288.373 269.127 288.976 269.974 288.459L291.36 275.273C291.902 274.943 292 274.354 292 273.72V238.464L267.489 253.199Z" fill="#3A2EC3"/>
<path opacity="0.3" d="M270.608 253.199L271.142 287.381C271.152 288.373 272.335 288.976 273.181 288.459L294.464 275.273C295.006 274.943 295 274.354 295 273.72V238.464L270.608 253.199Z" fill="#3A2EC3"/>
<path opacity="0.48" d="M274.55 253.199L275.055 287.381C275.065 288.373 276.233 288.976 277.08 288.459L298.413 275.273C298.955 274.943 299 274.354 299 273.72V238.464L274.55 253.199Z" fill="#3A2EC3"/>
<path opacity="0.95" d="M277.142 254.062L277.484 288.244C277.494 289.236 278.581 289.839 279.427 289.322L301.046 276.136C301.588 275.806 301.918 275.217 301.918 274.583V239.327L277.142 254.062Z" fill="#3A2EC3"/>
<mask id="mask0_49_2550" style="mask-type:luminance" maskUnits="userSpaceOnUse" x="277" y="239" width="25" height="51">
<path d="M277.142 254.062L277.484 288.244C277.494 289.236 278.581 289.839 279.427 289.322L301.046 276.136C301.588 275.806 301.918 275.217 301.918 274.583V239.327L277.142 254.062Z" fill="white"/>
</mask>
<g mask="url(#mask0_49_2550)">
<path d="M304.531 236.961L275.427 252.744C274.697 253.14 274.242 253.905 274.244 254.735L274.259 263.423L306.665 244.212V238.232C306.665 237.136 305.494 236.439 304.531 236.961Z" fill="url(#paint14_linear_49_2550)"/>
</g>
<path d="M287.93 278.438L286.338 278.47L286.108 266.847C285.733 267.273 285.239 267.702 284.625 268.133C284.011 268.564 283.459 268.889 282.968 269.109L282.933 267.346C283.814 266.849 284.581 266.252 285.233 265.557C285.885 264.862 286.344 264.19 286.609 263.543L287.635 263.523L287.93 278.438Z" fill="url(#paint15_linear_49_2550)"/>
<path d="M292.602 266.825C291.96 266.595 291.47 266.234 291.133 265.744C290.796 265.254 290.6 264.652 290.547 263.938C290.467 262.86 290.72 261.93 291.304 261.148C291.888 260.366 292.71 259.936 293.77 259.858C294.836 259.779 295.721 260.092 296.426 260.795C297.131 261.498 297.523 262.389 297.603 263.467C297.654 264.154 297.55 264.763 297.29 265.294C297.031 265.825 296.609 266.251 296.024 266.571C296.795 266.812 297.401 267.248 297.841 267.88C298.281 268.512 298.535 269.286 298.603 270.202C298.697 271.469 298.406 272.561 297.732 273.478C297.058 274.395 296.118 274.898 294.914 274.987C293.71 275.076 292.706 274.715 291.904 273.903C291.102 273.092 290.653 272.039 290.557 270.745C290.486 269.781 290.627 268.96 290.982 268.28C291.335 267.601 291.876 267.115 292.602 266.825ZM292.097 270.643C292.135 271.162 292.274 271.656 292.512 272.127C292.75 272.597 293.079 272.951 293.499 273.187C293.918 273.424 294.358 273.525 294.819 273.491C295.535 273.438 296.105 273.115 296.53 272.521C296.955 271.927 297.135 271.199 297.072 270.337C297.007 269.461 296.714 268.754 296.191 268.217C295.669 267.68 295.047 267.438 294.325 267.491C293.62 267.543 293.057 267.869 292.635 268.469C292.214 269.069 292.035 269.794 292.097 270.643ZM292.075 263.764C292.127 264.465 292.355 265.024 292.76 265.441C293.165 265.858 293.664 266.045 294.258 266.001C294.835 265.958 295.292 265.703 295.629 265.234C295.965 264.765 296.11 264.211 296.063 263.571C296.014 262.904 295.782 262.357 295.368 261.93C294.954 261.503 294.464 261.311 293.898 261.353C293.326 261.395 292.868 261.653 292.524 262.125C292.178 262.598 292.029 263.144 292.075 263.764Z" fill="url(#paint16_linear_49_2550)"/>
<path opacity="0.18" d="M367.251 239.905L349.448 250.101L347.344 248.887L340.709 252.205L340.223 279.638L367.818 264.182L367.251 239.905Z" fill="#3A2EC3"/>
<path opacity="0.11" d="M363.367 239.257L345.564 249.454L343.46 248.24L336.824 251.558L336.339 278.99L363.933 263.534L363.367 239.257Z" fill="#3A2EC3"/>
<path opacity="0.36" d="M370.488 240.552L352.685 250.749L350.581 249.535L343.945 252.852L343.46 280.285L371.054 264.829L370.488 240.552Z" fill="#3A2EC3"/>
<path opacity="0.48" d="M373.077 240.552L355.275 250.749L353.171 249.535L346.535 252.852L346.049 280.285L373.644 264.829L373.077 240.552Z" fill="#3A2EC3"/>
<path d="M348 253.662V279.881C350 282.686 352.003 280.564 352.003 280.564L352.064 280.391H352.116L352.348 258.81L377.664 244.656L375.373 245.461C375.373 245.461 375.001 245.462 375.001 245.46V245.458C375.001 245.458 374.997 245.455 374.888 245.453L374.456 241.254L356.49 251.612L354.457 250.533L348 253.662ZM372.403 245.138C372.605 245.289 373.269 245.369 373.937 245.412C373.206 245.369 372.605 245.289 372.403 245.138Z" fill="#957C2B"/>
<path d="M376.495 241.281C376.414 241.524 376.545 264.627 376.545 264.627L349 280.123V256.898L376.495 241.281Z" fill="#EDDCFD"/>
<path d="M377.642 241.928C377.561 242.171 377.618 265.274 377.618 265.274L350 280.771V257.546L377.642 241.928Z" fill="#E8E0F0"/>
<path d="M375.1 245.457C375.104 245.457 375.107 245.457 375.111 245.457L375.101 245.461L375.1 245.457Z" fill="#3E66DF"/>
<path d="M377.626 244.658L379.632 243.897L379.201 265.422L352.28 280.568L352.12 280.4L352.334 258.814L377.626 244.658Z" fill="#3E66DF"/>
<path d="M349.823 281.614C351.282 281.602 352.48 280.444 352.517 280.402L352.699 258.865L379.642 243.91L378.781 243.83L352.079 258.669L351.876 280.313C351.658 280.52 350.575 281.058 349.834 281.002C349.241 280.96 348.508 280.645 347.999 279.881C348.282 280.813 349.018 281.558 349.823 281.614C349.873 281.617 349.775 281.614 349.823 281.614Z" fill="#428BC1"/>
<path opacity="0.18" d="M320.874 313.41L287.501 332.523L283.557 330.248L271.118 336.468L270.207 387.893L321.936 358.919L320.874 313.41Z" fill="#3A2EC3"/>
<path opacity="0.11" d="M313.593 312.196L280.219 331.31L276.275 329.034L263.836 335.254L262.926 386.679L314.655 357.705L313.593 312.196Z" fill="#3A2EC3"/>
<path opacity="0.36" d="M326.942 314.623L293.569 333.737L289.625 331.462L277.185 337.681L276.275 389.106L328.004 360.132L326.942 314.623Z" fill="#3A2EC3"/>
<path opacity="0.48" d="M331.796 314.623L298.423 333.737L294.479 331.462L282.04 337.681L281.13 389.106L332.858 360.132L331.796 314.623Z" fill="#3A2EC3"/>
<path d="M286 339.198V388.348C289 393.607 292.896 389.637 292.896 389.637L292.708 389.321L290.54 387.134L292.578 389.321L292.974 348.856L340.412 322.319L336.408 323.826C336.408 323.826 336.001 323.826 336.001 323.823V323.818C336.001 323.816 335.693 323.812 335.49 323.809L334.53 315.938L300.777 335.355L297.536 333.332L286 339.198ZM330.533 323.219C330.911 323.503 332.157 323.653 333.409 323.733C332.038 323.653 330.911 323.503 330.533 323.219Z" fill="#957C2B"/>
<path d="M338.872 315.988C338.72 316.443 339.3 359.753 339.3 359.753L288 388.803V345.266L338.872 315.988Z" fill="#EDDCFD"/>
<path d="M340.586 317.202C340.434 317.657 340.657 360.967 340.657 360.967L289 390.017V346.48L340.586 317.202Z" fill="#E8E0F0"/>
<path d="M335.588 323.818C335.595 323.818 335.601 323.818 335.609 323.818L335.589 323.826L335.588 323.818Z" fill="#3E66DF"/>
<path d="M340.323 322.319L344.084 320.893L343.275 361.245L292.81 389.637L292.51 389.321L292.911 348.856L340.323 322.319Z" fill="#3E66DF"/>
<path d="M289.271 391.662C291.447 391.662 293.196 389.484 293.266 389.406L293.641 349.305L344.084 320.893L342.491 320.767L292.435 348.585L292.055 389.159C292.055 389.159 291.204 390.672 289.032 390.797C287.919 390.861 286.86 389.844 285.959 388.164C286.032 390.188 287.488 391.549 288.998 391.653C289.089 391.658 289.181 391.662 289.271 391.662Z" fill="#428BC1"/>
<path d="M378 160.39V153.655L375 152.265L378 145.87V132.39L417 110.39V136.89L378 160.39Z" fill="url(#paint17_linear_49_2550)"/>
<path d="M412.567 122.225L385.119 138.065C384.05 138.682 382.711 137.929 382.682 136.696C382.668 136.102 382.98 135.547 383.494 135.25L410.943 119.41C412.012 118.793 413.351 119.546 413.38 120.779C413.394 121.373 413.082 121.928 412.567 122.225Z" fill="url(#paint18_linear_49_2550)"/>
<path d="M406.688 133.419L385.744 145.44C384.675 146.057 383.336 145.304 383.307 144.071C383.293 143.477 383.605 142.922 384.119 142.625L405.063 130.604C406.132 129.987 407.471 130.74 407.5 131.973C407.514 132.568 407.202 133.122 406.688 133.419Z" fill="url(#paint19_linear_49_2550)"/>
<path d="M151 282.89V291.915L155.02 293.778L151 302.347V356.41L99 385.89V314.38L151 282.89Z" fill="url(#paint20_linear_49_2550)"/>
<path d="M138.901 341.392L111.452 357.232C110.383 357.849 109.044 357.096 109.015 355.862C109.001 355.268 109.313 354.713 109.827 354.416L137.275 338.576C138.344 337.959 139.683 338.712 139.712 339.945C139.727 340.54 139.415 341.095 138.901 341.392Z" fill="#5F8ED5"/>
<path d="M133.021 352.586L112.077 364.607C111.008 365.224 109.669 364.471 109.64 363.237C109.626 362.643 109.938 362.088 110.452 361.791L131.396 349.77C132.465 349.153 133.804 349.906 133.833 351.14C133.847 351.734 133.536 352.289 133.021 352.586Z" fill="#5F8ED5"/>
<path d="M128.965 331.336C132.384 323.84 130.832 315.714 125.281 312.872C119.514 309.919 111.633 313.789 107.677 321.516C103.721 329.242 105.189 337.899 110.955 340.852C111.015 340.882 111.076 340.908 111.136 340.937C113.256 337.221 119.014 329.365 128.965 331.336ZM115.712 323.834C117.179 320.97 120.101 319.535 122.239 320.63C124.377 321.725 124.921 324.934 123.454 327.798C121.987 330.662 119.065 332.097 116.928 331.002C114.789 329.907 114.245 326.698 115.712 323.834Z" fill="url(#paint21_linear_49_2550)"/>
<path d="M111.136 340.937C116.885 343.719 124.644 339.855 128.559 332.208C128.707 331.919 128.832 331.627 128.965 331.336C119.014 329.365 113.256 337.221 111.136 340.937Z" fill="#62A1FF"/>
<path d="M116.927 331.002C119.065 332.097 121.987 330.662 123.453 327.798C124.92 324.934 124.376 321.724 122.238 320.63C120.1 319.535 117.178 320.97 115.711 323.834C114.245 326.698 114.789 329.907 116.927 331.002Z" fill="#62A1FF"/>
<path opacity="0.1" d="M401 158.39V176.39L324 220.057V202.39L401 158.39Z" fill="#3A2EC3"/>
<path opacity="0.2" d="M404 160.39V178.39L327 222.057V204.39L404 160.39Z" fill="#3A2EC3"/>
<path opacity="0.36" d="M407 161.39V179.39L330 223.057V205.39L407 161.39Z" fill="#3A2EC3"/>
<path opacity="0.59" d="M410 162.39V180.39L333 224.057V206.39L410 162.39Z" fill="#3A2EC3"/>
<path d="M412 163.39V181.39L335 225.057V207.39L412 163.39Z" fill="url(#paint22_linear_49_2550)"/>
<path d="M351.063 211.902C352.623 208.483 351.915 204.776 349.383 203.479C346.752 202.132 343.157 203.898 341.353 207.422C339.548 210.946 340.218 214.895 342.848 216.242C342.875 216.256 342.903 216.268 342.931 216.281C343.897 214.587 346.524 211.003 351.063 211.902ZM345.017 208.479C345.686 207.172 347.019 206.518 347.994 207.017C348.969 207.516 349.217 208.98 348.548 210.287C347.879 211.594 346.546 212.248 345.571 211.749C344.596 211.25 344.348 209.786 345.017 208.479Z" fill="url(#paint23_linear_49_2550)"/>
<path d="M342.93 216.281C345.553 217.55 349.092 215.787 350.878 212.299C350.945 212.167 351.002 212.034 351.063 211.901C346.524 211.003 343.897 214.587 342.93 216.281Z" fill="#62A1FF"/>
<path d="M345.572 211.749C346.547 212.248 347.88 211.594 348.549 210.287C349.218 208.98 348.97 207.516 347.995 207.017C347.02 206.518 345.687 207.172 345.018 208.479C344.348 209.786 344.596 211.25 345.572 211.749Z" fill="#62A1FF"/>
<path d="M407.234 178.058L359.952 205.232C358.883 205.849 357.544 205.096 357.515 203.863C357.501 203.269 357.813 202.714 358.327 202.417L405.609 175.243C406.678 174.626 408.017 175.379 408.046 176.613C408.06 177.207 407.749 177.761 407.234 178.058Z" fill="url(#paint24_linear_49_2550)"/>
<path d="M223 316.227L230.576 323.89L244.333 303.057" stroke="#7ADD7A" stroke-width="2" stroke-miterlimit="10"/>
<path d="M410 139.227L417.576 146.89L431.333 126.057" stroke="#7ADD7A" stroke-width="2" stroke-miterlimit="10"/>
<path d="M335 357.227L342.576 364.89L356.333 344.057" stroke="#7ADD7A" stroke-width="2" stroke-miterlimit="10"/>
<path d="M359.189 156.39L345.72 181.557" stroke="#CC4637" stroke-width="1.4178" stroke-miterlimit="10"/>
<path d="M345.484 163.834L360.016 173.995" stroke="#CC4637" stroke-width="1.4178" stroke-miterlimit="10"/>
<path d="M291.689 198.39L278.22 223.557" stroke="#CC4637" stroke-width="1.4178" stroke-miterlimit="10"/>
<path d="M277.984 205.834L292.516 215.995" stroke="#CC4637" stroke-width="1.4178" stroke-miterlimit="10"/>
<path d="M334.689 274.39L321.22 299.557" stroke="#CC4637" stroke-width="1.4178" stroke-miterlimit="10"/>
<path d="M320.984 281.834L335.516 291.995" stroke="#CC4637" stroke-width="1.4178" stroke-miterlimit="10"/>
</g>
<defs>
<linearGradient id="paint0_linear_49_2550" x1="162.203" y1="267.132" x2="364.443" y2="267.132" gradientUnits="userSpaceOnUse">
<stop stop-color="#428BC1"/>
<stop offset="0.9955" stop-color="#5F8ED5"/>
</linearGradient>
<linearGradient id="paint1_linear_49_2550" x1="173.466" y1="220.317" x2="177.645" y2="227.611" gradientUnits="userSpaceOnUse">
<stop stop-color="#5F8ED5"/>
<stop offset="0.9947" stop-color="#502BC6"/>
</linearGradient>
<linearGradient id="paint2_linear_49_2550" x1="183.521" y1="214.735" x2="187.7" y2="222.029" gradientUnits="userSpaceOnUse">
<stop stop-color="#5F8ED5"/>
<stop offset="0.9947" stop-color="#502BC6"/>
</linearGradient>
<linearGradient id="paint3_linear_49_2550" x1="194.173" y1="209.155" x2="198.352" y2="216.449" gradientUnits="userSpaceOnUse">
<stop stop-color="#5F8ED5"/>
<stop offset="0.9947" stop-color="#502BC6"/>
</linearGradient>
<linearGradient id="paint4_linear_49_2550" x1="257.853" y1="204.833" x2="313.602" y2="302.132" gradientUnits="userSpaceOnUse">
<stop stop-color="#5F8ED5"/>
<stop offset="0.9947" stop-color="#502BC6"/>
</linearGradient>
<linearGradient id="paint5_linear_49_2550" x1="219.104" y1="252.364" x2="264.015" y2="330.749" gradientUnits="userSpaceOnUse">
<stop stop-color="#5F8ED5"/>
<stop offset="0.9947" stop-color="#502BC6"/>
</linearGradient>
<linearGradient id="paint6_linear_49_2550" x1="241.568" y1="239.728" x2="286.418" y2="318.005" gradientUnits="userSpaceOnUse">
<stop stop-color="#5F8ED5"/>
<stop offset="0.9947" stop-color="#502BC6"/>
</linearGradient>
<linearGradient id="paint7_linear_49_2550" x1="259.59" y1="204.224" x2="315.062" y2="301.04" gradientUnits="userSpaceOnUse">
<stop stop-color="#5F8ED5"/>
<stop offset="0.9947" stop-color="#502BC6"/>
</linearGradient>
<linearGradient id="paint8_linear_49_2550" x1="281.717" y1="191.961" x2="336.945" y2="288.347" gradientUnits="userSpaceOnUse">
<stop stop-color="#5F8ED5"/>
<stop offset="0.9947" stop-color="#502BC6"/>
</linearGradient>
<linearGradient id="paint9_linear_49_2550" x1="304.515" y1="178.952" x2="359.863" y2="275.556" gradientUnits="userSpaceOnUse">
<stop stop-color="#5F8ED5"/>
<stop offset="0.9947" stop-color="#502BC6"/>
</linearGradient>
<linearGradient id="paint10_linear_49_2550" x1="286.12" y1="292.326" x2="286.553" y2="293.081" gradientUnits="userSpaceOnUse">
<stop stop-color="#5F8ED5"/>
<stop offset="0.9947" stop-color="#502BC6"/>
</linearGradient>
<linearGradient id="paint11_linear_49_2550" x1="286.206" y1="266.656" x2="286.638" y2="267.411" gradientUnits="userSpaceOnUse">
<stop stop-color="#5F8ED5"/>
<stop offset="0.9947" stop-color="#502BC6"/>
</linearGradient>
<linearGradient id="paint12_linear_49_2550" x1="286.294" y1="240.13" x2="286.726" y2="240.885" gradientUnits="userSpaceOnUse">
<stop stop-color="#5F8ED5"/>
<stop offset="0.9947" stop-color="#502BC6"/>
</linearGradient>
<linearGradient id="paint13_linear_49_2550" x1="308.599" y1="201.734" x2="309.029" y2="202.484" gradientUnits="userSpaceOnUse">
<stop stop-color="#5F8ED5"/>
<stop offset="0.9947" stop-color="#502BC6"/>
</linearGradient>
<linearGradient id="paint14_linear_49_2550" x1="274.244" y1="250.103" x2="306.665" y2="250.103" gradientUnits="userSpaceOnUse">
<stop stop-color="#502BC6"/>
<stop offset="0.9943" stop-color="#502BC6"/>
</linearGradient>
<linearGradient id="paint15_linear_49_2550" x1="282.933" y1="270.996" x2="287.93" y2="270.996" gradientUnits="userSpaceOnUse">
<stop stop-color="#5F8ED5"/>
<stop offset="0.9947" stop-color="#502BC6"/>
</linearGradient>
<linearGradient id="paint16_linear_49_2550" x1="290.533" y1="267.423" x2="298.619" y2="267.423" gradientUnits="userSpaceOnUse">
<stop stop-color="#5F8ED5"/>
<stop offset="0.9947" stop-color="#502BC6"/>
</linearGradient>
<linearGradient id="paint17_linear_49_2550" x1="375" y1="135.39" x2="417" y2="135.39" gradientUnits="userSpaceOnUse">
<stop stop-color="#66C6B7"/>
<stop offset="0.9955" stop-color="#88D9B0"/>
</linearGradient>
<linearGradient id="paint18_linear_49_2550" x1="382.479" y1="129.154" x2="413.582" y2="128.321" gradientUnits="userSpaceOnUse">
<stop stop-color="#5F8ED5"/>
<stop offset="0.9947" stop-color="#502BC6"/>
</linearGradient>
<linearGradient id="paint19_linear_49_2550" x1="383.153" y1="138.351" x2="407.653" y2="137.694" gradientUnits="userSpaceOnUse">
<stop stop-color="#5F8ED5"/>
<stop offset="0.9947" stop-color="#502BC6"/>
</linearGradient>
<linearGradient id="paint20_linear_49_2550" x1="99" y1="334.39" x2="155.02" y2="334.39" gradientUnits="userSpaceOnUse">
<stop stop-color="#502BC6"/>
<stop offset="0.9943" stop-color="#502BC6"/>
</linearGradient>
<linearGradient id="paint21_linear_49_2550" x1="105.454" y1="326.409" x2="130.77" y2="326.409" gradientUnits="userSpaceOnUse">
<stop stop-color="#5F8ED5"/>
<stop offset="0.9947" stop-color="#502BC6"/>
</linearGradient>
<linearGradient id="paint22_linear_49_2550" x1="335" y1="194.223" x2="412" y2="194.223" gradientUnits="userSpaceOnUse">
<stop stop-color="#502BC6"/>
<stop offset="0.9943" stop-color="#502BC6"/>
</linearGradient>
<linearGradient id="paint23_linear_49_2550" x1="340.338" y1="209.655" x2="351.886" y2="209.655" gradientUnits="userSpaceOnUse">
<stop stop-color="#5F8ED5"/>
<stop offset="0.9947" stop-color="#502BC6"/>
</linearGradient>
<linearGradient id="paint24_linear_49_2550" x1="357.515" y1="190.237" x2="408.047" y2="190.237" gradientUnits="userSpaceOnUse">
<stop stop-color="#5F8ED5"/>
<stop offset="0.9947" stop-color="#502BC6"/>
</linearGradient>
<clipPath id="clip0_49_2550">
<rect width="500" height="500" fill="white" transform="translate(0 0.390015)"/>
</clipPath>
</defs>
</svg>
