<svg width="217" height="52" viewBox="0 0 217 52" fill="none" xmlns="http://www.w3.org/2000/svg">
<path d="M1.6932 40.5538L4.19896 45.0597L6.72745 40.5538H7.5343L4.55125 45.7074V48.8268H3.85236V45.7074L0.863628 40.5538H1.6932Z" fill="white"/>
<path d="M7.83544 45.8495V45.6619C7.83544 45.215 7.89984 44.8021 8.02863 44.4233C8.15742 44.0445 8.34114 43.7168 8.57979 43.4403C8.82222 43.1638 9.112 42.9497 9.44913 42.7982C9.78626 42.6429 10.1613 42.5653 10.5742 42.5653C10.9908 42.5653 11.3678 42.6429 11.7049 42.7982C12.042 42.9497 12.3318 43.1638 12.5742 43.4403C12.8167 43.7168 13.0023 44.0445 13.1311 44.4233C13.2599 44.8021 13.3243 45.215 13.3243 45.6619V45.8495C13.3243 46.2964 13.2599 46.7093 13.1311 47.0881C13.0023 47.4631 12.8167 47.7889 12.5742 48.0654C12.3356 48.342 12.0477 48.5579 11.7106 48.7132C11.3734 48.8647 10.9984 48.9405 10.5855 48.9405C10.1689 48.9405 9.79195 48.8647 9.45481 48.7132C9.11768 48.5579 8.8279 48.342 8.58547 48.0654C8.34304 47.7889 8.15742 47.4631 8.02863 47.0881C7.89984 46.7093 7.83544 46.2964 7.83544 45.8495ZM8.5116 45.6619V45.8495C8.5116 46.1866 8.55706 46.5067 8.64797 46.8097C8.73888 47.109 8.87146 47.376 9.04571 47.6109C9.21996 47.8419 9.43587 48.0238 9.69346 48.1563C9.95104 48.2889 10.2484 48.3552 10.5855 48.3552C10.9189 48.3552 11.2124 48.2889 11.4662 48.1563C11.7238 48.0238 11.9397 47.8419 12.114 47.6109C12.2882 47.376 12.4189 47.109 12.506 46.8097C12.597 46.5067 12.6424 46.1866 12.6424 45.8495V45.6619C12.6424 45.3286 12.597 45.0123 12.506 44.7131C12.4189 44.4138 12.2863 44.1467 12.1083 43.9119C11.9341 43.677 11.7181 43.4914 11.4606 43.3551C11.203 43.2187 10.9075 43.1505 10.5742 43.1505C10.2408 43.1505 9.94536 43.2187 9.68778 43.3551C9.43398 43.4914 9.21806 43.677 9.04003 43.9119C8.86578 44.1467 8.7332 44.4138 8.64229 44.7131C8.55516 45.0123 8.5116 45.3286 8.5116 45.6619Z" fill="white"/>
<path d="M18.671 47.4063V42.6789H19.3529V48.8268H18.6994L18.671 47.4063ZM18.796 46.2699L19.1483 46.2586C19.1483 46.6449 19.1029 47.001 19.0119 47.3268C18.921 47.6525 18.779 47.9366 18.5858 48.1791C18.3926 48.4215 18.1426 48.609 17.8358 48.7416C17.5289 48.8742 17.1596 48.9405 16.7278 48.9405C16.4285 48.9405 16.1539 48.8988 15.9039 48.8155C15.6577 48.7283 15.4455 48.592 15.2675 48.4064C15.0895 48.2207 14.9512 47.9802 14.8527 47.6847C14.758 47.3893 14.7107 47.0313 14.7107 46.6108V42.6789H15.3868V46.6222C15.3868 46.9518 15.4228 47.2264 15.4948 47.4461C15.5705 47.6658 15.6728 47.8419 15.8016 47.9745C15.9342 48.1071 16.0857 48.2018 16.2562 48.2586C16.4266 48.3154 16.6103 48.3438 16.8073 48.3438C17.3073 48.3438 17.7013 48.2473 17.9892 48.0541C18.2809 47.8609 18.4873 47.6071 18.6085 47.2927C18.7335 46.9745 18.796 46.6336 18.796 46.2699Z" fill="white"/>
<path d="M21.8075 43.696V48.8268H21.1313V42.6789H21.7904L21.8075 43.696ZM23.9837 42.6334L23.9666 43.2585C23.8909 43.2471 23.817 43.2376 23.745 43.2301C23.6731 43.2225 23.5954 43.2187 23.5121 43.2187C23.2166 43.2187 22.9571 43.2736 22.7337 43.3835C22.5139 43.4895 22.3283 43.6392 22.1768 43.8323C22.0253 44.0217 21.9098 44.2452 21.8302 44.5028C21.7507 44.7566 21.7052 45.0293 21.6938 45.321L21.4438 45.4176C21.4438 45.0161 21.4855 44.643 21.5688 44.2983C21.6522 43.9536 21.7791 43.6524 21.9495 43.3948C22.1238 43.1335 22.3416 42.9308 22.603 42.7869C22.8681 42.6391 23.1787 42.5653 23.5348 42.5653C23.6219 42.5653 23.7072 42.5728 23.7905 42.588C23.8776 42.5993 23.942 42.6145 23.9837 42.6334Z" fill="white"/>
<path d="M33.0465 40.5538H33.7454V46.1563C33.7454 46.7775 33.6147 47.2946 33.3533 47.7075C33.0919 48.1204 32.7397 48.4291 32.2965 48.6336C31.8571 48.8382 31.3703 48.9405 30.8362 48.9405C30.2869 48.9405 29.7926 48.8382 29.3532 48.6336C28.9138 48.4291 28.5653 48.1204 28.3077 47.7075C28.0539 47.2946 27.927 46.7775 27.927 46.1563V40.5538H28.6202V46.1563C28.6202 46.6374 28.7149 47.0408 28.9043 47.3665C29.0937 47.6923 29.3551 47.9366 29.6884 48.0995C30.0218 48.2624 30.4044 48.3438 30.8362 48.3438C31.2642 48.3438 31.6449 48.2624 31.9783 48.0995C32.3116 47.9366 32.573 47.6923 32.7624 47.3665C32.9518 47.0408 33.0465 46.6374 33.0465 46.1563V40.5538Z" fill="white"/>
<path d="M36.308 40.0993V48.8268H35.6318V40.0993H36.308Z" fill="white"/>
<path d="M40.4899 42.6789V43.2357H37.4103V42.6789H40.4899ZM38.541 41.0993H39.2171V47.3325C39.2171 47.6166 39.255 47.8306 39.3308 47.9745C39.4065 48.1185 39.505 48.2151 39.6262 48.2643C39.7475 48.3135 39.8781 48.3382 40.0183 48.3382C40.1206 48.3382 40.2191 48.3325 40.3138 48.3211C40.4085 48.306 40.4937 48.2908 40.5695 48.2757L40.5979 48.8495C40.5145 48.8761 40.4066 48.8969 40.274 48.912C40.1414 48.931 40.0088 48.9405 39.8763 48.9405C39.6149 48.9405 39.3838 48.8931 39.183 48.7984C38.9823 48.6999 38.8251 48.5333 38.7114 48.2984C38.5978 48.0597 38.541 47.7359 38.541 47.3268V41.0993Z" fill="white"/>
<path d="M42.6718 42.6789V48.8268H41.9956V42.6789H42.6718ZM41.8763 40.9004C41.8763 40.7716 41.9161 40.6637 41.9956 40.5766C42.079 40.4856 42.1926 40.4402 42.3366 40.4402C42.4805 40.4402 42.5941 40.4856 42.6775 40.5766C42.7646 40.6637 42.8082 40.7716 42.8082 40.9004C42.8082 41.0254 42.7646 41.1334 42.6775 41.2243C42.5941 41.3114 42.4805 41.355 42.3366 41.355C42.1926 41.355 42.079 41.3114 41.9956 41.2243C41.9161 41.1334 41.8763 41.0254 41.8763 40.9004Z" fill="white"/>
<path d="M45.1719 43.9517V48.8268H44.49V42.6789H45.1435L45.1719 43.9517ZM45.0469 45.3722L44.7173 45.2017C44.74 44.8381 44.8082 44.4971 44.9219 44.1789C45.0393 43.8608 45.2022 43.5804 45.4105 43.338C45.6189 43.0956 45.8689 42.9062 46.1605 42.7698C46.4522 42.6334 46.7837 42.5653 47.1549 42.5653C47.4541 42.5653 47.725 42.6069 47.9674 42.6903C48.2136 42.7698 48.422 42.8967 48.5924 43.071C48.7667 43.2414 48.9012 43.4649 48.9959 43.7414C49.0906 44.018 49.1379 44.3494 49.1379 44.7358V48.8268H48.4618V44.7585C48.4618 44.3494 48.3974 44.0293 48.2686 43.7982C48.1436 43.5672 47.9674 43.4024 47.7401 43.3039C47.5166 43.2054 47.2572 43.1562 46.9617 43.1562C46.6132 43.1562 46.3177 43.2282 46.0753 43.3721C45.8367 43.5123 45.6416 43.696 45.4901 43.9233C45.3423 44.1467 45.2325 44.3873 45.1605 44.6449C45.0885 44.8987 45.0507 45.1411 45.0469 45.3722ZM49.1322 44.8381L48.6777 44.8494C48.6966 44.5502 48.7648 44.2642 48.8822 43.9914C49.0034 43.7187 49.1682 43.4763 49.3766 43.2641C49.5849 43.0482 49.833 42.8778 50.1209 42.7528C50.4126 42.6278 50.7402 42.5653 51.1039 42.5653C51.4221 42.5653 51.7062 42.6088 51.9562 42.6959C52.2062 42.7793 52.4164 42.9137 52.5869 43.0994C52.7611 43.2812 52.8937 43.5141 52.9846 43.7982C53.0755 44.0823 53.121 44.4233 53.121 44.821V48.8268H52.4392V44.8153C52.4392 44.3797 52.3748 44.0426 52.246 43.8039C52.121 43.5615 51.9467 43.3929 51.7232 43.2982C51.4997 43.2035 51.2384 43.1562 50.9391 43.1562C50.6436 43.16 50.3842 43.2149 50.1607 43.321C49.9372 43.4232 49.7497 43.5596 49.5982 43.7301C49.4504 43.8967 49.3368 44.0767 49.2572 44.2699C49.1815 44.463 49.1398 44.6524 49.1322 44.8381Z" fill="white"/>
<path d="M58.5871 47.7245V44.554C58.5871 44.2623 58.5265 44.0104 58.4053 43.7982C58.284 43.5861 58.106 43.4232 57.8711 43.3096C57.6363 43.196 57.3465 43.1391 57.0018 43.1391C56.6836 43.1391 56.3995 43.196 56.1495 43.3096C55.9033 43.4194 55.7082 43.5691 55.5643 43.7585C55.4241 43.9441 55.354 44.1505 55.354 44.3778L54.6722 44.3721C54.6722 44.1411 54.729 43.9176 54.8426 43.7017C54.9563 43.4857 55.1173 43.2925 55.3256 43.1221C55.534 42.9516 55.7821 42.8172 56.07 42.7187C56.3616 42.6164 56.6817 42.5653 57.0302 42.5653C57.4696 42.5653 57.856 42.6391 58.1893 42.7869C58.5265 42.9346 58.7897 43.1562 58.9791 43.4516C59.1685 43.7471 59.2632 44.1183 59.2632 44.5653V47.537C59.2632 47.7491 59.2784 47.9688 59.3087 48.1961C59.3428 48.4234 59.3901 48.6109 59.4507 48.7586V48.8268H58.7291C58.6837 48.6905 58.6477 48.52 58.6212 48.3154C58.5984 48.1071 58.5871 47.9101 58.5871 47.7245ZM58.7462 45.2472L58.7575 45.7699H57.4223C57.0738 45.7699 56.7613 45.8021 56.4847 45.8665C56.212 45.9271 55.9809 46.018 55.7915 46.1392C55.6021 46.2567 55.4563 46.3987 55.354 46.5654C55.2555 46.7321 55.2063 46.9215 55.2063 47.1336C55.2063 47.3533 55.2612 47.5541 55.3711 47.7359C55.4847 47.9177 55.6438 48.0635 55.8484 48.1734C56.0567 48.2795 56.3029 48.3325 56.587 48.3325C56.9658 48.3325 57.2992 48.2624 57.587 48.1223C57.8787 47.9821 58.1193 47.7984 58.3087 47.5711C58.4981 47.3438 58.625 47.0957 58.6894 46.8268L58.9848 47.2188C58.9356 47.4082 58.8447 47.6033 58.7121 47.8041C58.5833 48.001 58.4147 48.1866 58.2064 48.3609C57.998 48.5314 57.7518 48.6715 57.4677 48.7814C57.1874 48.8874 56.8692 48.9405 56.5131 48.9405C56.1116 48.9405 55.7612 48.8647 55.462 48.7132C55.1665 48.5617 54.9354 48.3552 54.7688 48.0938C54.6059 47.8287 54.5245 47.5294 54.5245 47.1961C54.5245 46.893 54.5888 46.6222 54.7176 46.3836C54.8464 46.1411 55.032 45.9366 55.2745 45.7699C55.5207 45.5994 55.8162 45.4707 56.1609 45.3835C56.5094 45.2926 56.8995 45.2472 57.3314 45.2472H58.7462Z" fill="white"/>
<path d="M63.4111 42.6789V43.2357H60.3315V42.6789H63.4111ZM61.4622 41.0993H62.1383V47.3325C62.1383 47.6166 62.1762 47.8306 62.252 47.9745C62.3277 48.1185 62.4262 48.2151 62.5474 48.2643C62.6687 48.3135 62.7993 48.3382 62.9395 48.3382C63.0418 48.3382 63.1403 48.3325 63.235 48.3211C63.3297 48.306 63.4149 48.2908 63.4906 48.2757L63.5191 48.8495C63.4357 48.8761 63.3278 48.8969 63.1952 48.912C63.0626 48.931 62.93 48.9405 62.7974 48.9405C62.5361 48.9405 62.305 48.8931 62.1042 48.7984C61.9035 48.6999 61.7463 48.5333 61.6326 48.2984C61.519 48.0597 61.4622 47.7359 61.4622 47.3268V41.0993Z" fill="white"/>
<path d="M67.2124 48.9405C66.8108 48.9405 66.4415 48.8666 66.1044 48.7189C65.771 48.5711 65.4793 48.3628 65.2293 48.0938C64.9831 47.8249 64.7918 47.5067 64.6555 47.1393C64.5229 46.768 64.4566 46.3627 64.4566 45.9233V45.679C64.4566 45.2055 64.5267 44.7775 64.6668 44.3949C64.807 44.0123 65.0002 43.6846 65.2464 43.4119C65.4926 43.1391 65.7729 42.9308 66.0873 42.7869C66.4055 42.6391 66.7389 42.5653 67.0874 42.5653C67.4775 42.5653 67.8241 42.6353 68.1272 42.7755C68.4302 42.9119 68.684 43.1069 68.8885 43.3607C69.0969 43.6107 69.2541 43.9081 69.3602 44.2528C69.4662 44.5937 69.5192 44.9706 69.5192 45.3835V45.7983H64.8657V45.2188H68.8431V45.1392C68.8355 44.7945 68.7654 44.4725 68.6329 44.1733C68.5041 43.8702 68.3109 43.624 68.0533 43.4346C67.7957 43.2452 67.4737 43.1505 67.0874 43.1505C66.7995 43.1505 66.5343 43.2111 66.2919 43.3323C66.0532 43.4535 65.8468 43.6278 65.6725 43.8551C65.5021 44.0786 65.3695 44.3456 65.2748 44.6562C65.1839 44.9631 65.1384 45.304 65.1384 45.679V45.9233C65.1384 46.2642 65.1877 46.5824 65.2862 46.8779C65.3884 47.1696 65.5324 47.4272 65.718 47.6506C65.9074 47.8741 66.1309 48.0484 66.3885 48.1734C66.646 48.2984 66.9302 48.3609 67.2408 48.3609C67.6044 48.3609 67.9264 48.2946 68.2067 48.162C68.487 48.0257 68.7389 47.8116 68.9624 47.52L69.3886 47.8495C69.256 48.0465 69.0893 48.2283 68.8885 48.395C68.6916 48.5617 68.4548 48.6942 68.1783 48.7927C67.9018 48.8912 67.5798 48.9405 67.2124 48.9405Z" fill="white"/>
<path d="M79.0025 48.2302V48.8268H74.349V48.2302H79.0025ZM74.5592 40.5538V48.8268H73.8603V40.5538H74.5592ZM78.423 44.2642V44.8608H74.349V44.2642H78.423ZM78.9741 40.5538V41.1561H74.349V40.5538H78.9741Z" fill="white"/>
<path d="M81.9912 48.1734L83.9629 42.6789H84.6618L82.3606 48.8268H81.8662L81.9912 48.1734ZM80.2071 42.6789L82.2015 48.1904L82.3094 48.8268H81.8094L79.5025 42.6789H80.2071Z" fill="white"/>
<path d="M88.0767 48.9405C87.6751 48.9405 87.3058 48.8666 86.9687 48.7189C86.6353 48.5711 86.3437 48.3628 86.0936 48.0938C85.8474 47.8249 85.6561 47.5067 85.5198 47.1393C85.3872 46.768 85.3209 46.3627 85.3209 45.9233V45.679C85.3209 45.2055 85.391 44.7775 85.5311 44.3949C85.6713 44.0123 85.8645 43.6846 86.1107 43.4119C86.3569 43.1391 86.6372 42.9308 86.9516 42.7869C87.2698 42.6391 87.6032 42.5653 87.9517 42.5653C88.3418 42.5653 88.6884 42.6353 88.9915 42.7755C89.2945 42.9119 89.5483 43.1069 89.7529 43.3607C89.9612 43.6107 90.1184 43.9081 90.2245 44.2528C90.3305 44.5937 90.3836 44.9706 90.3836 45.3835V45.7983H85.73V45.2188H89.7074V45.1392C89.6998 44.7945 89.6297 44.4725 89.4972 44.1733C89.3684 43.8702 89.1752 43.624 88.9176 43.4346C88.66 43.2452 88.338 43.1505 87.9517 43.1505C87.6638 43.1505 87.3986 43.2111 87.1562 43.3323C86.9175 43.4535 86.7111 43.6278 86.5368 43.8551C86.3664 44.0786 86.2338 44.3456 86.1391 44.6562C86.0482 44.9631 86.0027 45.304 86.0027 45.679V45.9233C86.0027 46.2642 86.052 46.5824 86.1505 46.8779C86.2527 47.1696 86.3967 47.4272 86.5823 47.6506C86.7717 47.8741 86.9952 48.0484 87.2528 48.1734C87.5104 48.2984 87.7945 48.3609 88.1051 48.3609C88.4687 48.3609 88.7907 48.2946 89.071 48.162C89.3513 48.0257 89.6032 47.8116 89.8267 47.52L90.2529 47.8495C90.1203 48.0465 89.9536 48.2283 89.7529 48.395C89.5559 48.5617 89.3191 48.6942 89.0426 48.7927C88.7661 48.8912 88.4441 48.9405 88.0767 48.9405Z" fill="white"/>
<path d="M92.4007 43.9914V48.8268H91.7245V42.6789H92.3723L92.4007 43.9914ZM92.2473 45.3722L91.9461 45.2017C91.9688 44.8381 92.0427 44.4971 92.1677 44.1789C92.2927 43.8608 92.4613 43.5804 92.6734 43.338C92.8893 43.0956 93.1412 42.9062 93.4291 42.7698C93.7208 42.6334 94.0428 42.5653 94.3951 42.5653C94.7019 42.5653 94.9765 42.6069 95.2189 42.6903C95.4614 42.7736 95.6678 42.9062 95.8383 43.088C96.0087 43.2698 96.1375 43.5028 96.2247 43.7869C96.3156 44.071 96.361 44.4176 96.361 44.8267V48.8268H95.6792V44.821C95.6792 44.3968 95.6205 44.0653 95.503 43.8267C95.3856 43.5842 95.2189 43.4119 95.003 43.3096C94.7871 43.2073 94.5314 43.1562 94.236 43.1562C93.9102 43.1562 93.6242 43.2282 93.378 43.3721C93.1355 43.5123 92.931 43.696 92.7643 43.9233C92.6014 44.1467 92.4764 44.3873 92.3893 44.6449C92.3022 44.8987 92.2548 45.1411 92.2473 45.3722Z" fill="white"/>
<path d="M100.446 42.6789V43.2357H97.3667V42.6789H100.446ZM98.4975 41.0993H99.1736V47.3325C99.1736 47.6166 99.2115 47.8306 99.2873 47.9745C99.363 48.1185 99.4615 48.2151 99.5827 48.2643C99.7039 48.3135 99.8346 48.3382 99.9748 48.3382C100.077 48.3382 100.176 48.3325 100.27 48.3211C100.365 48.306 100.45 48.2908 100.526 48.2757L100.554 48.8495C100.471 48.8761 100.363 48.8969 100.23 48.912C100.098 48.931 99.9653 48.9405 99.8327 48.9405C99.5714 48.9405 99.3403 48.8931 99.1395 48.7984C98.9388 48.6999 98.7816 48.5333 98.6679 48.2984C98.5543 48.0597 98.4975 47.7359 98.4975 47.3268V41.0993Z" fill="white"/>
<path d="M105.089 40.5538H105.793L108.85 47.8382L111.913 40.5538H112.612L109.117 48.8268H108.583L105.089 40.5538ZM104.873 40.5538H105.492L105.566 45.2131V48.8268H104.873V40.5538ZM112.219 40.5538H112.839V48.8268H112.14V45.2131L112.219 40.5538Z" fill="white"/>
<path d="M118.521 47.7245V44.554C118.521 44.2623 118.46 44.0104 118.339 43.7982C118.218 43.5861 118.04 43.4232 117.805 43.3096C117.57 43.196 117.28 43.1391 116.936 43.1391C116.617 43.1391 116.333 43.196 116.083 43.3096C115.837 43.4194 115.642 43.5691 115.498 43.7585C115.358 43.9441 115.288 44.1505 115.288 44.3778L114.606 44.3721C114.606 44.1411 114.663 43.9176 114.776 43.7017C114.89 43.4857 115.051 43.2925 115.259 43.1221C115.468 42.9516 115.716 42.8172 116.004 42.7187C116.295 42.6164 116.615 42.5653 116.964 42.5653C117.403 42.5653 117.79 42.6391 118.123 42.7869C118.46 42.9346 118.723 43.1562 118.913 43.4516C119.102 43.7471 119.197 44.1183 119.197 44.5653V47.537C119.197 47.7491 119.212 47.9688 119.242 48.1961C119.277 48.4234 119.324 48.6109 119.384 48.7586V48.8268H118.663C118.617 48.6905 118.581 48.52 118.555 48.3154C118.532 48.1071 118.521 47.9101 118.521 47.7245ZM118.68 45.2472L118.691 45.7699H117.356C117.008 45.7699 116.695 45.8021 116.418 45.8665C116.146 45.9271 115.915 46.018 115.725 46.1392C115.536 46.2567 115.39 46.3987 115.288 46.5654C115.189 46.7321 115.14 46.9215 115.14 47.1336C115.14 47.3533 115.195 47.5541 115.305 47.7359C115.418 47.9177 115.578 48.0635 115.782 48.1734C115.99 48.2795 116.237 48.3325 116.521 48.3325C116.9 48.3325 117.233 48.2624 117.521 48.1223C117.812 47.9821 118.053 47.7984 118.242 47.5711C118.432 47.3438 118.559 47.0957 118.623 46.8268L118.919 47.2188C118.869 47.4082 118.778 47.6033 118.646 47.8041C118.517 48.001 118.348 48.1866 118.14 48.3609C117.932 48.5314 117.686 48.6715 117.401 48.7814C117.121 48.8874 116.803 48.9405 116.447 48.9405C116.045 48.9405 115.695 48.8647 115.396 48.7132C115.1 48.5617 114.869 48.3552 114.703 48.0938C114.54 47.8287 114.458 47.5294 114.458 47.1961C114.458 46.893 114.523 46.6222 114.651 46.3836C114.78 46.1411 114.966 45.9366 115.208 45.7699C115.454 45.5994 115.75 45.4707 116.095 45.3835C116.443 45.2926 116.833 45.2472 117.265 45.2472H118.68Z" fill="white"/>
<path d="M121.697 43.9914V48.8268H121.021V42.6789H121.669L121.697 43.9914ZM121.544 45.3722L121.243 45.2017C121.265 44.8381 121.339 44.4971 121.464 44.1789C121.589 43.8608 121.758 43.5804 121.97 43.338C122.186 43.0956 122.438 42.9062 122.726 42.7698C123.017 42.6334 123.339 42.5653 123.691 42.5653C123.998 42.5653 124.273 42.6069 124.515 42.6903C124.758 42.7736 124.964 42.9062 125.135 43.088C125.305 43.2698 125.434 43.5028 125.521 43.7869C125.612 44.071 125.657 44.4176 125.657 44.8267V48.8268H124.976V44.821C124.976 44.3968 124.917 44.0653 124.799 43.8267C124.682 43.5842 124.515 43.4119 124.299 43.3096C124.084 43.2073 123.828 43.1562 123.532 43.1562C123.207 43.1562 122.921 43.2282 122.674 43.3721C122.432 43.5123 122.227 43.696 122.061 43.9233C121.898 44.1467 121.773 44.3873 121.686 44.6449C121.599 44.8987 121.551 45.1411 121.544 45.3722Z" fill="white"/>
<path d="M131.158 47.7245V44.554C131.158 44.2623 131.097 44.0104 130.976 43.7982C130.855 43.5861 130.677 43.4232 130.442 43.3096C130.207 43.196 129.917 43.1391 129.572 43.1391C129.254 43.1391 128.97 43.196 128.72 43.3096C128.474 43.4194 128.279 43.5691 128.135 43.7585C127.995 43.9441 127.925 44.1505 127.925 44.3778L127.243 44.3721C127.243 44.1411 127.3 43.9176 127.413 43.7017C127.527 43.4857 127.688 43.2925 127.896 43.1221C128.104 42.9516 128.353 42.8172 128.64 42.7187C128.932 42.6164 129.252 42.5653 129.601 42.5653C130.04 42.5653 130.427 42.6391 130.76 42.7869C131.097 42.9346 131.36 43.1562 131.55 43.4516C131.739 43.7471 131.834 44.1183 131.834 44.5653V47.537C131.834 47.7491 131.849 47.9688 131.879 48.1961C131.913 48.4234 131.961 48.6109 132.021 48.7586V48.8268H131.3C131.254 48.6905 131.218 48.52 131.192 48.3154C131.169 48.1071 131.158 47.9101 131.158 47.7245ZM131.317 45.2472L131.328 45.7699H129.993C129.644 45.7699 129.332 45.8021 129.055 45.8665C128.783 45.9271 128.551 46.018 128.362 46.1392C128.173 46.2567 128.027 46.3987 127.925 46.5654C127.826 46.7321 127.777 46.9215 127.777 47.1336C127.777 47.3533 127.832 47.5541 127.942 47.7359C128.055 47.9177 128.214 48.0635 128.419 48.1734C128.627 48.2795 128.873 48.3325 129.158 48.3325C129.536 48.3325 129.87 48.2624 130.158 48.1223C130.449 47.9821 130.69 47.7984 130.879 47.5711C131.069 47.3438 131.195 47.0957 131.26 46.8268L131.555 47.2188C131.506 47.4082 131.415 47.6033 131.283 47.8041C131.154 48.001 130.985 48.1866 130.777 48.3609C130.569 48.5314 130.322 48.6715 130.038 48.7814C129.758 48.8874 129.44 48.9405 129.084 48.9405C128.682 48.9405 128.332 48.8647 128.033 48.7132C127.737 48.5617 127.506 48.3552 127.339 48.0938C127.176 47.8287 127.095 47.5294 127.095 47.1961C127.095 46.893 127.159 46.6222 127.288 46.3836C127.417 46.1411 127.603 45.9366 127.845 45.7699C128.091 45.5994 128.387 45.4707 128.731 45.3835C129.08 45.2926 129.47 45.2472 129.902 45.2472H131.317Z" fill="white"/>
<path d="M137.703 42.6789H138.334V48.7189C138.334 49.253 138.232 49.7113 138.027 50.0939C137.826 50.4765 137.54 50.7701 137.169 50.9746C136.802 51.1792 136.368 51.2814 135.868 51.2814C135.614 51.2814 135.353 51.2417 135.084 51.1621C134.819 51.0864 134.567 50.9689 134.328 50.8098C134.093 50.6545 133.893 50.4613 133.726 50.2303L134.107 49.8155C134.357 50.1185 134.624 50.3401 134.908 50.4803C135.192 50.6242 135.499 50.6962 135.828 50.6962C136.218 50.6962 136.548 50.6185 136.817 50.4632C137.09 50.3079 137.296 50.0844 137.436 49.7928C137.58 49.5011 137.652 49.1507 137.652 48.7416V44.0312L137.703 42.6789ZM133.385 45.8154V45.696C133.385 45.2188 133.438 44.7888 133.544 44.4062C133.654 44.0198 133.811 43.6903 134.016 43.4176C134.22 43.141 134.468 42.9308 134.76 42.7869C135.055 42.6391 135.389 42.5653 135.76 42.5653C136.116 42.5653 136.432 42.624 136.709 42.7414C136.985 42.8588 137.224 43.0274 137.425 43.2471C137.626 43.4668 137.787 43.7282 137.908 44.0312C138.033 44.3343 138.124 44.6714 138.181 45.0426V46.5597C138.135 46.9082 138.052 47.2283 137.931 47.52C137.809 47.8078 137.648 48.0598 137.448 48.2757C137.247 48.4878 137.004 48.6526 136.72 48.77C136.44 48.8836 136.116 48.9405 135.749 48.9405C135.381 48.9405 135.052 48.8647 134.76 48.7132C134.468 48.5617 134.22 48.3476 134.016 48.0711C133.811 47.7908 133.654 47.4594 133.544 47.0768C133.438 46.6942 133.385 46.2737 133.385 45.8154ZM134.067 45.696V45.8154C134.067 46.1752 134.103 46.5086 134.175 46.8154C134.247 47.1222 134.357 47.3893 134.504 47.6166C134.652 47.8438 134.84 48.0219 135.067 48.1507C135.294 48.2795 135.561 48.3438 135.868 48.3438C136.258 48.3438 136.586 48.27 136.851 48.1223C137.116 47.9707 137.326 47.7719 137.482 47.5256C137.637 47.2756 137.751 47.0029 137.823 46.7074V44.9403C137.781 44.7396 137.717 44.535 137.629 44.3267C137.546 44.1183 137.429 43.927 137.277 43.7528C137.129 43.5748 136.94 43.4327 136.709 43.3266C136.482 43.2168 136.205 43.1619 135.879 43.1619C135.569 43.1619 135.298 43.2263 135.067 43.3551C134.84 43.4838 134.652 43.6638 134.504 43.8948C134.357 44.1221 134.247 44.3892 134.175 44.696C134.103 45.0028 134.067 45.3362 134.067 45.696Z" fill="white"/>
<path d="M142.488 48.9405C142.086 48.9405 141.717 48.8666 141.38 48.7189C141.046 48.5711 140.755 48.3628 140.504 48.0938C140.258 47.8249 140.067 47.5067 139.931 47.1393C139.798 46.768 139.732 46.3627 139.732 45.9233V45.679C139.732 45.2055 139.802 44.7775 139.942 44.3949C140.082 44.0123 140.275 43.6846 140.522 43.4119C140.768 43.1391 141.048 42.9308 141.362 42.7869C141.681 42.6391 142.014 42.5653 142.363 42.5653C142.753 42.5653 143.099 42.6353 143.402 42.7755C143.705 42.9119 143.959 43.1069 144.164 43.3607C144.372 43.6107 144.529 43.9081 144.635 44.2528C144.741 44.5937 144.794 44.9706 144.794 45.3835V45.7983H140.141V45.2188H144.118V45.1392C144.111 44.7945 144.041 44.4725 143.908 44.1733C143.779 43.8702 143.586 43.624 143.328 43.4346C143.071 43.2452 142.749 43.1505 142.363 43.1505C142.075 43.1505 141.809 43.2111 141.567 43.3323C141.328 43.4535 141.122 43.6278 140.948 43.8551C140.777 44.0786 140.645 44.3456 140.55 44.6562C140.459 44.9631 140.414 45.304 140.414 45.679V45.9233C140.414 46.2642 140.463 46.5824 140.561 46.8779C140.664 47.1696 140.808 47.4272 140.993 47.6506C141.183 47.8741 141.406 48.0484 141.664 48.1734C141.921 48.2984 142.205 48.3609 142.516 48.3609C142.88 48.3609 143.202 48.2946 143.482 48.162C143.762 48.0257 144.014 47.8116 144.238 47.52L144.664 47.8495C144.531 48.0465 144.364 48.2283 144.164 48.395C143.967 48.5617 143.73 48.6942 143.453 48.7927C143.177 48.8912 142.855 48.9405 142.488 48.9405Z" fill="white"/>
<path d="M146.777 43.9517V48.8268H146.096V42.6789H146.749L146.777 43.9517ZM146.652 45.3722L146.323 45.2017C146.346 44.8381 146.414 44.4971 146.527 44.1789C146.645 43.8608 146.808 43.5804 147.016 43.338C147.224 43.0956 147.474 42.9062 147.766 42.7698C148.058 42.6334 148.389 42.5653 148.76 42.5653C149.06 42.5653 149.331 42.6069 149.573 42.6903C149.819 42.7698 150.028 42.8967 150.198 43.071C150.372 43.2414 150.507 43.4649 150.601 43.7414C150.696 44.018 150.743 44.3494 150.743 44.7358V48.8268H150.067V44.7585C150.067 44.3494 150.003 44.0293 149.874 43.7982C149.749 43.5672 149.573 43.4024 149.346 43.3039C149.122 43.2054 148.863 43.1562 148.567 43.1562C148.219 43.1562 147.923 43.2282 147.681 43.3721C147.442 43.5123 147.247 43.696 147.096 43.9233C146.948 44.1467 146.838 44.3873 146.766 44.6449C146.694 44.8987 146.656 45.1411 146.652 45.3722ZM150.738 44.8381L150.283 44.8494C150.302 44.5502 150.37 44.2642 150.488 43.9914C150.609 43.7187 150.774 43.4763 150.982 43.2641C151.19 43.0482 151.439 42.8778 151.726 42.7528C152.018 42.6278 152.346 42.5653 152.709 42.5653C153.028 42.5653 153.312 42.6088 153.562 42.6959C153.812 42.7793 154.022 42.9137 154.192 43.0994C154.367 43.2812 154.499 43.5141 154.59 43.7982C154.681 44.0823 154.727 44.4233 154.727 44.821V48.8268H154.045V44.8153C154.045 44.3797 153.98 44.0426 153.852 43.8039C153.727 43.5615 153.552 43.3929 153.329 43.2982C153.105 43.2035 152.844 43.1562 152.545 43.1562C152.249 43.16 151.99 43.2149 151.766 43.321C151.543 43.4232 151.355 43.5596 151.204 43.7301C151.056 43.8967 150.942 44.0767 150.863 44.2699C150.787 44.463 150.745 44.6524 150.738 44.8381Z" fill="white"/>
<path d="M158.829 48.9405C158.427 48.9405 158.058 48.8666 157.721 48.7189C157.388 48.5711 157.096 48.3628 156.846 48.0938C156.6 47.8249 156.408 47.5067 156.272 47.1393C156.139 46.768 156.073 46.3627 156.073 45.9233V45.679C156.073 45.2055 156.143 44.7775 156.283 44.3949C156.424 44.0123 156.617 43.6846 156.863 43.4119C157.109 43.1391 157.39 42.9308 157.704 42.7869C158.022 42.6391 158.355 42.5653 158.704 42.5653C159.094 42.5653 159.441 42.6353 159.744 42.7755C160.047 42.9119 160.301 43.1069 160.505 43.3607C160.713 43.6107 160.871 43.9081 160.977 44.2528C161.083 44.5937 161.136 44.9706 161.136 45.3835V45.7983H156.482V45.2188H160.46V45.1392C160.452 44.7945 160.382 44.4725 160.249 44.1733C160.121 43.8702 159.927 43.624 159.67 43.4346C159.412 43.2452 159.09 43.1505 158.704 43.1505C158.416 43.1505 158.151 43.2111 157.908 43.3323C157.67 43.4535 157.463 43.6278 157.289 43.8551C157.119 44.0786 156.986 44.3456 156.891 44.6562C156.8 44.9631 156.755 45.304 156.755 45.679V45.9233C156.755 46.2642 156.804 46.5824 156.903 46.8779C157.005 47.1696 157.149 47.4272 157.335 47.6506C157.524 47.8741 157.747 48.0484 158.005 48.1734C158.263 48.2984 158.547 48.3609 158.857 48.3609C159.221 48.3609 159.543 48.2946 159.823 48.162C160.104 48.0257 160.356 47.8116 160.579 47.52L161.005 47.8495C160.873 48.0465 160.706 48.2283 160.505 48.395C160.308 48.5617 160.071 48.6942 159.795 48.7927C159.518 48.8912 159.196 48.9405 158.829 48.9405Z" fill="white"/>
<path d="M163.153 43.9914V48.8268H162.477V42.6789H163.125L163.153 43.9914ZM163 45.3722L162.698 45.2017C162.721 44.8381 162.795 44.4971 162.92 44.1789C163.045 43.8608 163.214 43.5804 163.426 43.338C163.642 43.0956 163.894 42.9062 164.181 42.7698C164.473 42.6334 164.795 42.5653 165.147 42.5653C165.454 42.5653 165.729 42.6069 165.971 42.6903C166.214 42.7736 166.42 42.9062 166.591 43.088C166.761 43.2698 166.89 43.5028 166.977 43.7869C167.068 44.071 167.113 44.4176 167.113 44.8267V48.8268H166.431V44.821C166.431 44.3968 166.373 44.0653 166.255 43.8267C166.138 43.5842 165.971 43.4119 165.755 43.3096C165.539 43.2073 165.284 43.1562 164.988 43.1562C164.662 43.1562 164.376 43.2282 164.13 43.3721C163.888 43.5123 163.683 43.696 163.517 43.9233C163.354 44.1467 163.229 44.3873 163.142 44.6449C163.054 44.8987 163.007 45.1411 163 45.3722Z" fill="white"/>
<path d="M171.199 42.6789V43.2357H168.119V42.6789H171.199ZM169.25 41.0993H169.926V47.3325C169.926 47.6166 169.964 47.8306 170.04 47.9745C170.115 48.1185 170.214 48.2151 170.335 48.2643C170.456 48.3135 170.587 48.3382 170.727 48.3382C170.829 48.3382 170.928 48.3325 171.023 48.3211C171.117 48.306 171.202 48.2908 171.278 48.2757L171.307 48.8495C171.223 48.8761 171.115 48.8969 170.983 48.912C170.85 48.931 170.718 48.9405 170.585 48.9405C170.324 48.9405 170.093 48.8931 169.892 48.7984C169.691 48.6999 169.534 48.5333 169.42 48.2984C169.307 48.0597 169.25 47.7359 169.25 47.3268V41.0993Z" fill="white"/>
<path d="M180.307 46.7927C180.307 46.5654 180.269 46.3627 180.193 46.1847C180.118 46.0067 179.993 45.8476 179.818 45.7074C179.648 45.5635 179.417 45.4309 179.125 45.3097C178.837 45.1847 178.477 45.0615 178.045 44.9403C177.633 44.8229 177.259 44.6941 176.926 44.554C176.593 44.4138 176.307 44.2528 176.068 44.071C175.833 43.8892 175.653 43.677 175.528 43.4346C175.403 43.1884 175.341 42.9024 175.341 42.5766C175.341 42.2584 175.409 41.9686 175.545 41.7073C175.682 41.4459 175.873 41.2205 176.119 41.0311C176.369 40.8417 176.663 40.6959 177 40.5936C177.341 40.4913 177.714 40.4402 178.119 40.4402C178.699 40.4402 179.199 40.55 179.619 40.7697C180.044 40.9894 180.371 41.2868 180.602 41.6618C180.837 42.033 180.955 42.4497 180.955 42.9119H180.256C180.256 42.552 180.171 42.2319 180 41.9516C179.833 41.6675 179.591 41.4459 179.273 41.2868C178.958 41.1239 178.574 41.0425 178.119 41.0425C177.665 41.0425 177.282 41.1126 176.972 41.2527C176.665 41.3891 176.432 41.5728 176.273 41.8039C176.117 42.0311 176.04 42.2849 176.04 42.5653C176.04 42.7622 176.078 42.9441 176.153 43.1107C176.229 43.2736 176.352 43.427 176.523 43.571C176.697 43.7111 176.926 43.8437 177.21 43.9687C177.494 44.0899 177.845 44.2055 178.261 44.3153C178.701 44.4365 179.091 44.571 179.432 44.7187C179.773 44.8665 180.061 45.0369 180.296 45.2301C180.53 45.4195 180.708 45.6411 180.83 45.8949C180.951 46.1487 181.011 46.4442 181.011 46.7813C181.011 47.1184 180.94 47.4215 180.796 47.6904C180.655 47.9556 180.457 48.181 180.199 48.3666C179.945 48.5522 179.644 48.6942 179.296 48.7927C178.951 48.8912 178.574 48.9405 178.165 48.9405C177.797 48.9405 177.432 48.8931 177.068 48.7984C176.705 48.7037 176.371 48.5579 176.068 48.3609C175.769 48.1601 175.528 47.9025 175.347 47.5881C175.168 47.2737 175.079 46.8987 175.079 46.4631H175.773C175.773 46.8116 175.843 47.1052 175.983 47.3438C176.123 47.5825 176.309 47.7757 176.54 47.9234C176.775 48.0711 177.032 48.1791 177.312 48.2473C177.597 48.3117 177.881 48.3438 178.165 48.3438C178.6 48.3438 178.977 48.2795 179.296 48.1507C179.618 48.0219 179.866 47.8419 180.04 47.6109C180.218 47.376 180.307 47.1033 180.307 46.7927Z" fill="white"/>
<path d="M181.989 45.8495V45.6619C181.989 45.215 182.053 44.8021 182.182 44.4233C182.311 44.0445 182.494 43.7168 182.733 43.4403C182.976 43.1638 183.265 42.9497 183.602 42.7982C183.94 42.6429 184.315 42.5653 184.728 42.5653C185.144 42.5653 185.521 42.6429 185.858 42.7982C186.195 42.9497 186.485 43.1638 186.728 43.4403C186.97 43.7168 187.156 44.0445 187.284 44.4233C187.413 44.8021 187.478 45.215 187.478 45.6619V45.8495C187.478 46.2964 187.413 46.7093 187.284 47.0881C187.156 47.4631 186.97 47.7889 186.728 48.0654C186.489 48.342 186.201 48.5579 185.864 48.7132C185.527 48.8647 185.152 48.9405 184.739 48.9405C184.322 48.9405 183.945 48.8647 183.608 48.7132C183.271 48.5579 182.981 48.342 182.739 48.0654C182.496 47.7889 182.311 47.4631 182.182 47.0881C182.053 46.7093 181.989 46.2964 181.989 45.8495ZM182.665 45.6619V45.8495C182.665 46.1866 182.71 46.5067 182.801 46.8097C182.892 47.109 183.025 47.376 183.199 47.6109C183.373 47.8419 183.589 48.0238 183.847 48.1563C184.104 48.2889 184.402 48.3552 184.739 48.3552C185.072 48.3552 185.366 48.2889 185.62 48.1563C185.877 48.0238 186.093 47.8419 186.267 47.6109C186.442 47.376 186.572 47.109 186.659 46.8097C186.75 46.5067 186.796 46.1866 186.796 45.8495V45.6619C186.796 45.3286 186.75 45.0123 186.659 44.7131C186.572 44.4138 186.44 44.1467 186.262 43.9119C186.087 43.677 185.871 43.4914 185.614 43.3551C185.356 43.2187 185.061 43.1505 184.728 43.1505C184.394 43.1505 184.099 43.2187 183.841 43.3551C183.587 43.4914 183.371 43.677 183.193 43.9119C183.019 44.1467 182.887 44.4138 182.796 44.7131C182.709 45.0123 182.665 45.3286 182.665 45.6619Z" fill="white"/>
<path d="M189.642 40.0993V48.8268H188.966V40.0993H189.642Z" fill="white"/>
<path d="M195.438 47.4063V42.6789H196.12V48.8268H195.466L195.438 47.4063ZM195.563 46.2699L195.915 46.2586C195.915 46.6449 195.87 47.001 195.779 47.3268C195.688 47.6525 195.546 47.9366 195.353 48.1791C195.16 48.4215 194.91 48.609 194.603 48.7416C194.296 48.8742 193.927 48.9405 193.495 48.9405C193.196 48.9405 192.921 48.8988 192.671 48.8155C192.425 48.7283 192.213 48.592 192.035 48.4064C191.857 48.2207 191.718 47.9802 191.62 47.6847C191.525 47.3893 191.478 47.0313 191.478 46.6108V42.6789H192.154V46.6222C192.154 46.9518 192.19 47.2264 192.262 47.4461C192.338 47.6658 192.44 47.8419 192.569 47.9745C192.701 48.1071 192.853 48.2018 193.023 48.2586C193.194 48.3154 193.377 48.3438 193.574 48.3438C194.074 48.3438 194.468 48.2473 194.756 48.0541C195.048 47.8609 195.254 47.6071 195.376 47.2927C195.501 46.9745 195.563 46.6336 195.563 46.2699Z" fill="white"/>
<path d="M200.222 42.6789V43.2357H197.143V42.6789H200.222ZM198.273 41.0993H198.95V47.3325C198.95 47.6166 198.987 47.8306 199.063 47.9745C199.139 48.1185 199.237 48.2151 199.359 48.2643C199.48 48.3135 199.611 48.3382 199.751 48.3382C199.853 48.3382 199.951 48.3325 200.046 48.3211C200.141 48.306 200.226 48.2908 200.302 48.2757L200.33 48.8495C200.247 48.8761 200.139 48.8969 200.006 48.912C199.874 48.931 199.741 48.9405 199.609 48.9405C199.347 48.9405 199.116 48.8931 198.915 48.7984C198.715 48.6999 198.558 48.5333 198.444 48.2984C198.33 48.0597 198.273 47.7359 198.273 47.3268V41.0993Z" fill="white"/>
<path d="M202.404 42.6789V48.8268H201.728V42.6789H202.404ZM201.609 40.9004C201.609 40.7716 201.648 40.6637 201.728 40.5766C201.811 40.4856 201.925 40.4402 202.069 40.4402C202.213 40.4402 202.327 40.4856 202.41 40.5766C202.497 40.6637 202.541 40.7716 202.541 40.9004C202.541 41.0254 202.497 41.1334 202.41 41.2243C202.327 41.3114 202.213 41.355 202.069 41.355C201.925 41.355 201.811 41.3114 201.728 41.2243C201.648 41.1334 201.609 41.0254 201.609 40.9004Z" fill="white"/>
<path d="M203.887 45.8495V45.6619C203.887 45.215 203.952 44.8021 204.08 44.4233C204.209 44.0445 204.393 43.7168 204.632 43.4403C204.874 43.1638 205.164 42.9497 205.501 42.7982C205.838 42.6429 206.213 42.5653 206.626 42.5653C207.043 42.5653 207.42 42.6429 207.757 42.7982C208.094 42.9497 208.384 43.1638 208.626 43.4403C208.868 43.7168 209.054 44.0445 209.183 44.4233C209.312 44.8021 209.376 45.215 209.376 45.6619V45.8495C209.376 46.2964 209.312 46.7093 209.183 47.0881C209.054 47.4631 208.868 47.7889 208.626 48.0654C208.387 48.342 208.099 48.5579 207.762 48.7132C207.425 48.8647 207.05 48.9405 206.637 48.9405C206.221 48.9405 205.844 48.8647 205.507 48.7132C205.169 48.5579 204.88 48.342 204.637 48.0654C204.395 47.7889 204.209 47.4631 204.08 47.0881C203.952 46.7093 203.887 46.2964 203.887 45.8495ZM204.563 45.6619V45.8495C204.563 46.1866 204.609 46.5067 204.7 46.8097C204.791 47.109 204.923 47.376 205.097 47.6109C205.272 47.8419 205.488 48.0238 205.745 48.1563C206.003 48.2889 206.3 48.3552 206.637 48.3552C206.971 48.3552 207.264 48.2889 207.518 48.1563C207.776 48.0238 207.992 47.8419 208.166 47.6109C208.34 47.376 208.471 47.109 208.558 46.8097C208.649 46.5067 208.694 46.1866 208.694 45.8495V45.6619C208.694 45.3286 208.649 45.0123 208.558 44.7131C208.471 44.4138 208.338 44.1467 208.16 43.9119C207.986 43.677 207.77 43.4914 207.512 43.3551C207.255 43.2187 206.959 43.1505 206.626 43.1505C206.293 43.1505 205.997 43.2187 205.74 43.3551C205.486 43.4914 205.27 43.677 205.092 43.9119C204.918 44.1467 204.785 44.4138 204.694 44.7131C204.607 45.0123 204.563 45.3286 204.563 45.6619Z" fill="white"/>
<path d="M211.461 43.9914V48.8268H210.785V42.6789H211.433L211.461 43.9914ZM211.308 45.3722L211.007 45.2017C211.03 44.8381 211.103 44.4971 211.228 44.1789C211.353 43.8608 211.522 43.5804 211.734 43.338C211.95 43.0956 212.202 42.9062 212.49 42.7698C212.781 42.6334 213.103 42.5653 213.456 42.5653C213.763 42.5653 214.037 42.6069 214.28 42.6903C214.522 42.7736 214.728 42.9062 214.899 43.088C215.069 43.2698 215.198 43.5028 215.285 43.7869C215.376 44.071 215.422 44.4176 215.422 44.8267V48.8268H214.74V44.821C214.74 44.3968 214.681 44.0653 214.564 43.8267C214.446 43.5842 214.28 43.4119 214.064 43.3096C213.848 43.2073 213.592 43.1562 213.297 43.1562C212.971 43.1562 212.685 43.2282 212.439 43.3721C212.196 43.5123 211.992 43.696 211.825 43.9233C211.662 44.1467 211.537 44.3873 211.45 44.6449C211.363 44.8987 211.315 45.1411 211.308 45.3722Z" fill="white"/>
<path d="M0.234955 36.0936V4.65989H20.2056V8.96028H4.77178V17.7792H17.6007V22.0794H4.77178V31.7933H20.2056V36.0936H0.234955ZM31.7572 36.0936L23.2481 12.5183H27.8283L34.0582 30.3745L40.2883 12.5183H44.8684L36.3592 36.0936H31.7572ZM58.3293 36.7485C55.9994 36.7485 53.9517 36.2391 52.1862 35.2205C50.4351 34.1872 49.0676 32.7538 48.0835 30.9201C47.114 29.072 46.6291 26.9327 46.6291 24.5024C46.6291 21.9266 47.1066 19.6928 48.0617 17.8009C49.0314 15.909 50.3773 14.4465 52.0993 13.4133C53.8214 12.38 55.8257 11.8634 58.1122 11.8634C60.5001 11.8634 62.5332 12.4237 64.212 13.5444C65.8906 14.6502 67.1424 16.2293 67.9674 18.2812C68.8066 20.3331 69.1395 22.7707 68.9659 25.5939H64.429V23.9349C64.4002 21.1989 63.8791 19.1761 62.8661 17.8664C61.8676 16.5567 60.3409 15.9018 58.286 15.9018C56.0139 15.9018 54.3062 16.6222 53.163 18.0629C52.0197 19.5036 51.4481 21.5846 51.4481 24.306C51.4481 26.8963 52.0197 28.9046 53.163 30.3308C54.3062 31.7424 55.956 32.4482 58.1122 32.4482C59.5304 32.4482 60.7533 32.128 61.7807 31.4877C62.8227 30.8329 63.6331 29.9014 64.212 28.6936L68.662 30.1124C67.7502 32.2226 66.3682 33.8598 64.5159 35.024C62.6635 36.1737 60.6014 36.7485 58.3293 36.7485ZM49.9721 25.5939V22.0358H66.7084V25.5939H49.9721ZM89.6542 36.0936V24.5024C89.6542 23.5856 89.5747 22.6469 89.4154 21.6865C89.2708 20.7115 88.9813 19.8092 88.5471 18.9797C88.1275 18.1502 87.5269 17.4808 86.7454 16.9715C85.9785 16.462 84.9727 16.2074 83.7281 16.2074C82.9178 16.2074 82.1507 16.3457 81.4272 16.6222C80.7036 16.8842 80.0669 17.3134 79.517 17.9101C78.9815 18.5067 78.5546 19.2926 78.2362 20.2676C77.9323 21.2426 77.7803 22.4287 77.7803 23.8258L74.9584 22.7561C74.9584 20.6169 75.3564 18.7323 76.1523 17.1024C76.9483 15.4579 78.0914 14.1773 79.582 13.2605C81.0726 12.3437 82.8743 11.8853 84.9871 11.8853C86.6079 11.8853 87.9683 12.1473 89.0681 12.6711C90.1679 13.1951 91.0579 13.8862 91.7381 14.7448C92.4328 15.5889 92.9609 16.513 93.3227 17.5171C93.6846 18.5213 93.9306 19.5036 94.0608 20.4641C94.1911 21.4246 94.2561 22.2686 94.2561 22.9962V36.0936H89.6542ZM73.1784 36.0936V12.5183H77.2376V19.3289H77.7803V36.0936H73.1784ZM113.325 36.0936C111.849 36.3847 110.402 36.5083 108.984 36.4646C107.566 36.421 106.299 36.1445 105.185 35.6352C104.071 35.1259 103.231 34.3255 102.667 33.234C102.161 32.259 101.886 31.2694 101.842 30.2652C101.813 29.2466 101.799 28.0969 101.799 26.8163V5.96963H106.357V26.5981C106.357 27.5439 106.365 28.3662 106.379 29.0647C106.408 29.7632 106.56 30.3526 106.835 30.8329C107.356 31.7351 108.181 32.2517 109.31 32.3826C110.453 32.4991 111.791 32.4482 113.325 32.2298V36.0936ZM97.3053 16.1856V12.5183H113.325V16.1856H97.3053Z" fill="white"/>
<path d="M157.193 36.0936V4.65989H168.698C169.002 4.65989 169.313 4.67441 169.631 4.70356C169.95 4.71808 170.305 4.76175 170.695 4.83446C172.2 5.06735 173.503 5.62036 174.602 6.49347C175.716 7.35207 176.571 8.44356 177.164 9.76782C177.772 11.0776 178.075 12.5183 178.075 14.09C178.075 15.6616 177.772 17.1097 177.164 18.4339C176.571 19.7436 175.716 20.8351 174.602 21.7083C173.503 22.5669 172.2 23.1126 170.695 23.3455C170.305 23.4037 169.95 23.4474 169.631 23.4764C169.313 23.5055 169.002 23.5201 168.698 23.5201H159.016V36.0936H157.193ZM159.016 21.6865H168.698C168.945 21.6865 169.233 21.6718 169.566 21.6428C169.913 21.6136 170.262 21.57 170.609 21.5118C171.809 21.279 172.816 20.7987 173.626 20.0711C174.45 19.3434 175.073 18.4631 175.492 17.4298C175.913 16.3821 176.122 15.2687 176.122 14.09C176.122 12.9113 175.913 11.8053 175.492 10.772C175.073 9.72414 174.45 8.83651 173.626 8.10881C172.816 7.38123 171.809 6.90093 170.609 6.66817C170.262 6.59534 169.913 6.55166 169.566 6.53715C169.233 6.50811 168.945 6.49347 168.698 6.49347H159.016V21.6865ZM182.42 36.0936V12.5183H184.113V18.1502L183.548 17.408C183.794 16.7676 184.105 16.171 184.481 15.618C184.857 15.065 185.227 14.6138 185.589 14.2647C186.226 13.6388 186.978 13.1659 187.847 12.8457C188.729 12.5111 189.612 12.3218 190.495 12.2782C191.377 12.22 192.158 12.3001 192.84 12.5183V14.2647C191.87 14.0463 190.842 14.0099 189.756 14.1554C188.671 14.2865 187.658 14.7885 186.717 15.6616C185.893 16.433 185.307 17.3206 184.959 18.3248C184.627 19.3289 184.424 20.3695 184.351 21.4463C184.279 22.5087 184.243 23.5201 184.243 24.4805V36.0936H182.42ZM205.959 36.7485C203.643 36.7485 201.689 36.2172 200.098 35.1549C198.506 34.0926 197.298 32.6228 196.472 30.7455C195.648 28.8681 195.235 26.7071 195.235 24.2623C195.235 21.7883 195.654 19.62 196.494 17.7573C197.333 15.8945 198.549 14.4465 200.141 13.4133C201.747 12.38 203.686 11.8634 205.959 11.8634C208.289 11.8634 210.249 12.3945 211.842 13.4569C213.433 14.5047 214.634 15.96 215.444 17.8227C216.27 19.6855 216.683 21.832 216.683 24.2623C216.683 26.7507 216.27 28.9337 215.444 30.811C214.62 32.6737 213.404 34.129 211.797 35.1768C210.206 36.2245 208.26 36.7485 205.959 36.7485ZM205.959 34.9148C208.911 34.9148 211.11 33.9325 212.557 31.9679C214.005 29.9888 214.729 27.4202 214.729 24.2623C214.729 21.0461 213.998 18.4848 212.536 16.5784C211.088 14.6575 208.897 13.697 205.959 13.697C203.976 13.697 202.334 14.1482 201.031 15.0504C199.743 15.9527 198.781 17.197 198.144 18.7832C197.507 20.3695 197.189 22.1958 197.189 24.2623C197.189 27.4638 197.927 30.0397 199.404 31.9897C200.894 33.9398 203.078 34.9148 205.959 34.9148Z" fill="white"/>
<path fill-rule="evenodd" clip-rule="evenodd" d="M145.42 24.2005L140.611 19.3774C140.535 20.7409 139.984 22.1036 138.935 23.1461L136.224 25.8722L147.812 37.5252C147.812 30.6056 148.233 27.0685 145.458 24.2391L145.42 24.2005Z" fill="url(#paint0_linear_29_17)"/>
<path fill-rule="evenodd" clip-rule="evenodd" d="M140.611 18.734L145.42 13.8983C148.246 11.0559 147.812 7.53208 147.812 0.586654L136.224 12.2266L138.935 14.966C139.984 16.0079 140.535 17.3578 140.611 18.734Z" fill="url(#paint1_linear_29_17)"/>
<path fill-rule="evenodd" clip-rule="evenodd" d="M129.445 19.0559C133.091 21.2941 134.816 23.8146 133.703 25.68L121.924 37.5253C121.924 33.3585 121.144 27.3902 124.316 24.2004L129.445 19.0559Z" fill="url(#paint2_linear_29_17)"/>
<path fill-rule="evenodd" clip-rule="evenodd" d="M133.705 25.6798C134.369 24.0073 132.655 22.2843 129.445 19.0559L124.317 13.8981C121.49 11.0556 121.925 7.53184 121.925 0.586426L137.579 16.3291C139.076 17.8212 139.076 20.2782 137.579 21.7826L133.705 25.6798Z" fill="url(#paint3_linear_29_17)"/>
<path fill-rule="evenodd" clip-rule="evenodd" d="M140.611 18.734L142.273 17.0625C141.941 15.789 141.275 14.5929 140.291 13.5897L137.579 10.8629L136.224 12.2266L138.935 14.966C139.984 16.0079 140.535 17.3578 140.611 18.734Z" fill="url(#paint4_linear_29_17)"/>
<path fill-rule="evenodd" clip-rule="evenodd" d="M138.935 23.1461L136.224 25.8722L137.579 27.2361L140.291 24.5095C141.277 23.5193 141.941 22.3231 142.274 21.0497L140.612 19.378C140.535 20.7415 139.984 22.1036 138.935 23.1461Z" fill="url(#paint5_linear_29_17)"/>
<path fill-rule="evenodd" clip-rule="evenodd" d="M129.445 19.0559C132.655 22.2843 134.369 24.0075 133.703 25.68C133.512 23.2745 131.236 21.924 126.875 21.6278L129.445 19.0559Z" fill="url(#paint6_linear_29_17)"/>
<path fill-rule="evenodd" clip-rule="evenodd" d="M126.875 21.6278C131.236 21.924 133.512 23.2744 133.705 25.6798C131.466 26.9398 128.984 27.6473 126.466 27.7632C126.875 25.7569 127.015 23.6992 126.875 21.6278Z" fill="url(#paint7_linear_29_17)"/>
<path fill-rule="evenodd" clip-rule="evenodd" d="M126.873 21.6277C127.014 23.6991 126.873 25.7565 126.464 27.7632C125.135 27.8273 123.791 27.7247 122.474 27.4677C122.845 26.2201 123.421 25.1006 124.316 24.2004L126.875 21.6278L126.873 21.6277Z" fill="url(#paint8_linear_29_17)"/>
<path fill-rule="evenodd" clip-rule="evenodd" d="M126.464 27.7632C128.984 27.6472 131.466 26.9402 133.703 25.68L121.924 37.5253C124.2 34.6575 125.736 31.3008 126.464 27.7632Z" fill="url(#paint9_linear_29_17)"/>
<path fill-rule="evenodd" clip-rule="evenodd" d="M133.703 25.68C135.634 22.8119 135.34 18.7338 132.808 13.4477C135.43 14.7337 137.553 16.2648 138.411 17.5895C138.986 18.9786 138.705 20.6504 137.579 21.7826L133.703 25.68Z" fill="url(#paint10_linear_29_17)"/>
<path fill-rule="evenodd" clip-rule="evenodd" d="M138.41 17.5898C137.554 16.265 135.43 14.7341 132.808 13.4477C132.143 12.0715 131.337 10.6184 130.378 9.07511L137.579 16.3291C137.95 16.6893 138.231 17.1268 138.41 17.5898Z" fill="url(#paint11_linear_29_17)"/>
<path fill-rule="evenodd" clip-rule="evenodd" d="M132.808 13.4477C135.34 18.7338 135.634 22.8119 133.703 25.68C134.368 24.0073 132.655 22.2843 129.445 19.0559L124.316 13.8982C123.357 12.9334 122.768 11.8918 122.423 10.6572C125.722 10.709 129.636 11.9047 132.808 13.4477Z" fill="url(#paint12_linear_29_17)"/>
<defs>
<linearGradient id="paint0_linear_29_17" x1="334.004" y1="25.9341" x2="-0.685693" y2="25.9341" gradientUnits="userSpaceOnUse">
<stop stop-color="#D58BDB"/>
<stop offset="0.3" stop-color="#C66ACB"/>
<stop offset="0.66" stop-color="#9D4AC5"/>
<stop offset="1" stop-color="#6416C2"/>
</linearGradient>
<linearGradient id="paint1_linear_29_17" x1="333.972" y1="25.9332" x2="-0.685606" y2="25.9332" gradientUnits="userSpaceOnUse">
<stop stop-color="#D58BDB"/>
<stop offset="0.3" stop-color="#C66ACB"/>
<stop offset="0.66" stop-color="#9D4AC5"/>
<stop offset="1" stop-color="#6416C2"/>
</linearGradient>
<linearGradient id="paint2_linear_29_17" x1="333.555" y1="25.935" x2="-9.98532" y2="25.935" gradientUnits="userSpaceOnUse">
<stop stop-color="#662D80"/>
<stop offset="0.49" stop-color="#C10067"/>
<stop offset="1" stop-color="#FF644B"/>
</linearGradient>
<linearGradient id="paint3_linear_29_17" x1="108.456" y1="51.8644" x2="108.456" y2="0.989267" gradientUnits="userSpaceOnUse">
<stop stop-color="#C41F1B"/>
<stop offset="0.33" stop-color="#D36D1D"/>
<stop offset="0.66" stop-color="#DBA21D"/>
<stop offset="1" stop-color="#E2DD86"/>
</linearGradient>
<linearGradient id="paint4_linear_29_17" x1="905.219" y1="25.9327" x2="-4.52262" y2="25.9327" gradientUnits="userSpaceOnUse">
<stop stop-color="#D58BDB"/>
<stop offset="0.3" stop-color="#C66ACB"/>
<stop offset="0.66" stop-color="#9D4AC5"/>
<stop offset="1" stop-color="#6416C2"/>
</linearGradient>
<linearGradient id="paint5_linear_29_17" x1="905.03" y1="25.9327" x2="-4.52163" y2="25.9327" gradientUnits="userSpaceOnUse">
<stop stop-color="#D58BDB"/>
<stop offset="0.3" stop-color="#C66ACB"/>
<stop offset="0.66" stop-color="#9D4AC5"/>
<stop offset="1" stop-color="#6416C2"/>
</linearGradient>
<linearGradient id="paint6_linear_29_17" x1="275.249" y1="25.9339" x2="-433.221" y2="25.9339" gradientUnits="userSpaceOnUse">
<stop stop-color="#662D80"/>
<stop offset="0.49" stop-color="#C10067"/>
<stop offset="1" stop-color="#FF644B"/>
</linearGradient>
<linearGradient id="paint7_linear_29_17" x1="423.589" y1="25.9345" x2="-331.55" y2="25.9345" gradientUnits="userSpaceOnUse">
<stop stop-color="#662D80"/>
<stop offset="0.49" stop-color="#C10067"/>
<stop offset="1" stop-color="#FF644B"/>
</linearGradient>
<linearGradient id="paint8_linear_29_17" x1="882.645" y1="25.9354" x2="-107.303" y2="25.9354" gradientUnits="userSpaceOnUse">
<stop stop-color="#662D80"/>
<stop offset="0.49" stop-color="#C10067"/>
<stop offset="1" stop-color="#FF644B"/>
</linearGradient>
<linearGradient id="paint9_linear_29_17" x1="343.865" y1="25.9342" x2="-58.1141" y2="25.9342" gradientUnits="userSpaceOnUse">
<stop stop-color="#662D80"/>
<stop offset="0.49" stop-color="#C10067"/>
<stop offset="1" stop-color="#FF644B"/>
</linearGradient>
<linearGradient id="paint10_linear_29_17" x1="108.458" y1="52.4772" x2="108.458" y2="-106.652" gradientUnits="userSpaceOnUse">
<stop stop-color="#C41F1B"/>
<stop offset="0.33" stop-color="#D36D1D"/>
<stop offset="0.66" stop-color="#DBA21D"/>
<stop offset="1" stop-color="#E2DD86"/>
</linearGradient>
<linearGradient id="paint11_linear_29_17" x1="108.476" y1="101.168" x2="108.476" y2="-96.5406" gradientUnits="userSpaceOnUse">
<stop stop-color="#C41F1B"/>
<stop offset="0.33" stop-color="#D36D1D"/>
<stop offset="0.66" stop-color="#DBA21D"/>
<stop offset="1" stop-color="#E2DD86"/>
</linearGradient>
<linearGradient id="paint12_linear_29_17" x1="128.69" y1="25.9683" x2="128.69" y2="-2.78108" gradientUnits="userSpaceOnUse">
<stop stop-color="#C41F1B"/>
<stop offset="0.33" stop-color="#D36D1D"/>
<stop offset="0.66" stop-color="#DBA21D"/>
<stop offset="1" stop-color="#E2DD86"/>
</linearGradient>
</defs>
</svg>
