<svg width="20" height="21" viewBox="0 0 20 21" fill="none" xmlns="http://www.w3.org/2000/svg">
<path d="M1.6665 10.6699C1.6665 8.76287 1.6665 7.80936 2.09917 7.01891C2.53184 6.22847 3.3223 5.73788 4.9032 4.75673L6.56986 3.72235C8.241 2.6852 9.07659 2.16663 9.99984 2.16663C10.9231 2.16663 11.7587 2.6852 13.4298 3.72235L15.0965 4.75673C16.6774 5.73788 17.4678 6.22847 17.9005 7.01891C18.3332 7.80936 18.3332 8.76287 18.3332 10.6699V11.9375C18.3332 15.1881 18.3332 16.8135 17.3568 17.8234C16.3806 18.8333 14.8092 18.8333 11.6665 18.8333H8.33317C5.19047 18.8333 3.61913 18.8333 2.64281 17.8234C1.6665 16.8135 1.6665 15.1881 1.6665 11.9375V10.6699Z" stroke="#fff"/>
<path d="M12.5 15.5H7.5" stroke="#fff" stroke-linecap="round"/>
</svg>
