<svg width="20" height="18" viewBox="0 0 20 18" fill="none" xmlns="http://www.w3.org/2000/svg">
<path d="M9.77062 10.0493C10.0868 10.0493 10.3999 9.9901 10.6921 9.87504C10.9842 9.75998 11.2496 9.59134 11.4732 9.37873C11.6968 9.16613 11.8742 8.91373 11.9952 8.63595C12.1162 8.35816 12.1784 8.06044 12.1784 7.75977C12.1784 7.4591 12.1162 7.16138 11.9952 6.8836C11.8742 6.60581 11.6968 6.35341 11.4732 6.14081C11.2496 5.92821 10.9842 5.75956 10.6921 5.6445C10.3999 5.52944 10.0868 5.47021 9.77062 5.47021C9.13202 5.47021 8.51958 5.71143 8.06803 6.14081C7.61647 6.57018 7.36279 7.15254 7.36279 7.75977C7.36279 8.367 7.61647 8.94936 8.06803 9.37873C8.51958 9.80811 9.13202 10.0493 9.77062 10.0493Z" stroke="#fff" stroke-width="1.10075"/>
<path d="M3.30429 6.42419C4.82461 0.0692073 14.726 0.0765458 16.2386 6.43153C17.1261 10.1594 14.6874 13.3149 12.5497 15.2669C11.8027 15.9519 10.8054 16.3347 9.7676 16.3347C8.7298 16.3347 7.73247 15.9519 6.98548 15.2669C4.85548 13.3149 2.41679 10.1521 3.30429 6.42419Z" stroke="#fff" stroke-width="1.10075"/>
</svg>
