<svg width="18" height="18" viewBox="0 0 18 18" fill="none" xmlns="http://www.w3.org/2000/svg">
<path d="M1.5 12C1.5 9.8787 1.5 8.81805 2.15901 8.15903C2.81802 7.5 3.87868 7.5 6 7.5H12C14.1213 7.5 15.1819 7.5 15.841 8.15903C16.5 8.81805 16.5 9.8787 16.5 12C16.5 14.1213 16.5 15.1819 15.841 15.841C15.1819 16.5 14.1213 16.5 12 16.5H6C3.87868 16.5 2.81802 16.5 2.15901 15.841C1.5 15.1819 1.5 14.1213 1.5 12Z" stroke="#fff"/>
<path d="M4.5 7.5V6C4.5 3.51472 6.51472 1.5 9 1.5C11.0968 1.5 12.8587 2.93412 13.3583 4.875" stroke="#fff" stroke-linecap="round"/>
</svg>
