<svg width="59" height="62" viewBox="0 0 59 62" fill="none" xmlns="http://www.w3.org/2000/svg">
<rect x="0.5" y="0.5" width="58" height="61" rx="13.5" fill="white" stroke="#EAEAEA"/>
<path fill-rule="evenodd" clip-rule="evenodd" d="M43.0261 37.4066L37.1063 31.4004C37.0128 33.0984 36.3348 34.7953 35.0442 36.0935L31.7071 39.4884L45.9705 53.9998C45.9705 45.3828 46.4895 40.9782 43.0729 37.4547L43.0261 37.4066Z" fill="url(#paint0_linear_166_5248)"/>
<path fill-rule="evenodd" clip-rule="evenodd" d="M37.1063 30.5992L43.0261 24.5773C46.5051 21.0376 45.9705 16.6494 45.9705 8.00028L31.7071 22.4955L35.0442 25.9069C36.3348 27.2044 37.0128 28.8854 37.1063 30.5992Z" fill="url(#paint1_linear_166_5248)"/>
<path fill-rule="evenodd" clip-rule="evenodd" d="M23.3621 31C27.8495 33.7873 29.974 36.926 28.6039 39.249L14.1045 54C14.1045 48.8111 13.144 41.3787 17.048 37.4065L23.3621 31Z" fill="url(#paint2_linear_166_5248)"/>
<path fill-rule="evenodd" clip-rule="evenodd" d="M28.6055 39.2489C29.4238 37.1661 27.3134 35.0203 23.3621 31L17.0496 24.577C13.5697 21.0373 14.1051 16.6491 14.1051 8L33.375 27.6044C35.2174 29.4624 35.2174 32.5221 33.375 34.3956L28.6055 39.2489Z" fill="url(#paint3_linear_166_5248)"/>
<path fill-rule="evenodd" clip-rule="evenodd" d="M37.1063 30.5992L39.1528 28.5177C38.7445 26.9317 37.9246 25.4423 36.7135 24.193L33.3748 20.7972L31.7071 22.4955L35.0442 25.9069C36.3348 27.2044 37.0128 28.8854 37.1063 30.5992Z" fill="url(#paint4_linear_166_5248)"/>
<path fill-rule="evenodd" clip-rule="evenodd" d="M35.0442 36.0935L31.7071 39.4884L33.3748 41.1869L36.7135 37.7915C37.9262 36.5583 38.7445 35.0687 39.1544 33.4829L37.1079 31.4012C37.0128 33.0992 36.3348 34.7953 35.0442 36.0935Z" fill="url(#paint5_linear_166_5248)"/>
<path fill-rule="evenodd" clip-rule="evenodd" d="M23.3621 31C27.3134 35.0203 29.4238 37.1662 28.6039 39.249C28.3686 36.2535 25.5663 34.5716 20.1982 34.2028L23.3621 31Z" fill="url(#paint6_linear_166_5248)"/>
<path fill-rule="evenodd" clip-rule="evenodd" d="M20.1982 34.2028C25.5663 34.5716 28.3686 36.2534 28.6055 39.2489C25.8498 40.8179 22.7948 41.6989 19.6946 41.8432C20.1981 39.3448 20.3712 36.7824 20.1982 34.2028Z" fill="url(#paint7_linear_166_5248)"/>
<path fill-rule="evenodd" clip-rule="evenodd" d="M20.1964 34.2027C20.3694 36.7822 20.1964 39.3444 19.6929 41.8432C18.0563 41.9231 16.4028 41.7953 14.7811 41.4753C15.238 39.9217 15.9463 38.5275 17.048 37.4065L20.1982 34.2028L20.1964 34.2027Z" fill="url(#paint8_linear_166_5248)"/>
<path fill-rule="evenodd" clip-rule="evenodd" d="M19.6929 41.8432C22.7947 41.6988 25.8498 40.8183 28.6039 39.249L14.1045 54C16.906 50.4288 18.7967 46.2487 19.6929 41.8432Z" fill="url(#paint9_linear_166_5248)"/>
<path fill-rule="evenodd" clip-rule="evenodd" d="M28.6039 39.249C30.9809 35.6774 30.6191 30.5989 27.5018 24.0161C30.7298 25.6177 33.3421 27.5243 34.3989 29.174C35.1065 30.9038 34.7607 32.9856 33.375 34.3956L28.6039 39.249Z" fill="url(#paint10_linear_166_5248)"/>
<path fill-rule="evenodd" clip-rule="evenodd" d="M34.3973 29.1743C33.3436 27.5246 30.7298 25.6181 27.5018 24.0161C26.6835 22.3023 25.6906 20.4928 24.5107 18.571L33.375 27.6044C33.8317 28.0529 34.1775 28.5978 34.3973 29.1743Z" fill="url(#paint11_linear_166_5248)"/>
<path fill-rule="evenodd" clip-rule="evenodd" d="M27.5018 24.0161C30.6191 30.5989 30.9809 35.6774 28.6039 39.249C29.4222 37.1661 27.3134 35.0203 23.3621 31L17.048 24.5772C15.8678 23.3757 15.1432 22.0786 14.7182 20.5412C18.7797 20.6057 23.5973 22.0946 27.5018 24.0161Z" fill="url(#paint12_linear_166_5248)"/>
<defs>
<linearGradient id="paint0_linear_166_5248" x1="63.345" y1="31.0002" x2="13.8639" y2="31.0002" gradientUnits="userSpaceOnUse">
<stop stop-color="#D58BDB"/>
<stop offset="0.3" stop-color="#C66ACB"/>
<stop offset="0.66" stop-color="#9D4AC5"/>
<stop offset="1" stop-color="#6416C2"/>
</linearGradient>
<linearGradient id="paint1_linear_166_5248" x1="63.3403" y1="30.9993" x2="13.8639" y2="30.9993" gradientUnits="userSpaceOnUse">
<stop stop-color="#D58BDB"/>
<stop offset="0.3" stop-color="#C66ACB"/>
<stop offset="0.66" stop-color="#9D4AC5"/>
<stop offset="1" stop-color="#6416C2"/>
</linearGradient>
<linearGradient id="paint2_linear_166_5248" x1="63.2786" y1="31.001" x2="12.489" y2="31.001" gradientUnits="userSpaceOnUse">
<stop stop-color="#662D80"/>
<stop offset="0.49" stop-color="#C10067"/>
<stop offset="1" stop-color="#FF644B"/>
</linearGradient>
<linearGradient id="paint3_linear_166_5248" x1="29.9995" y1="54.5289" x2="29.9995" y2="8.36553" gradientUnits="userSpaceOnUse">
<stop stop-color="#C41F1B"/>
<stop offset="0.33" stop-color="#D36D1D"/>
<stop offset="0.66" stop-color="#DBA21D"/>
<stop offset="1" stop-color="#E2DD86"/>
</linearGradient>
<linearGradient id="paint4_linear_166_5248" x1="147.794" y1="30.9989" x2="13.2966" y2="30.9989" gradientUnits="userSpaceOnUse">
<stop stop-color="#D58BDB"/>
<stop offset="0.3" stop-color="#C66ACB"/>
<stop offset="0.66" stop-color="#9D4AC5"/>
<stop offset="1" stop-color="#6416C2"/>
</linearGradient>
<linearGradient id="paint5_linear_166_5248" x1="147.766" y1="30.9989" x2="13.2968" y2="30.9989" gradientUnits="userSpaceOnUse">
<stop stop-color="#D58BDB"/>
<stop offset="0.3" stop-color="#C66ACB"/>
<stop offset="0.66" stop-color="#9D4AC5"/>
<stop offset="1" stop-color="#6416C2"/>
</linearGradient>
<linearGradient id="paint6_linear_166_5248" x1="54.6585" y1="31" x2="-50.0829" y2="31" gradientUnits="userSpaceOnUse">
<stop stop-color="#662D80"/>
<stop offset="0.49" stop-color="#C10067"/>
<stop offset="1" stop-color="#FF644B"/>
</linearGradient>
<linearGradient id="paint7_linear_166_5248" x1="76.5895" y1="31.0005" x2="-35.0517" y2="31.0005" gradientUnits="userSpaceOnUse">
<stop stop-color="#662D80"/>
<stop offset="0.49" stop-color="#C10067"/>
<stop offset="1" stop-color="#FF644B"/>
</linearGradient>
<linearGradient id="paint8_linear_166_5248" x1="144.457" y1="31.0014" x2="-1.8986" y2="31.0014" gradientUnits="userSpaceOnUse">
<stop stop-color="#662D80"/>
<stop offset="0.49" stop-color="#C10067"/>
<stop offset="1" stop-color="#FF644B"/>
</linearGradient>
<linearGradient id="paint9_linear_166_5248" x1="64.8029" y1="31.0002" x2="5.37358" y2="31.0002" gradientUnits="userSpaceOnUse">
<stop stop-color="#662D80"/>
<stop offset="0.49" stop-color="#C10067"/>
<stop offset="1" stop-color="#FF644B"/>
</linearGradient>
<linearGradient id="paint10_linear_166_5248" x1="29.9999" y1="55.0851" x2="29.9999" y2="-89.3072" gradientUnits="userSpaceOnUse">
<stop stop-color="#C41F1B"/>
<stop offset="0.33" stop-color="#D36D1D"/>
<stop offset="0.66" stop-color="#DBA21D"/>
<stop offset="1" stop-color="#E2DD86"/>
</linearGradient>
<linearGradient id="paint11_linear_166_5248" x1="30.0025" y1="99.266" x2="30.0025" y2="-80.1318" gradientUnits="userSpaceOnUse">
<stop stop-color="#C41F1B"/>
<stop offset="0.33" stop-color="#D36D1D"/>
<stop offset="0.66" stop-color="#DBA21D"/>
<stop offset="1" stop-color="#E2DD86"/>
</linearGradient>
<linearGradient id="paint12_linear_166_5248" x1="22.4334" y1="39.608" x2="22.4334" y2="3.80644" gradientUnits="userSpaceOnUse">
<stop stop-color="#C41F1B"/>
<stop offset="0.33" stop-color="#D36D1D"/>
<stop offset="0.66" stop-color="#DBA21D"/>
<stop offset="1" stop-color="#E2DD86"/>
</linearGradient>
</defs>
</svg>
