<svg width="10" height="10" viewBox="0 0 10 10" fill="none" xmlns="http://www.w3.org/2000/svg">
<path d="M4.79757 0C2.15272 0 0 2.24356 0 5C0 7.75644 2.15272 10 4.79757 10C5.81902 10 6.76325 9.65893 7.53759 9.09098C7.62436 9.02742 7.68335 8.93053 7.70158 8.82164C7.71981 8.71275 7.69579 8.60077 7.6348 8.51033C7.57381 8.4199 7.48085 8.35842 7.37637 8.33942C7.27188 8.32042 7.16444 8.34545 7.07766 8.40902C6.42952 8.88441 5.64877 9.16667 4.79757 9.16667C2.58488 9.16667 0.799595 7.30606 0.799595 5C0.799595 2.69394 2.58488 0.833333 4.79757 0.833333C5.64877 0.833333 6.42952 1.11559 7.07766 1.59098C7.12063 1.62246 7.16912 1.6448 7.22037 1.65674C7.27163 1.66868 7.32463 1.66999 7.37637 1.66058C7.4281 1.65117 7.47755 1.63124 7.52189 1.60191C7.56624 1.57258 7.6046 1.53444 7.6348 1.48966C7.665 1.44489 7.68644 1.39435 7.6979 1.34093C7.70936 1.28752 7.71061 1.23228 7.70158 1.17836C7.69255 1.12444 7.67343 1.0729 7.64529 1.02669C7.61715 0.980475 7.58055 0.94049 7.53759 0.909017C6.76325 0.341073 5.81902 0 4.79757 0ZM7.99204 2.9126C7.91251 2.91262 7.83479 2.93736 7.76882 2.98366C7.70285 3.02996 7.65163 3.09571 7.6217 3.1725C7.59177 3.2493 7.5845 3.33365 7.60081 3.41478C7.61713 3.49591 7.65628 3.57012 7.71328 3.62793L8.63 4.58333H4.39777C4.34479 4.58255 4.29219 4.59275 4.24303 4.61334C4.19387 4.63393 4.14912 4.6645 4.1114 4.70327C4.07367 4.74203 4.04371 4.78823 4.02326 4.83917C4.00281 4.89011 3.99228 4.94478 3.99228 5C3.99228 5.05522 4.00281 5.10989 4.02326 5.16083C4.04371 5.21177 4.07367 5.25796 4.1114 5.29673C4.14912 5.3355 4.19387 5.36607 4.24303 5.38666C4.29219 5.40725 4.34479 5.41745 4.39777 5.41667H8.63L7.71328 6.37207C7.67491 6.41046 7.64427 6.45645 7.62317 6.50734C7.60207 6.55822 7.59092 6.61299 7.59038 6.66842C7.58983 6.72386 7.59991 6.77885 7.62002 6.83017C7.64012 6.88149 7.66985 6.92812 7.70747 6.96732C7.74508 7.00652 7.78982 7.0375 7.83906 7.05846C7.88831 7.07941 7.94107 7.08992 7.99426 7.08935C8.04745 7.08879 8.1 7.07717 8.14883 7.05517C8.19765 7.03318 8.24178 7.00125 8.27862 6.96126L9.84267 5.33122C9.89165 5.29228 9.93133 5.24207 9.95862 5.18451C9.98592 5.12695 10.0001 5.0636 10 4.99939C9.99992 4.93519 9.98561 4.87187 9.95819 4.81438C9.93076 4.75689 9.89096 4.70678 9.84189 4.66797L8.27862 3.03874C8.24136 2.99882 8.19681 2.9671 8.14758 2.94543C8.09836 2.92376 8.04547 2.9126 7.99204 2.9126Z" fill="#fff"/>
</svg>
