<svg width="60" height="60" viewBox="0 0 60 60" fill="none" xmlns="http://www.w3.org/2000/svg">
<path d="M7.70421 34.8612C6.38246 32.4852 5.72156 31.2969 5.72156 29.9999C5.72156 28.7029 6.38246 27.5147 7.70423 25.1387L11.0774 19.0749L14.6421 13.1218C16.039 10.7891 16.7375 9.6227 17.8608 8.97415C18.9841 8.3256 20.3434 8.3039 23.0621 8.26055L30 8.1499L36.938 8.26055C39.6565 8.3039 41.016 8.3256 42.1393 8.97415C43.2625 9.6227 43.961 10.7891 45.3578 13.1218L48.9228 19.0749L52.2958 25.1387C53.6175 27.5147 54.2785 28.7029 54.2785 29.9999C54.2785 31.2969 53.6175 32.4852 52.2958 34.8612L48.9228 40.9249L45.3578 46.8779C43.961 49.2107 43.2625 50.3771 42.1393 51.0257C41.016 51.6742 39.6565 51.6959 36.938 51.7392L30 51.8499L23.0621 51.7392C20.3434 51.6959 18.9841 51.6742 17.8608 51.0257C16.7375 50.3771 16.039 49.2107 14.6421 46.8779L11.0774 40.9249L7.70421 34.8612Z" stroke="white" stroke-width="2"/>
<path d="M30 37.5C34.1421 37.5 37.5 34.1421 37.5 30C37.5 25.8579 34.1421 22.5 30 22.5C25.8579 22.5 22.5 25.8579 22.5 30C22.5 34.1421 25.8579 37.5 30 37.5Z" stroke="white" stroke-width="2"/>
</svg>
