<svg width="70" height="61" viewBox="0 0 70 61" fill="none" xmlns="http://www.w3.org/2000/svg">
<path d="M12.5914 52.6688C11.9258 52.6688 11.3711 52.225 11.2047 51.5594L4.10469 20.9961H3.27266C1.44219 20.9406 0 19.443 0 17.6125C0 15.782 1.49766 14.2844 3.38359 14.2844C5.21406 14.2844 6.76719 15.782 6.76719 17.668C6.76719 18.1117 6.65625 18.6109 6.48984 19.0547L5.99062 19.9977L21.0781 26.7648L33.5031 7.51719L32.6711 6.90703C31.7836 6.29688 31.2289 5.24297 31.2289 4.13359C31.2289 2.30312 32.7266 0.75 34.6125 0.75C36.4984 0.75 37.9961 2.24766 37.9961 4.13359C37.9961 5.24297 37.4414 6.29688 36.5539 6.90703L35.7219 7.46172L46.8156 26.7648L63.2344 19.9422L62.7906 18.9438C62.6242 18.5 62.5133 18.0563 62.5133 17.6125C62.5133 15.782 64.0109 14.2289 65.8969 14.2289C67.7273 14.2289 69.2805 15.7266 69.2805 17.6125C69.2805 19.443 67.7828 20.9961 65.8969 20.9961H64.9539L57.8539 51.6148C57.6875 52.2805 57.1328 52.7242 56.4672 52.7242H12.5914V52.6688ZM13.7008 49.8953H55.4133L61.5148 23.7141L46.8156 29.8156C46.6492 29.8711 46.4828 29.9266 46.2609 29.9266C45.7617 29.9266 45.318 29.6492 45.0406 29.2609L34.5016 11.1227L22.7422 29.2609C22.4648 29.6492 22.0211 29.9266 21.5773 29.9266C21.3555 29.9266 21.1891 29.8711 21.0227 29.8156L7.65469 23.825L13.7008 49.8953ZM10.3172 60.4898C9.37422 60.4898 8.65312 59.7688 8.65312 58.8258C8.65312 57.8828 9.37422 57.1617 10.3172 57.1617H58.7969C59.7398 57.1617 60.4609 57.8828 60.4609 58.8258C60.4609 59.7688 59.7398 60.4898 58.7969 60.4898H10.3172Z" fill="white"/>
</svg>
