<svg width="23" height="21" viewBox="0 0 23 21" fill="none" xmlns="http://www.w3.org/2000/svg">
<path d="M13.175 4.375C13.175 3.4125 12.3458 2.625 11.3323 2.625C10.3188 2.625 9.48961 3.4125 9.48961 4.375C9.48961 5.3375 10.3188 6.125 11.3323 6.125C12.3458 6.125 13.175 5.3375 13.175 4.375ZM13.175 16.625C13.175 15.6625 12.3458 14.875 11.3323 14.875C10.3188 14.875 9.48961 15.6625 9.48961 16.625C9.48961 17.5875 10.3188 18.375 11.3323 18.375C12.3458 18.375 13.175 17.5875 13.175 16.625ZM13.175 10.5C13.175 9.5375 12.3458 8.75 11.3323 8.75C10.3188 8.75 9.48961 9.5375 9.48961 10.5C9.48961 11.4625 10.3188 12.25 11.3323 12.25C12.3458 12.25 13.175 11.4625 13.175 10.5Z" fill="white"/>
</svg>
