<svg width="31" height="30" viewBox="0 0 31 30" fill="none" xmlns="http://www.w3.org/2000/svg">
<path fill-rule="evenodd" clip-rule="evenodd" d="M15.3515 24.5C16.4515 24.5 17.3515 23.6 17.3515 22.5H13.3515C13.3515 23.6 14.2415 24.5 15.3515 24.5ZM21.3515 18.5V13.5C21.3515 10.43 19.7115 7.86 16.8515 7.18V6.5C16.8515 5.67 16.1815 5 15.3515 5C14.5215 5 13.8515 5.67 13.8515 6.5V7.18C10.9815 7.86 9.35149 10.42 9.35149 13.5V18.5L8.06149 19.79C7.43149 20.42 7.87149 21.5 8.76149 21.5H21.9315C22.8215 21.5 23.2715 20.42 22.6415 19.79L21.3515 18.5Z" fill="#fff"/>
</svg>
