<svg width="16" height="20" viewBox="0 0 16 20" fill="none" xmlns="http://www.w3.org/2000/svg">
<path fill-rule="evenodd" clip-rule="evenodd" d="M8.35149 19.5C9.45149 19.5 10.3515 18.6 10.3515 17.5H6.35149C6.35149 18.6 7.24149 19.5 8.35149 19.5ZM14.3515 13.5V8.5C14.3515 5.43 12.7115 2.86 9.85149 2.18V1.5C9.85149 0.67 9.18149 0 8.35149 0C7.52149 0 6.85149 0.67 6.85149 1.5V2.18C3.98149 2.86 2.35149 5.42 2.35149 8.5V13.5L1.06149 14.79C0.431492 15.42 0.871492 16.5 1.76149 16.5H14.9315C15.8215 16.5 16.2715 15.42 15.6415 14.79L14.3515 13.5Z" fill="#5E2EC3"/>
</svg>
