<svg width="60" height="60" viewBox="0 0 60 60" fill="none" xmlns="http://www.w3.org/2000/svg">
<path d="M51.8181 16.3637V43.6364C51.8181 54.5455 49.0909 57.2727 38.1818 57.2727H21.8181C10.909 57.2727 8.18176 54.5455 8.18176 43.6364V16.3637C8.18176 5.45457 10.909 2.72729 21.8181 2.72729H38.1818C49.0909 2.72729 51.8181 5.45457 51.8181 16.3637Z" stroke="white" stroke-width="2" stroke-linecap="round" stroke-linejoin="round"/>
<path d="M35.4545 12.2727H24.5454" stroke="white" stroke-width="2" stroke-linecap="round" stroke-linejoin="round"/>
<path d="M29.9999 49.3637C32.3345 49.3637 34.2273 47.471 34.2273 45.1365C34.2273 42.8019 32.3345 40.9092 29.9999 40.9092C27.6652 40.9092 25.7726 42.8019 25.7726 45.1365C25.7726 47.471 27.6652 49.3637 29.9999 49.3637Z" stroke="white" stroke-width="2" stroke-linecap="round" stroke-linejoin="round"/>
</svg>
