<svg width="115" height="102" viewBox="0 0 115 102" fill="none" xmlns="http://www.w3.org/2000/svg">
<path fill-rule="evenodd" clip-rule="evenodd" d="M77.6502 100.896C80.9426 99.6444 86.081 96.8949 89.7992 94.3956C94.2477 91.4053 100.36 85.702 103.403 81.7011C108.871 74.5149 111.731 67.2059 113.374 56.2192C114.48 48.8313 114.558 46.9556 114.66 25.5121C114.769 2.70636 114.867 4.13784 113.06 2.33096C111.317 0.587082 112.348 0.665458 91.1095 0.665457C70.5965 0.665455 71.3146 0.6236 69.6199 1.91636C69.1871 2.24635 68.5625 2.97667 68.2316 3.53911L67.6305 4.56201L67.5701 23.9925L67.5096 43.4229L67.9907 44.5413C68.5556 45.8543 70.106 47.3177 71.277 47.643C71.757 47.7761 75.7573 47.8674 81.1571 47.8681L90.2305 47.8694L90.2305 49.2695C90.2305 52.4573 89.3216 57.8673 88.1838 61.4517C86.6712 66.2171 84.3634 70.0593 81.0204 73.3776C78.293 76.0849 75.1348 78.2349 70.6952 80.4072C67.4488 81.9954 66.9618 82.3895 66.0698 84.151C65.8336 84.6175 65.6762 85.4489 65.6684 86.2707C65.6572 87.4604 65.8055 87.9436 66.9021 90.2906C71.0752 99.2217 71.4166 99.7884 73.1598 100.678C74.4381 101.33 76.2737 101.419 77.6502 100.896ZM11.8069 101.059C13.0408 100.831 18.8432 97.992 21.9851 96.0784C31.5172 90.273 38.9578 82.4953 43.312 73.7855C46.4958 67.4167 48.0729 60.9832 49.1835 49.831C49.4788 46.8674 49.5634 42.4363 49.6431 25.7365C49.7533 2.68053 49.8531 4.1405 48.0435 2.33095C46.2998 0.587297 47.3301 0.665453 26.1043 0.665451C5.41541 0.665449 6.14062 0.620466 4.4582 2.0072C4.01688 2.37102 3.39633 3.18952 3.07904 3.82611L2.50235 4.9835L2.50725 24.2554C2.51214 43.1624 2.52083 43.5465 2.96571 44.5295C3.48695 45.6813 4.28207 46.5784 5.39693 47.2727C6.15821 47.7469 6.39734 47.7607 15.7475 47.8694L25.3188 47.9807L25.2509 49.762C25.0752 54.3628 23.9646 59.8383 22.422 63.7063C20.836 67.6835 18.9365 70.5845 16.0539 73.4319C13.4305 76.0232 10.7521 77.8697 6.54786 79.985C2.51749 82.0128 1.39104 82.9473 0.934808 84.6413C0.394861 86.6463 0.679208 87.6565 3.33666 93.1807C4.81979 96.2637 6.13593 98.6911 6.6436 99.2799C7.93324 100.775 9.82052 101.426 11.8069 101.059Z" fill="#3E66DF"/>
</svg>
