<svg width="18" height="18" viewBox="0 0 18 18" fill="none" xmlns="http://www.w3.org/2000/svg">
<path fill-rule="evenodd" clip-rule="evenodd" d="M12.9063 11.0006H12.1163L11.8363 10.7306C13.0363 9.33063 13.6563 7.42063 13.3163 5.39063C12.8463 2.61063 10.5263 0.390626 7.72627 0.0506256C3.49627 -0.469374 -0.0637347 3.09063 0.456265 7.32063C0.796265 10.1206 3.01627 12.4406 5.79627 12.9106C7.82626 13.2506 9.73627 12.6306 11.1363 11.4306L11.4063 11.7106V12.5006L15.6563 16.7506C16.0663 17.1606 16.7363 17.1606 17.1463 16.7506C17.5563 16.3406 17.5563 15.6706 17.1463 15.2606L12.9063 11.0006ZM6.90627 11.0006C4.41627 11.0006 2.40627 8.99063 2.40627 6.50063C2.40627 4.01063 4.41627 2.00063 6.90627 2.00063C9.39627 2.00063 11.4063 4.01063 11.4063 6.50063C11.4063 8.99063 9.39627 11.0006 6.90627 11.0006Z" fill="#fff"/>
</svg>
