<svg width="44" height="50" viewBox="0 0 44 50" fill="none" xmlns="http://www.w3.org/2000/svg">
<path d="M22 31.5527V36.7949M8.89453 19.8333C10.1302 19.7578 11.6535 19.7578 13.6125 19.7578H30.3875C32.3465 19.7578 33.8699 19.7578 35.1055 19.8333M8.89453 19.8333C7.35249 19.9274 6.25847 20.1392 5.32468 20.6149C3.8451 21.3687 2.64217 22.5716 1.8883 24.0512C1.03125 25.7334 1.03125 27.9351 1.03125 32.3391V36.0086C1.03125 40.4126 1.03125 42.6143 1.8883 44.2965C2.64217 45.7761 3.8451 46.9789 5.32468 47.7327C7.00671 48.5898 9.20864 48.5898 13.6125 48.5898H30.3875C34.7915 48.5898 36.9932 48.5898 38.6754 47.7327C40.155 46.9789 41.3578 45.7761 42.1117 44.2965C42.9688 42.6143 42.9688 40.4126 42.9688 36.0086V32.3391C42.9688 27.9351 42.9688 25.7334 42.1117 24.0512C41.3578 22.5716 40.155 21.3687 38.6754 20.6149C37.7415 20.1392 36.6475 19.9274 35.1055 19.8333M8.89453 19.8333V14.5156C8.89453 7.27768 14.7621 1.41016 22 1.41016C29.2379 1.41016 35.1055 7.27768 35.1055 14.5156V19.8333" stroke="white" stroke-width="2" stroke-linecap="round" stroke-linejoin="round"/>
</svg>
