<svg width="14" height="14" viewBox="0 0 14 14" fill="none" xmlns="http://www.w3.org/2000/svg">
<path d="M5.80062 8.19675L12.8055 1.19444M5.99974 8.51165L7.5881 11.6884C7.97197 12.4561 8.16387 12.84 8.40565 12.9429C8.61549 13.0322 8.85535 13.016 9.05132 12.8994C9.2771 12.7649 9.41575 12.3588 9.69313 11.5465L12.6943 2.75744C12.936 2.0497 13.0567 1.69583 12.9741 1.46174C12.9021 1.25809 12.7419 1.09789 12.5383 1.02595C12.3042 0.943239 11.9503 1.06407 11.2425 1.30574L2.45346 4.3069C1.6412 4.58425 1.23507 4.72293 1.10063 4.94872C0.983953 5.14465 0.967786 5.38451 1.05711 5.59429C1.16004 5.83608 1.54389 6.02805 2.31158 6.41185L5.48835 8.00028C5.61487 8.06353 5.67812 8.09512 5.73287 8.13736C5.78154 8.17488 5.82514 8.21848 5.86259 8.26708C5.9049 8.3219 5.93649 8.38515 5.99974 8.51165Z" stroke="white" stroke-linecap="round" stroke-linejoin="round"/>
</svg>
