<svg width="20" height="20" viewBox="0 0 20 20" fill="none" xmlns="http://www.w3.org/2000/svg">
<g clip-path="url(#clip0_159_3981)">
<path d="M10.0853 12.4199C11.4218 12.4199 12.5052 11.3365 12.5052 10C12.5052 8.66351 11.4218 7.58008 10.0853 7.58008C8.74884 7.58008 7.66541 8.66351 7.66541 10C7.66541 11.3365 8.74884 12.4199 10.0853 12.4199Z" stroke="#5E2EC3" stroke-width="0.806641" stroke-linecap="round" stroke-linejoin="round"/>
<path d="M16.0543 12.4199C15.947 12.6632 15.9149 12.9331 15.9624 13.1948C16.0098 13.4564 16.1346 13.6979 16.3205 13.888L16.3689 13.9364C16.5189 14.0862 16.6379 14.2642 16.7191 14.46C16.8003 14.6559 16.8421 14.8658 16.8421 15.0778C16.8421 15.2898 16.8003 15.4997 16.7191 15.6956C16.6379 15.8914 16.5189 16.0694 16.3689 16.2192C16.2191 16.3692 16.0412 16.4882 15.8453 16.5694C15.6495 16.6506 15.4396 16.6924 15.2275 16.6924C15.0155 16.6924 14.8056 16.6506 14.6097 16.5694C14.4139 16.4882 14.236 16.3692 14.0861 16.2192L14.0377 16.1708C13.8476 15.9848 13.6062 15.8601 13.3445 15.8126C13.0828 15.7652 12.813 15.7972 12.5697 15.9046C12.3311 16.0069 12.1276 16.1766 11.9843 16.3931C11.841 16.6095 11.7641 16.8631 11.763 17.1226V17.2598C11.763 17.6876 11.593 18.098 11.2905 18.4005C10.9879 18.7031 10.5776 18.873 10.1497 18.873C9.72187 18.873 9.31152 18.7031 9.00898 18.4005C8.70643 18.098 8.53646 17.6876 8.53646 17.2598V17.1872C8.53021 16.9202 8.44379 16.6612 8.28842 16.444C8.13306 16.2268 7.91594 16.0613 7.66528 15.9691C7.42199 15.8618 7.1521 15.8297 6.89043 15.8772C6.62876 15.9246 6.38731 16.0494 6.1972 16.2353L6.1488 16.2837C5.99897 16.4337 5.82104 16.5527 5.62519 16.6339C5.42934 16.7151 5.21941 16.7569 5.0074 16.7569C4.79539 16.7569 4.58546 16.7151 4.38961 16.6339C4.19376 16.5527 4.01584 16.4337 3.86601 16.2837C3.71601 16.1339 3.59701 15.956 3.51583 15.7601C3.43464 15.5643 3.39285 15.3543 3.39285 15.1423C3.39285 14.9303 3.43464 14.7204 3.51583 14.5245C3.59701 14.3287 3.71601 14.1508 3.86601 14.0009L3.9144 13.9525C4.10036 13.7624 4.22511 13.521 4.27256 13.2593C4.32 12.9976 4.28797 12.7277 4.1806 12.4845C4.07834 12.2459 3.90856 12.0424 3.69215 11.8991C3.47573 11.7558 3.22213 11.6788 2.96257 11.6778H2.82544C2.39757 11.6778 1.98723 11.5078 1.68468 11.2053C1.38213 10.9027 1.21216 10.4924 1.21216 10.0645C1.21216 9.63666 1.38213 9.22632 1.68468 8.92377C1.98723 8.62122 2.39757 8.45125 2.82544 8.45125H2.89804C3.16503 8.44501 3.42397 8.35858 3.64119 8.20322C3.85842 8.04785 4.02388 7.83073 4.11606 7.58008C4.22344 7.33678 4.25547 7.0669 4.20803 6.80523C4.16058 6.54356 4.03583 6.3021 3.84987 6.11199L3.80147 6.06359C3.65148 5.91376 3.53248 5.73584 3.4513 5.53999C3.37011 5.34414 3.32832 5.13421 3.32832 4.9222C3.32832 4.71019 3.37011 4.50026 3.4513 4.30441C3.53248 4.10856 3.65148 3.93063 3.80147 3.7808C3.95131 3.6308 4.12923 3.51181 4.32508 3.43062C4.52093 3.34944 4.73086 3.30765 4.94287 3.30765C5.15488 3.30765 5.36481 3.34944 5.56066 3.43062C5.75651 3.51181 5.93444 3.6308 6.08427 3.7808L6.13267 3.8292C6.32277 4.01516 6.56423 4.13991 6.8259 4.18735C7.08757 4.2348 7.35746 4.20277 7.60075 4.09539H7.66528C7.90386 3.99314 8.10734 3.82336 8.25066 3.60694C8.39398 3.39053 8.47089 3.13693 8.47192 2.87736V2.74023C8.47192 2.31237 8.64189 1.90202 8.94444 1.59947C9.24699 1.29692 9.65734 1.12695 10.0852 1.12695C10.5131 1.12695 10.9234 1.29692 11.226 1.59947C11.5285 1.90202 11.6985 2.31237 11.6985 2.74023V2.81283C11.6995 3.0724 11.7764 3.326 11.9198 3.54241C12.0631 3.75882 12.2665 3.92861 12.5051 4.03086C12.7484 4.13824 13.0183 4.17027 13.28 4.12282C13.5416 4.07537 13.7831 3.95063 13.9732 3.76467L14.0216 3.71627C14.1714 3.56627 14.3494 3.44728 14.5452 3.36609C14.7411 3.2849 14.951 3.24312 15.163 3.24312C15.375 3.24312 15.585 3.2849 15.7808 3.36609C15.9766 3.44728 16.1546 3.56627 16.3044 3.71627C16.4544 3.8661 16.5734 4.04403 16.6546 4.23988C16.7358 4.43573 16.7776 4.64566 16.7776 4.85767C16.7776 5.06968 16.7358 5.27961 16.6546 5.47546C16.5734 5.67131 16.4544 5.84923 16.3044 5.99906L16.256 6.04746C16.07 6.23757 15.9453 6.47903 15.8979 6.7407C15.8504 7.00237 15.8824 7.27225 15.9898 7.51555V7.58008C16.0921 7.81866 16.2619 8.02213 16.4783 8.16545C16.6947 8.30877 16.9483 8.38568 17.2078 8.38672H17.345C17.7728 8.38672 18.1832 8.55669 18.4857 8.85924C18.7883 9.16179 18.9583 9.57213 18.9583 10C18.9583 10.4279 18.7883 10.8382 18.4857 11.1408C18.1832 11.4433 17.7728 11.6133 17.345 11.6133H17.2724C17.0128 11.6143 16.7592 11.6912 16.5428 11.8345C16.3264 11.9779 16.1566 12.1813 16.0543 12.4199V12.4199Z" stroke="#5E2EC3" stroke-width="0.806641" stroke-linecap="round" stroke-linejoin="round"/>
</g>
<defs>
<clipPath id="clip0_159_3981">
<rect width="19.3594" height="19.3594" fill="white" transform="translate(0.40564 0.320312)"/>
</clipPath>
</defs>
</svg>
