<svg width="58" height="59" viewBox="0 0 58 59" fill="none" xmlns="http://www.w3.org/2000/svg">
<g clip-path="url(#clip0_139_3001)">
<path fill-rule="evenodd" clip-rule="evenodd" d="M29.0096 3.67471C23.3649 3.67471 18.7731 8.26647 18.7731 13.9111V28.5346C18.7731 34.1793 23.3649 38.7711 29.0096 38.7711C34.6543 38.7711 39.246 34.1793 39.246 28.5346V13.9112C39.246 8.2665 34.6543 3.67471 29.0096 3.67471ZM12.9237 22.1974V29.2488C12.9237 38.1165 20.1419 45.3347 29.0096 45.3347C37.8772 45.3347 45.0954 38.1165 45.0954 29.2488V22.1974H48.0201V29.2488C48.0201 39.2389 40.2735 47.4544 30.4721 48.2037L30.4719 55.8253H37.7837V58.75H20.2355V55.8253H27.5472L27.5471 48.2037C17.7456 47.4544 9.99902 39.2389 9.99902 29.2488V22.1974H12.9237ZM29.0096 0.75C36.2657 0.75 42.1707 6.65497 42.1707 13.9112V28.5346C42.1707 35.7908 36.2657 41.6958 29.0096 41.6958C21.7534 41.6958 15.8484 35.7908 15.8484 28.5346V13.9112C15.8484 6.65497 21.7534 0.75 29.0096 0.75Z" fill="white"/>
</g>
<defs>
<clipPath id="clip0_139_3001">
<rect width="58" height="58" fill="white" transform="translate(0 0.75)"/>
</clipPath>
</defs>
</svg>
