<svg width="18" height="17" viewBox="0 0 18 17" fill="none" xmlns="http://www.w3.org/2000/svg">
<path d="M11.9503 2.9231C13.3028 2.9231 14.3903 4.01762 14.3903 5.3631C14.3903 6.68069 13.3446 7.75429 12.0409 7.80309C11.9807 7.79611 11.9199 7.79611 11.8597 7.80309M13.2958 14.0774C13.7977 13.9728 14.2718 13.7706 14.6622 13.4708C15.7497 12.6552 15.7497 11.3097 14.6622 10.494C14.2787 10.2012 13.8117 10.0061 13.3167 9.89451M6.89603 7.71246C6.82632 7.70549 6.74266 7.70549 6.66598 7.71246C5.8658 7.68529 5.10762 7.34774 4.55199 6.77129C3.99636 6.19484 3.68691 5.42476 3.68919 4.62413C3.68919 2.91613 5.06952 1.52882 6.78449 1.52882C7.60449 1.51403 8.39678 1.82559 8.98707 2.39496C9.57736 2.96433 9.91729 3.74487 9.93208 4.56487C9.94687 5.38487 9.63531 6.17716 9.06594 6.76745C8.49657 7.35774 7.71603 7.69767 6.89603 7.71246ZM3.41033 10.2849C1.72325 11.4143 1.72325 13.2547 3.41033 14.3771C5.32747 15.6599 8.47157 15.6599 10.3887 14.3771C12.0758 13.2478 12.0758 11.4073 10.3887 10.2849C8.47854 9.00914 5.33444 9.00914 3.41033 10.2849Z" stroke="#3A2EC3" stroke-width="1.04571" stroke-linecap="round" stroke-linejoin="round"/>
</svg>
