<svg width="15" height="19" viewBox="0 0 15 19" fill="none" xmlns="http://www.w3.org/2000/svg">
<mask id="path-1-inside-1_107_1059" fill="white">
<path d="M0.510254 18.5C0.510254 14.634 3.64426 11.5 7.51025 11.5C11.3763 11.5 14.5103 14.634 14.5103 18.5M11.5103 4.5C11.5103 6.70914 9.71935 8.5 7.51025 8.5C5.30111 8.5 3.51025 6.70914 3.51025 4.5C3.51025 2.29086 5.30111 0.5 7.51025 0.5C9.71935 0.5 11.5103 2.29086 11.5103 4.5Z"/>
</mask>
<path d="M-0.489746 18.5C-0.489746 19.0523 -0.0420309 19.5 0.510254 19.5C1.06254 19.5 1.51025 19.0523 1.51025 18.5H-0.489746ZM13.5103 18.5C13.5103 19.0523 13.958 19.5 14.5103 19.5C15.0625 19.5 15.5103 19.0523 15.5103 18.5H13.5103ZM1.51025 18.5C1.51025 15.1863 4.19655 12.5 7.51025 12.5V10.5C3.09198 10.5 -0.489746 14.0817 -0.489746 18.5H1.51025ZM7.51025 12.5C10.824 12.5 13.5103 15.1863 13.5103 18.5H15.5103C15.5103 14.0817 11.9285 10.5 7.51025 10.5V12.5ZM10.5103 4.5C10.5103 6.15685 9.16708 7.5 7.51025 7.5V9.5C10.2716 9.5 12.5103 7.26143 12.5103 4.5H10.5103ZM7.51025 7.5C5.8534 7.5 4.51025 6.15686 4.51025 4.5H2.51025C2.51025 7.26143 4.74883 9.5 7.51025 9.5V7.5ZM4.51025 4.5C4.51025 2.84314 5.8534 1.5 7.51025 1.5V-0.5C4.74883 -0.5 2.51025 1.73858 2.51025 4.5H4.51025ZM7.51025 1.5C9.16708 1.5 10.5103 2.84315 10.5103 4.5H12.5103C12.5103 1.73857 10.2716 -0.5 7.51025 -0.5V1.5Z" fill="#3A2EC3" mask="url(#path-1-inside-1_107_1059)"/>
</svg>
